SplineFontDB: 3.0
FontName: CaliforniaGothic-Regular
FullName: California Gothic Regular
FamilyName: California Gothic
Weight: Book
Copyright: Copyright 2020 The California Gothic Project Authors (https://github.com/mattlag/California-Gothic)
Version: 2.2;
ItalicAngle: 0
UnderlinePosition: -150
UnderlineWidth: 100
Ascent: 1638
Descent: 410
InvalidEm: 0
sfntRevision: 0x00023333
LayerCount: 2
Layer: 0 1 "Back" 1
Layer: 1 1 "Fore" 0
PreferredKerning: 4
XUID: [1021 898 610667815 20930]
StyleMap: 0x0040
FSType: 0
OS2Version: 4
OS2_WeightWidthSlopeOnly: 0
OS2_UseTypoMetrics: 0
CreationTime: 1581541150
ModificationTime: 1581546558
PfmFamily: 17
TTFWeight: 400
TTFWidth: 5
LineGap: 0
VLineGap: 0
Panose: 2 0 0 0 0 0 0 0 0 0
OS2TypoAscent: 1800
OS2TypoAOffset: 0
OS2TypoDescent: -400
OS2TypoDOffset: 0
OS2TypoLinegap: 0
OS2WinAscent: 1800
OS2WinAOffset: 0
OS2WinDescent: 400
OS2WinDOffset: 0
HheadAscent: 1800
HheadAOffset: 0
HheadDescent: -400
HheadDOffset: 0
OS2SubXSize: 1331
OS2SubYSize: 1229
OS2SubXOff: 0
OS2SubYOff: 154
OS2SupXSize: 1331
OS2SupYSize: 1229
OS2SupXOff: 0
OS2SupYOff: 717
OS2StrikeYSize: 100
OS2StrikeYPos: 420
OS2CapHeight: 1400
OS2XHeight: 700
OS2FamilyClass: 2048
OS2Vendor: 'LaG '
OS2CodePages: 00000093.00000000
OS2UnicodeRanges: 80000067.0000006b.00000028.00000000
Lookup: 258 0 0 "'kern' Horizontal Kerning in Latin lookup 0" { "'kern' Horizontal Kerning in Latin lookup 0 subtable"  } ['kern' ('latn' <'dflt' > ) ]
MarkAttachClasses: 1
DEI: 91125
TtTable: prep
SVTCA[y-axis]
MPPEM
PUSHW_1
 200
GT
IF
PUSHB_2
 1
 1
INSTCTRL
EIF
PUSHB_1
 1
PUSHW_2
 2048
 2048
MUL
WCVTF
PUSHB_2
 0
 7
WS
PUSHB_4
 0
 26
 2
 0
LOOPCALL
PUSHB_2
 0
 7
WS
PUSHB_6
 31
 4
 15
 8
 2
 10
LOOPCALL
PUSHB_2
 0
 7
WS
PUSHB_6
 35
 2
 23
 6
 2
 10
LOOPCALL
PUSHB_2
 0
 9
WS
PUSHW_4
 2048
 1024
 2
 11
LOOPCALL
PUSHB_2
 0
 11
WS
PUSHW_4
 64
 64
 2
 11
LOOPCALL
PUSHW_2
 3
 0
WCVTP
PUSHB_2
 36
 1
GETINFO
LTEQ
IF
PUSHB_1
 64
GETINFO
IF
PUSHW_2
 3
 100
WCVTP
PUSHB_2
 40
 1
GETINFO
LTEQ
IF
PUSHW_1
 2048

StartChar: .notdef
Encoding: 65536 -1 0
GlifName: _notdef
Width: 1064
Flags: W
LayerCount: 2
Fore
SplineSet
100 1400 m 5,0,-1
 964 1400 l 5,1,-1
 964 0 l 5,2,-1
 100 0 l 5,3,-1
 100 1400 l 5,0,-1
250 150 m 5,4,-1
 814 150 l 5,5,-1
 814 1250 l 5,6,-1
 250 1250 l 5,7,-1
 250 150 l 5,4,-1
EndSplineSet
EndChar

StartChar: A
Encoding: 65 65 1
GlifName: A_
Width: 940
GlyphClass: 2
Flags: W
LayerCount: 2
Fore
SplineSet
230 0 m 1,0,-1
 0 0 l 1,1,-1
 350 1400 l 1,2,-1
 590 1400 l 1,3,-1
 940 0 l 1,4,-1
 710 0 l 1,5,-1
 644 260 l 1,6,-1
 296 260 l 1,7,-1
 230 0 l 1,0,-1
349 470 m 1,8,-1
 591 470 l 1,9,-1
 470 945 l 1,10,-1
 349 470 l 1,8,-1
EndSplineSet
EndChar

StartChar: AE
Encoding: 198 198 2
GlifName: A_E_
Width: 1461
GlyphClass: 2
Flags: W
LayerCount: 2
Fore
SplineSet
899 240 m 1,0,-1
 1361 240 l 1,1,-1
 1361 0 l 1,2,-1
 649 0 l 1,3,-1
 649 318 l 1,4,-1
 412 318 l 1,5,-1
 330 0 l 1,6,-1
 100 0 l 1,7,-1
 450 1400 l 1,8,-1
 1360 1400 l 1,9,-1
 1360 1170 l 1,10,-1
 899 1170 l 1,11,-1
 899 800 l 1,12,-1
 1279 800 l 1,13,-1
 1279 580 l 1,14,-1
 899 580 l 1,15,-1
 899 240 l 1,0,-1
649 548 m 1,16,-1
 649 1170 l 1,17,-1
 631 1170 l 1,18,-1
 471 548 l 1,19,-1
 649 548 l 1,16,-1
EndSplineSet
EndChar

StartChar: Aacute
Encoding: 193 193 3
GlifName: A_acute
Width: 940
GlyphClass: 2
Flags: W
LayerCount: 2
Fore
SplineSet
760 1750 m 1,0,-1
 560 1490 l 1,1,-1
 400 1490 l 1,2,-1
 540 1750 l 1,3,-1
 760 1750 l 1,0,-1
230 0 m 1,4,-1
 0 0 l 1,5,-1
 350 1400 l 1,6,-1
 590 1400 l 1,7,-1
 940 0 l 1,8,-1
 710 0 l 1,9,-1
 644 260 l 1,10,-1
 296 260 l 1,11,-1
 230 0 l 1,4,-1
349 470 m 1,12,-1
 591 470 l 1,13,-1
 470 945 l 1,14,-1
 349 470 l 1,12,-1
EndSplineSet
EndChar

StartChar: Abreve
Encoding: 258 258 4
GlifName: A_breve
Width: 940
GlyphClass: 2
Flags: W
LayerCount: 2
Fore
SplineSet
470 1504 m 256,0,1
 398 1504 398 1504 341.5 1551 c 128,-1,2
 285 1598 285 1598 274 1667 c 1,3,-1
 385 1700 l 1,4,5
 385 1667 385 1667 411 1643 c 128,-1,6
 437 1619 437 1619 470 1619 c 256,7,8
 503 1619 503 1619 529 1643 c 128,-1,9
 555 1667 555 1667 555 1700 c 1,10,-1
 666 1667 l 1,11,12
 655 1598 655 1598 598.5 1551 c 128,-1,13
 542 1504 542 1504 470 1504 c 256,0,1
230 0 m 1,14,-1
 0 0 l 1,15,-1
 350 1400 l 1,16,-1
 590 1400 l 1,17,-1
 940 0 l 1,18,-1
 710 0 l 1,19,-1
 644 260 l 1,20,-1
 296 260 l 1,21,-1
 230 0 l 1,14,-1
349 470 m 1,22,-1
 591 470 l 1,23,-1
 470 945 l 1,24,-1
 349 470 l 1,22,-1
EndSplineSet
EndChar

StartChar: Acircumflex
Encoding: 194 194 5
GlifName: A_circumflex
Width: 940
GlyphClass: 2
Flags: W
LayerCount: 2
Fore
SplineSet
384 1800 m 1,0,-1
 557 1800 l 1,1,-1
 741 1500 l 1,2,-1
 586 1500 l 1,3,-1
 471 1682 l 1,4,-1
 355 1500 l 1,5,-1
 200 1500 l 1,6,-1
 384 1800 l 1,0,-1
230 0 m 1,7,-1
 0 0 l 1,8,-1
 350 1400 l 1,9,-1
 590 1400 l 1,10,-1
 940 0 l 1,11,-1
 710 0 l 1,12,-1
 644 260 l 1,13,-1
 296 260 l 1,14,-1
 230 0 l 1,7,-1
349 470 m 1,15,-1
 591 470 l 1,16,-1
 470 945 l 1,17,-1
 349 470 l 1,15,-1
EndSplineSet
EndChar

StartChar: Adieresis
Encoding: 196 196 6
GlifName: A_dieresis
Width: 940
GlyphClass: 2
Flags: W
LayerCount: 2
Fore
SplineSet
275 1700 m 1,0,-1
 425 1700 l 1,1,-1
 425 1550 l 1,2,-1
 275 1550 l 1,3,-1
 275 1700 l 1,0,-1
515 1700 m 1,4,-1
 665 1700 l 1,5,-1
 665 1550 l 1,6,-1
 515 1550 l 1,7,-1
 515 1700 l 1,4,-1
230 0 m 1,8,-1
 0 0 l 1,9,-1
 350 1400 l 1,10,-1
 590 1400 l 1,11,-1
 940 0 l 1,12,-1
 710 0 l 1,13,-1
 644 260 l 1,14,-1
 296 260 l 1,15,-1
 230 0 l 1,8,-1
349 470 m 1,16,-1
 591 470 l 1,17,-1
 470 945 l 1,18,-1
 349 470 l 1,16,-1
EndSplineSet
EndChar

StartChar: Agrave
Encoding: 192 192 7
GlifName: A_grave
Width: 940
GlyphClass: 2
Flags: W
LayerCount: 2
Fore
SplineSet
400 1490 m 1,0,-1
 200 1750 l 1,1,-1
 420 1750 l 1,2,-1
 560 1490 l 1,3,-1
 400 1490 l 1,0,-1
230 0 m 1,4,-1
 0 0 l 1,5,-1
 350 1400 l 1,6,-1
 590 1400 l 1,7,-1
 940 0 l 1,8,-1
 710 0 l 1,9,-1
 644 260 l 1,10,-1
 296 260 l 1,11,-1
 230 0 l 1,4,-1
349 470 m 1,12,-1
 591 470 l 1,13,-1
 470 945 l 1,14,-1
 349 470 l 1,12,-1
EndSplineSet
EndChar

StartChar: Amacron
Encoding: 256 256 8
GlifName: A_macron
Width: 940
GlyphClass: 2
Flags: W
LayerCount: 2
Fore
SplineSet
250 1640 m 1,0,-1
 690 1640 l 1,1,-1
 690 1530 l 1,2,-1
 250 1530 l 1,3,-1
 250 1640 l 1,0,-1
230 0 m 1,4,-1
 0 0 l 1,5,-1
 350 1400 l 1,6,-1
 590 1400 l 1,7,-1
 940 0 l 1,8,-1
 710 0 l 1,9,-1
 644 260 l 1,10,-1
 296 260 l 1,11,-1
 230 0 l 1,4,-1
349 470 m 1,12,-1
 591 470 l 1,13,-1
 470 945 l 1,14,-1
 349 470 l 1,12,-1
EndSplineSet
EndChar

StartChar: Aogonek
Encoding: 260 260 9
GlifName: A_ogonek
Width: 940
GlyphClass: 2
Flags: W
LayerCount: 2
Fore
SplineSet
230 0 m 1,0,-1
 80 -153 l 1,1,-1
 80 -167 l 2,2,3
 80 -193 80 -193 98 -211.5 c 128,-1,4
 116 -230 116 -230 142 -230 c 2,5,-1
 277 -230 l 2,6,7
 303 -230 303 -230 321.5 -211.5 c 128,-1,8
 340 -193 340 -193 340 -167 c 2,9,-1
 340 -155 l 1,10,-1
 500 -155 l 1,11,-1
 500 -230 l 2,12,13
 500 -296 500 -296 453 -343 c 128,-1,14
 406 -390 406 -390 340 -390 c 2,15,-1
 80 -390 l 2,16,17
 14 -390 14 -390 -33 -343 c 128,-1,18
 -80 -296 -80 -296 -80 -230 c 2,19,-1
 -80 -80 l 1,20,-1
 0 0 l 1,21,-1
 350 1400 l 1,22,-1
 590 1400 l 1,23,-1
 940 0 l 1,24,-1
 710 0 l 1,25,-1
 644 260 l 1,26,-1
 296 260 l 1,27,-1
 230 0 l 1,0,-1
349 470 m 1,28,-1
 591 470 l 1,29,-1
 470 945 l 1,30,-1
 349 470 l 1,28,-1
EndSplineSet
EndChar

StartChar: Aring
Encoding: 197 197 10
GlifName: A_ring
Width: 940
GlyphClass: 2
Flags: W
LayerCount: 2
Fore
SplineSet
610 1661 m 2,0,-1
 610 1626 l 2,1,2
 610 1568 610 1568 569.5 1529 c 128,-1,3
 529 1490 529 1490 470 1490 c 256,4,5
 411 1490 411 1490 370.5 1529 c 128,-1,6
 330 1568 330 1568 330 1626 c 2,7,-1
 330 1661 l 2,8,9
 330 1719 330 1719 370.5 1759.5 c 128,-1,10
 411 1800 411 1800 470 1800 c 256,11,12
 529 1800 529 1800 569.5 1759.5 c 128,-1,13
 610 1719 610 1719 610 1661 c 2,0,-1
525 1659 m 2,14,15
 525 1690 525 1690 509 1710 c 128,-1,16
 493 1730 493 1730 470 1730 c 0,17,18
 448 1730 448 1730 431.5 1710 c 128,-1,19
 415 1690 415 1690 415 1659 c 2,20,-1
 415 1631 l 2,21,22
 415 1600 415 1600 431.5 1580 c 128,-1,23
 448 1560 448 1560 470 1560 c 0,24,25
 493 1560 493 1560 509 1580 c 128,-1,26
 525 1600 525 1600 525 1631 c 2,27,-1
 525 1659 l 2,14,15
230 0 m 1,28,-1
 0 0 l 1,29,-1
 350 1400 l 1,30,-1
 590 1400 l 1,31,-1
 940 0 l 1,32,-1
 710 0 l 1,33,-1
 644 260 l 1,34,-1
 296 260 l 1,35,-1
 230 0 l 1,28,-1
349 470 m 1,36,-1
 591 470 l 1,37,-1
 470 945 l 1,38,-1
 349 470 l 1,36,-1
EndSplineSet
EndChar

StartChar: Atilde
Encoding: 195 195 11
GlifName: A_tilde
Width: 940
GlyphClass: 2
Flags: W
LayerCount: 2
Fore
SplineSet
632 1653 m 1,0,-1
 721 1626 l 1,1,2
 711 1571 711 1571 666 1533.5 c 128,-1,3
 621 1496 621 1496 564 1496 c 0,4,5
 515 1496 515 1496 477 1523 c 128,-1,6
 439 1550 439 1550 422 1593 c 1,7,8
 403 1619 403 1619 376 1619 c 0,9,10
 350 1619 350 1619 329 1599.5 c 128,-1,11
 308 1580 308 1580 308 1553 c 1,12,-1
 219 1580 l 1,13,14
 228 1635 228 1635 273 1672.5 c 128,-1,15
 318 1710 318 1710 376 1710 c 0,16,17
 425 1710 425 1710 463 1683.5 c 128,-1,18
 501 1657 501 1657 517 1613 c 1,19,20
 526 1602 526 1602 537 1594.5 c 128,-1,21
 548 1587 548 1587 564 1587 c 0,22,23
 590 1587 590 1587 611 1606.5 c 128,-1,24
 632 1626 632 1626 632 1653 c 1,0,-1
230 0 m 1,25,-1
 0 0 l 1,26,-1
 350 1400 l 1,27,-1
 590 1400 l 1,28,-1
 940 0 l 1,29,-1
 710 0 l 1,30,-1
 644 260 l 1,31,-1
 296 260 l 1,32,-1
 230 0 l 1,25,-1
349 470 m 1,33,-1
 591 470 l 1,34,-1
 470 945 l 1,35,-1
 349 470 l 1,33,-1
EndSplineSet
EndChar

StartChar: B
Encoding: 66 66 12
GlifName: B_
Width: 880
GlyphClass: 2
Flags: W
LayerCount: 2
Fore
SplineSet
100 0 m 1,0,-1
 100 1400 l 1,1,-1
 635 1400 l 2,2,3
 695 1400 695 1400 737.5 1357.5 c 128,-1,4
 780 1315 780 1315 780 1255 c 2,5,-1
 780 835 l 2,6,7
 780 790 780 790 754.5 753.5 c 128,-1,8
 729 717 729 717 688 700 c 1,9,10
 729 684 729 684 754.5 647 c 128,-1,11
 780 610 780 610 780 565 c 2,12,-1
 780 145 l 2,13,14
 780 85 780 85 737.5 42.5 c 128,-1,15
 695 0 695 0 635 0 c 2,16,-1
 100 0 l 1,0,-1
350 820 m 1,17,-1
 550 820 l 1,18,-1
 550 1160 l 1,19,-1
 350 1160 l 1,20,-1
 350 820 l 1,17,-1
350 240 m 1,21,-1
 550 240 l 1,22,-1
 550 580 l 1,23,-1
 350 580 l 1,24,-1
 350 240 l 1,21,-1
EndSplineSet
EndChar

StartChar: C
Encoding: 67 67 13
GlifName: C_
Width: 910
GlyphClass: 2
Flags: W
LayerCount: 2
Fore
SplineSet
100 145 m 2,0,-1
 100 1255 l 2,1,2
 100 1315 100 1315 142.5 1357.5 c 128,-1,3
 185 1400 185 1400 245 1400 c 2,4,-1
 665 1400 l 2,5,6
 725 1400 725 1400 767.5 1357.5 c 128,-1,7
 810 1315 810 1315 810 1255 c 2,8,-1
 810 955 l 1,9,-1
 560 955 l 1,10,-1
 560 1143 l 1,11,-1
 360 1143 l 1,12,-1
 360 260 l 1,13,-1
 560 260 l 1,14,-1
 560 445 l 1,15,-1
 810 445 l 1,16,-1
 810 145 l 2,17,18
 810 86 810 86 768 43 c 128,-1,19
 726 0 726 0 667 0 c 2,20,-1
 245 0 l 2,21,22
 185 0 185 0 142.5 42.5 c 128,-1,23
 100 85 100 85 100 145 c 2,0,-1
EndSplineSet
EndChar

StartChar: Cacute
Encoding: 262 262 14
GlifName: C_acute
Width: 910
GlyphClass: 2
Flags: W
LayerCount: 2
Fore
SplineSet
700 1750 m 1,0,-1
 500 1490 l 1,1,-1
 340 1490 l 1,2,-1
 480 1750 l 1,3,-1
 700 1750 l 1,0,-1
100 145 m 2,4,-1
 100 1255 l 2,5,6
 100 1315 100 1315 142.5 1357.5 c 128,-1,7
 185 1400 185 1400 245 1400 c 2,8,-1
 665 1400 l 2,9,10
 725 1400 725 1400 767.5 1357.5 c 128,-1,11
 810 1315 810 1315 810 1255 c 2,12,-1
 810 955 l 1,13,-1
 560 955 l 1,14,-1
 560 1143 l 1,15,-1
 360 1143 l 1,16,-1
 360 260 l 1,17,-1
 560 260 l 1,18,-1
 560 445 l 1,19,-1
 810 445 l 1,20,-1
 810 145 l 2,21,22
 810 86 810 86 768 43 c 128,-1,23
 726 0 726 0 667 0 c 2,24,-1
 245 0 l 2,25,26
 185 0 185 0 142.5 42.5 c 128,-1,27
 100 85 100 85 100 145 c 2,4,-1
EndSplineSet
EndChar

StartChar: Ccaron
Encoding: 268 268 15
GlifName: C_caron
Width: 910
GlyphClass: 2
Flags: W
LayerCount: 2
Fore
SplineSet
369 1500 m 1,0,-1
 185 1800 l 1,1,-1
 340 1800 l 1,2,-1
 456 1618 l 1,3,-1
 571 1800 l 1,4,-1
 726 1800 l 1,5,-1
 542 1500 l 1,6,-1
 369 1500 l 1,0,-1
100 145 m 2,7,-1
 100 1255 l 2,8,9
 100 1315 100 1315 142.5 1357.5 c 128,-1,10
 185 1400 185 1400 245 1400 c 2,11,-1
 665 1400 l 2,12,13
 725 1400 725 1400 767.5 1357.5 c 128,-1,14
 810 1315 810 1315 810 1255 c 2,15,-1
 810 955 l 1,16,-1
 560 955 l 1,17,-1
 560 1143 l 1,18,-1
 360 1143 l 1,19,-1
 360 260 l 1,20,-1
 560 260 l 1,21,-1
 560 445 l 1,22,-1
 810 445 l 1,23,-1
 810 145 l 2,24,25
 810 86 810 86 768 43 c 128,-1,26
 726 0 726 0 667 0 c 2,27,-1
 245 0 l 2,28,29
 185 0 185 0 142.5 42.5 c 128,-1,30
 100 85 100 85 100 145 c 2,7,-1
EndSplineSet
EndChar

StartChar: Ccedilla
Encoding: 199 199 16
GlifName: C_cedilla
Width: 910
GlyphClass: 2
Flags: W
LayerCount: 2
Fore
SplineSet
100 145 m 2,0,-1
 100 1255 l 2,1,2
 100 1315 100 1315 142.5 1357.5 c 128,-1,3
 185 1400 185 1400 245 1400 c 2,4,-1
 665 1400 l 2,5,6
 725 1400 725 1400 767.5 1357.5 c 128,-1,7
 810 1315 810 1315 810 1255 c 2,8,-1
 810 955 l 1,9,-1
 560 955 l 1,10,-1
 560 1143 l 1,11,-1
 360 1143 l 1,12,-1
 360 260 l 1,13,-1
 560 260 l 1,14,-1
 560 445 l 1,15,-1
 810 445 l 1,16,-1
 810 145 l 2,17,18
 810 86 810 86 768 43 c 128,-1,19
 726 0 726 0 667 0 c 2,20,-1
 665 0 l 1,21,-1
 745 -80 l 1,22,-1
 745 -230 l 2,23,24
 745 -296 745 -296 698 -343 c 128,-1,25
 651 -390 651 -390 585 -390 c 2,26,-1
 325 -390 l 2,27,28
 259 -390 259 -390 212 -343 c 128,-1,29
 165 -296 165 -296 165 -230 c 2,30,-1
 165 -155 l 1,31,-1
 325 -155 l 1,32,-1
 325 -167 l 2,33,34
 325 -193 325 -193 343.5 -211.5 c 128,-1,35
 362 -230 362 -230 388 -230 c 2,36,-1
 523 -230 l 2,37,38
 549 -230 549 -230 567 -211.5 c 128,-1,39
 585 -193 585 -193 585 -167 c 2,40,-1
 584 -149 l 1,41,-1
 439 0 l 1,42,-1
 245 0 l 2,43,44
 185 0 185 0 142.5 42.5 c 128,-1,45
 100 85 100 85 100 145 c 2,0,-1
EndSplineSet
EndChar

StartChar: Ccircumflex
Encoding: 264 264 17
GlifName: C_circumflex
Width: 910
GlyphClass: 2
Flags: W
LayerCount: 2
Fore
SplineSet
369 1800 m 1,0,-1
 542 1800 l 1,1,-1
 726 1500 l 1,2,-1
 571 1500 l 1,3,-1
 456 1682 l 1,4,-1
 340 1500 l 1,5,-1
 185 1500 l 1,6,-1
 369 1800 l 1,0,-1
100 145 m 2,7,-1
 100 1255 l 2,8,9
 100 1315 100 1315 142.5 1357.5 c 128,-1,10
 185 1400 185 1400 245 1400 c 2,11,-1
 665 1400 l 2,12,13
 725 1400 725 1400 767.5 1357.5 c 128,-1,14
 810 1315 810 1315 810 1255 c 2,15,-1
 810 955 l 1,16,-1
 560 955 l 1,17,-1
 560 1143 l 1,18,-1
 360 1143 l 1,19,-1
 360 260 l 1,20,-1
 560 260 l 1,21,-1
 560 445 l 1,22,-1
 810 445 l 1,23,-1
 810 145 l 2,24,25
 810 86 810 86 768 43 c 128,-1,26
 726 0 726 0 667 0 c 2,27,-1
 245 0 l 2,28,29
 185 0 185 0 142.5 42.5 c 128,-1,30
 100 85 100 85 100 145 c 2,7,-1
EndSplineSet
EndChar

StartChar: Cdotaccent
Encoding: 266 266 18
GlifName: C_dotaccent
Width: 910
GlyphClass: 2
Flags: W
LayerCount: 2
Fore
SplineSet
380 1700 m 1,0,-1
 530 1700 l 1,1,-1
 530 1550 l 1,2,-1
 380 1550 l 1,3,-1
 380 1700 l 1,0,-1
100 145 m 2,4,-1
 100 1255 l 2,5,6
 100 1315 100 1315 142.5 1357.5 c 128,-1,7
 185 1400 185 1400 245 1400 c 2,8,-1
 665 1400 l 2,9,10
 725 1400 725 1400 767.5 1357.5 c 128,-1,11
 810 1315 810 1315 810 1255 c 2,12,-1
 810 955 l 1,13,-1
 560 955 l 1,14,-1
 560 1143 l 1,15,-1
 360 1143 l 1,16,-1
 360 260 l 1,17,-1
 560 260 l 1,18,-1
 560 445 l 1,19,-1
 810 445 l 1,20,-1
 810 145 l 2,21,22
 810 86 810 86 768 43 c 128,-1,23
 726 0 726 0 667 0 c 2,24,-1
 245 0 l 2,25,26
 185 0 185 0 142.5 42.5 c 128,-1,27
 100 85 100 85 100 145 c 2,4,-1
EndSplineSet
EndChar

StartChar: D
Encoding: 68 68 19
GlifName: D_
Width: 890
GlyphClass: 2
Flags: W
LayerCount: 2
Fore
SplineSet
100 0 m 1,0,-1
 100 1400 l 1,1,-1
 630 1400 l 2,2,3
 696 1400 696 1400 743 1353 c 128,-1,4
 790 1306 790 1306 790 1240 c 2,5,-1
 790 160 l 2,6,7
 790 94 790 94 743 47 c 128,-1,8
 696 0 696 0 630 0 c 2,9,-1
 100 0 l 1,0,-1
350 230 m 1,10,-1
 529 230 l 2,11,12
 550 230 550 230 550 251 c 2,13,-1
 550 1149 l 2,14,15
 550 1170 550 1170 529 1170 c 2,16,-1
 350 1170 l 1,17,-1
 350 230 l 1,10,-1
EndSplineSet
EndChar

StartChar: Dcaron
Encoding: 270 270 20
GlifName: D_caron
Width: 890
GlyphClass: 2
Flags: W
LayerCount: 2
Fore
SplineSet
359 1500 m 1,0,-1
 175 1800 l 1,1,-1
 330 1800 l 1,2,-1
 446 1618 l 1,3,-1
 561 1800 l 1,4,-1
 716 1800 l 1,5,-1
 532 1500 l 1,6,-1
 359 1500 l 1,0,-1
100 0 m 1,7,-1
 100 1400 l 1,8,-1
 630 1400 l 2,9,10
 696 1400 696 1400 743 1353 c 128,-1,11
 790 1306 790 1306 790 1240 c 2,12,-1
 790 160 l 2,13,14
 790 94 790 94 743 47 c 128,-1,15
 696 0 696 0 630 0 c 2,16,-1
 100 0 l 1,7,-1
350 230 m 1,17,-1
 529 230 l 2,18,19
 550 230 550 230 550 251 c 2,20,-1
 550 1149 l 2,21,22
 550 1170 550 1170 529 1170 c 2,23,-1
 350 1170 l 1,24,-1
 350 230 l 1,17,-1
EndSplineSet
EndChar

StartChar: Dcroat
Encoding: 272 272 21
GlifName: D_croat
Width: 890
GlyphClass: 2
Flags: W
LayerCount: 2
Fore
SplineSet
100 0 m 1,0,-1
 100 645 l 1,1,-1
 60 645 l 1,2,-1
 60 755 l 1,3,-1
 100 755 l 1,4,-1
 100 1400 l 1,5,-1
 630 1400 l 2,6,7
 696 1400 696 1400 743 1353 c 128,-1,8
 790 1306 790 1306 790 1240 c 2,9,-1
 790 160 l 2,10,11
 790 94 790 94 743 47 c 128,-1,12
 696 0 696 0 630 0 c 2,13,-1
 100 0 l 1,0,-1
350 645 m 1,14,-1
 350 230 l 1,15,-1
 529 230 l 2,16,17
 550 230 550 230 550 251 c 2,18,-1
 550 1149 l 2,19,20
 550 1170 550 1170 529 1170 c 2,21,-1
 350 1170 l 1,22,-1
 350 755 l 1,23,-1
 500 755 l 1,24,-1
 500 645 l 1,25,-1
 350 645 l 1,14,-1
EndSplineSet
EndChar

StartChar: E
Encoding: 69 69 22
GlifName: E_
Width: 912
GlyphClass: 2
Flags: W
LayerCount: 2
Fore
SplineSet
100 0 m 1,0,-1
 100 1400 l 1,1,-1
 810 1400 l 1,2,-1
 810 1170 l 1,3,-1
 350 1170 l 1,4,-1
 350 820 l 1,5,-1
 730 820 l 1,6,-1
 730 580 l 1,7,-1
 350 580 l 1,8,-1
 350 240 l 1,9,-1
 812 240 l 1,10,-1
 812 0 l 1,11,-1
 100 0 l 1,0,-1
EndSplineSet
EndChar

StartChar: Eacute
Encoding: 201 201 23
GlifName: E_acute
Width: 912
GlyphClass: 2
Flags: W
LayerCount: 2
Fore
SplineSet
660 1750 m 1,0,-1
 460 1490 l 1,1,-1
 300 1490 l 1,2,-1
 440 1750 l 1,3,-1
 660 1750 l 1,0,-1
100 0 m 1,4,-1
 100 1400 l 1,5,-1
 810 1400 l 1,6,-1
 810 1170 l 1,7,-1
 350 1170 l 1,8,-1
 350 820 l 1,9,-1
 730 820 l 1,10,-1
 730 580 l 1,11,-1
 350 580 l 1,12,-1
 350 240 l 1,13,-1
 812 240 l 1,14,-1
 812 0 l 1,15,-1
 100 0 l 1,4,-1
EndSplineSet
EndChar

StartChar: Ebreve
Encoding: 276 276 24
GlifName: E_breve
Width: 912
GlyphClass: 2
Flags: W
LayerCount: 2
Fore
SplineSet
456 1504 m 256,0,1
 384 1504 384 1504 327.5 1551 c 128,-1,2
 271 1598 271 1598 260 1667 c 1,3,-1
 371 1700 l 1,4,5
 371 1667 371 1667 397 1643 c 128,-1,6
 423 1619 423 1619 456 1619 c 256,7,8
 489 1619 489 1619 515 1643 c 128,-1,9
 541 1667 541 1667 541 1700 c 1,10,-1
 652 1667 l 1,11,12
 641 1598 641 1598 584.5 1551 c 128,-1,13
 528 1504 528 1504 456 1504 c 256,0,1
100 0 m 1,14,-1
 100 1400 l 1,15,-1
 810 1400 l 1,16,-1
 810 1170 l 1,17,-1
 350 1170 l 1,18,-1
 350 820 l 1,19,-1
 730 820 l 1,20,-1
 730 580 l 1,21,-1
 350 580 l 1,22,-1
 350 240 l 1,23,-1
 812 240 l 1,24,-1
 812 0 l 1,25,-1
 100 0 l 1,14,-1
EndSplineSet
EndChar

StartChar: Ecaron
Encoding: 282 282 25
GlifName: E_caron
Width: 912
GlyphClass: 2
Flags: W
LayerCount: 2
Fore
SplineSet
369 1500 m 1,0,-1
 185 1800 l 1,1,-1
 340 1800 l 1,2,-1
 456 1618 l 1,3,-1
 571 1800 l 1,4,-1
 726 1800 l 1,5,-1
 542 1500 l 1,6,-1
 369 1500 l 1,0,-1
100 0 m 1,7,-1
 100 1400 l 1,8,-1
 810 1400 l 1,9,-1
 810 1170 l 1,10,-1
 350 1170 l 1,11,-1
 350 820 l 1,12,-1
 730 820 l 1,13,-1
 730 580 l 1,14,-1
 350 580 l 1,15,-1
 350 240 l 1,16,-1
 812 240 l 1,17,-1
 812 0 l 1,18,-1
 100 0 l 1,7,-1
EndSplineSet
EndChar

StartChar: Ecircumflex
Encoding: 202 202 26
GlifName: E_circumflex
Width: 912
GlyphClass: 2
Flags: W
LayerCount: 2
Fore
SplineSet
369 1800 m 1,0,-1
 542 1800 l 1,1,-1
 726 1500 l 1,2,-1
 571 1500 l 1,3,-1
 456 1682 l 1,4,-1
 340 1500 l 1,5,-1
 185 1500 l 1,6,-1
 369 1800 l 1,0,-1
100 0 m 1,7,-1
 100 1400 l 1,8,-1
 810 1400 l 1,9,-1
 810 1170 l 1,10,-1
 350 1170 l 1,11,-1
 350 820 l 1,12,-1
 730 820 l 1,13,-1
 730 580 l 1,14,-1
 350 580 l 1,15,-1
 350 240 l 1,16,-1
 812 240 l 1,17,-1
 812 0 l 1,18,-1
 100 0 l 1,7,-1
EndSplineSet
EndChar

StartChar: Edieresis
Encoding: 203 203 27
GlifName: E_dieresis
Width: 912
GlyphClass: 2
Flags: W
LayerCount: 2
Fore
SplineSet
261 1700 m 1,0,-1
 411 1700 l 1,1,-1
 411 1550 l 1,2,-1
 261 1550 l 1,3,-1
 261 1700 l 1,0,-1
501 1700 m 1,4,-1
 651 1700 l 1,5,-1
 651 1550 l 1,6,-1
 501 1550 l 1,7,-1
 501 1700 l 1,4,-1
100 0 m 1,8,-1
 100 1400 l 1,9,-1
 810 1400 l 1,10,-1
 810 1170 l 1,11,-1
 350 1170 l 1,12,-1
 350 820 l 1,13,-1
 730 820 l 1,14,-1
 730 580 l 1,15,-1
 350 580 l 1,16,-1
 350 240 l 1,17,-1
 812 240 l 1,18,-1
 812 0 l 1,19,-1
 100 0 l 1,8,-1
EndSplineSet
EndChar

StartChar: Edotaccent
Encoding: 278 278 28
GlifName: E_dotaccent
Width: 912
GlyphClass: 2
Flags: W
LayerCount: 2
Fore
SplineSet
380 1700 m 1,0,-1
 530 1700 l 1,1,-1
 530 1550 l 1,2,-1
 380 1550 l 1,3,-1
 380 1700 l 1,0,-1
100 0 m 1,4,-1
 100 1400 l 1,5,-1
 810 1400 l 1,6,-1
 810 1170 l 1,7,-1
 350 1170 l 1,8,-1
 350 820 l 1,9,-1
 730 820 l 1,10,-1
 730 580 l 1,11,-1
 350 580 l 1,12,-1
 350 240 l 1,13,-1
 812 240 l 1,14,-1
 812 0 l 1,15,-1
 100 0 l 1,4,-1
EndSplineSet
EndChar

StartChar: Egrave
Encoding: 200 200 29
GlifName: E_grave
Width: 912
GlyphClass: 2
Flags: W
LayerCount: 2
Fore
SplineSet
430 1490 m 1,0,-1
 230 1750 l 1,1,-1
 450 1750 l 1,2,-1
 590 1490 l 1,3,-1
 430 1490 l 1,0,-1
100 0 m 1,4,-1
 100 1400 l 1,5,-1
 810 1400 l 1,6,-1
 810 1170 l 1,7,-1
 350 1170 l 1,8,-1
 350 820 l 1,9,-1
 730 820 l 1,10,-1
 730 580 l 1,11,-1
 350 580 l 1,12,-1
 350 240 l 1,13,-1
 812 240 l 1,14,-1
 812 0 l 1,15,-1
 100 0 l 1,4,-1
EndSplineSet
EndChar

StartChar: Emacron
Encoding: 274 274 30
GlifName: E_macron
Width: 912
GlyphClass: 2
Flags: W
LayerCount: 2
Fore
SplineSet
236 1640 m 1,0,-1
 676 1640 l 1,1,-1
 676 1530 l 1,2,-1
 236 1530 l 1,3,-1
 236 1640 l 1,0,-1
100 0 m 1,4,-1
 100 1400 l 1,5,-1
 810 1400 l 1,6,-1
 810 1170 l 1,7,-1
 350 1170 l 1,8,-1
 350 820 l 1,9,-1
 730 820 l 1,10,-1
 730 580 l 1,11,-1
 350 580 l 1,12,-1
 350 240 l 1,13,-1
 812 240 l 1,14,-1
 812 0 l 1,15,-1
 100 0 l 1,4,-1
EndSplineSet
EndChar

StartChar: Eng
Encoding: 330 330 31
GlifName: E_ng
Width: 980
GlyphClass: 2
Flags: W
LayerCount: 2
Fore
SplineSet
630 1400 m 1,0,-1
 880 1400 l 1,1,-1
 880 -50 l 2,2,3
 880 -119 880 -119 846.5 -175.5 c 128,-1,4
 813 -232 813 -232 756 -266 c 128,-1,5
 699 -300 699 -300 630 -300 c 2,6,-1
 500 -300 l 1,7,-1
 500 -70 l 1,8,-1
 628 -70 l 2,9,10
 649 -70 649 -70 649 -50 c 1,11,-1
 350 733 l 1,12,-1
 350 0 l 1,13,-1
 100 0 l 1,14,-1
 100 1400 l 1,15,-1
 350 1400 l 1,16,-1
 630 630 l 1,17,-1
 630 1400 l 1,0,-1
EndSplineSet
EndChar

StartChar: Eogonek
Encoding: 280 280 32
GlifName: E_ogonek
Width: 912
GlyphClass: 2
Flags: W
LayerCount: 2
Fore
SplineSet
542 0 m 1,0,-1
 392 -153 l 1,1,-1
 392 -167 l 2,2,3
 392 -193 392 -193 410 -211.5 c 128,-1,4
 428 -230 428 -230 454 -230 c 2,5,-1
 589 -230 l 2,6,7
 615 -230 615 -230 633.5 -211.5 c 128,-1,8
 652 -193 652 -193 652 -167 c 2,9,-1
 652 -155 l 1,10,-1
 812 -155 l 1,11,-1
 812 -230 l 2,12,13
 812 -296 812 -296 765 -343 c 128,-1,14
 718 -390 718 -390 652 -390 c 2,15,-1
 392 -390 l 2,16,17
 326 -390 326 -390 279 -343 c 128,-1,18
 232 -296 232 -296 232 -230 c 2,19,-1
 232 -80 l 1,20,-1
 312 0 l 1,21,-1
 100 0 l 1,22,-1
 100 1400 l 1,23,-1
 810 1400 l 1,24,-1
 810 1170 l 1,25,-1
 350 1170 l 1,26,-1
 350 820 l 1,27,-1
 730 820 l 1,28,-1
 730 580 l 1,29,-1
 350 580 l 1,30,-1
 350 240 l 1,31,-1
 812 240 l 1,32,-1
 812 0 l 1,33,-1
 542 0 l 1,0,-1
EndSplineSet
EndChar

StartChar: Eth
Encoding: 208 208 33
GlifName: E_th
Width: 890
GlyphClass: 2
Flags: W
LayerCount: 2
Fore
SplineSet
100 0 m 1,0,-1
 100 450 l 1,1,-1
 40 450 l 1,2,-1
 40 560 l 1,3,-1
 100 560 l 1,4,-1
 100 1400 l 1,5,-1
 630 1400 l 2,6,7
 696 1400 696 1400 743 1353 c 128,-1,8
 790 1306 790 1306 790 1240 c 2,9,-1
 790 160 l 2,10,11
 790 94 790 94 743 47 c 128,-1,12
 696 0 696 0 630 0 c 2,13,-1
 100 0 l 1,0,-1
350 450 m 1,14,-1
 350 230 l 1,15,-1
 529 230 l 2,16,17
 550 230 550 230 550 251 c 2,18,-1
 550 1149 l 2,19,20
 550 1170 550 1170 529 1170 c 2,21,-1
 350 1170 l 1,22,-1
 350 560 l 1,23,-1
 480 560 l 1,24,-1
 480 450 l 1,25,-1
 350 450 l 1,14,-1
EndSplineSet
EndChar

StartChar: Euro
Encoding: 8364 8364 34
GlifName: E_uro
Width: 960
GlyphClass: 2
Flags: W
LayerCount: 2
Fore
SplineSet
150 145 m 2,0,-1
 150 460 l 1,1,-1
 50 460 l 1,2,-1
 50 630 l 1,3,-1
 150 630 l 1,4,-1
 150 760 l 1,5,-1
 50 760 l 1,6,-1
 50 930 l 1,7,-1
 150 930 l 1,8,-1
 150 1255 l 2,9,10
 150 1315 150 1315 192.5 1357.5 c 128,-1,11
 235 1400 235 1400 295 1400 c 2,12,-1
 860 1400 l 1,13,-1
 860 1143 l 1,14,-1
 410 1143 l 1,15,-1
 410 930 l 1,16,-1
 750 930 l 1,17,-1
 750 760 l 1,18,-1
 410 760 l 1,19,-1
 410 630 l 1,20,-1
 750 630 l 1,21,-1
 750 460 l 1,22,-1
 410 460 l 1,23,-1
 410 260 l 1,24,-1
 860 260 l 1,25,-1
 860 0 l 1,26,-1
 295 0 l 2,27,28
 235 0 235 0 192.5 42.5 c 128,-1,29
 150 85 150 85 150 145 c 2,0,-1
EndSplineSet
EndChar

StartChar: F
Encoding: 70 70 35
GlifName: F_
Width: 860
GlyphClass: 2
Flags: W
LayerCount: 2
Fore
SplineSet
350 0 m 1,0,-1
 100 0 l 1,1,-1
 100 1400 l 1,2,-1
 810 1400 l 1,3,-1
 810 1170 l 1,4,-1
 350 1170 l 1,5,-1
 350 820 l 1,6,-1
 730 820 l 1,7,-1
 730 580 l 1,8,-1
 350 580 l 1,9,-1
 350 0 l 1,0,-1
EndSplineSet
EndChar

StartChar: G
Encoding: 71 71 36
GlifName: G_
Width: 932
GlyphClass: 2
Flags: W
LayerCount: 2
Fore
SplineSet
100 145 m 2,0,-1
 100 1255 l 2,1,2
 100 1315 100 1315 142.5 1357.5 c 128,-1,3
 185 1400 185 1400 245 1400 c 2,4,-1
 685 1400 l 2,5,6
 745 1400 745 1400 787.5 1357.5 c 128,-1,7
 830 1315 830 1315 830 1255 c 2,8,-1
 830 955 l 1,9,-1
 600 955 l 1,10,-1
 600 1152 l 1,11,-1
 350 1152 l 1,12,-1
 350 248 l 1,13,-1
 537 248 l 2,14,15
 563 248 563 248 581.5 266.5 c 128,-1,16
 600 285 600 285 600 311 c 2,17,-1
 600 470 l 1,18,-1
 480 470 l 1,19,-1
 480 700 l 1,20,-1
 830 700 l 1,21,-1
 830 144 l 2,22,23
 830 57 830 57 904 18 c 0,24,25
 912 13 912 13 912 8 c 0,26,27
 912 0 912 0 904 0 c 2,28,-1
 826 0 l 2,29,30
 766 0 766 0 723.5 43.5 c 128,-1,31
 681 87 681 87 680 148 c 1,32,-1
 678 148 l 1,33,-1
 678 140 l 2,34,35
 678 82 678 82 636.5 41 c 128,-1,36
 595 0 595 0 536 0 c 2,37,-1
 245 0 l 2,38,39
 185 0 185 0 142.5 42.5 c 128,-1,40
 100 85 100 85 100 145 c 2,0,-1
EndSplineSet
EndChar

StartChar: Gbreve
Encoding: 286 286 37
GlifName: G_breve
Width: 932
GlyphClass: 2
Flags: W
LayerCount: 2
Fore
SplineSet
466 1504 m 256,0,1
 394 1504 394 1504 337.5 1551 c 128,-1,2
 281 1598 281 1598 270 1667 c 1,3,-1
 381 1700 l 1,4,5
 381 1667 381 1667 407 1643 c 128,-1,6
 433 1619 433 1619 466 1619 c 256,7,8
 499 1619 499 1619 525 1643 c 128,-1,9
 551 1667 551 1667 551 1700 c 1,10,-1
 662 1667 l 1,11,12
 651 1598 651 1598 594.5 1551 c 128,-1,13
 538 1504 538 1504 466 1504 c 256,0,1
100 145 m 2,14,-1
 100 1255 l 2,15,16
 100 1315 100 1315 142.5 1357.5 c 128,-1,17
 185 1400 185 1400 245 1400 c 2,18,-1
 685 1400 l 2,19,20
 745 1400 745 1400 787.5 1357.5 c 128,-1,21
 830 1315 830 1315 830 1255 c 2,22,-1
 830 955 l 1,23,-1
 600 955 l 1,24,-1
 600 1152 l 1,25,-1
 350 1152 l 1,26,-1
 350 248 l 1,27,-1
 537 248 l 2,28,29
 563 248 563 248 581.5 266.5 c 128,-1,30
 600 285 600 285 600 311 c 2,31,-1
 600 470 l 1,32,-1
 480 470 l 1,33,-1
 480 700 l 1,34,-1
 830 700 l 1,35,-1
 830 144 l 2,36,37
 830 57 830 57 904 18 c 0,38,39
 912 13 912 13 912 8 c 0,40,41
 912 0 912 0 904 0 c 2,42,-1
 826 0 l 2,43,44
 766 0 766 0 723.5 43.5 c 128,-1,45
 681 87 681 87 680 148 c 1,46,-1
 678 148 l 1,47,-1
 678 140 l 2,48,49
 678 82 678 82 636.5 41 c 128,-1,50
 595 0 595 0 536 0 c 2,51,-1
 245 0 l 2,52,53
 185 0 185 0 142.5 42.5 c 128,-1,54
 100 85 100 85 100 145 c 2,14,-1
EndSplineSet
EndChar

StartChar: Gcircumflex
Encoding: 284 284 38
GlifName: G_circumflex
Width: 932
GlyphClass: 2
Flags: W
LayerCount: 2
Fore
SplineSet
374 1800 m 1,0,-1
 547 1800 l 1,1,-1
 731 1500 l 1,2,-1
 576 1500 l 1,3,-1
 461 1682 l 1,4,-1
 345 1500 l 1,5,-1
 190 1500 l 1,6,-1
 374 1800 l 1,0,-1
100 145 m 2,7,-1
 100 1255 l 2,8,9
 100 1315 100 1315 142.5 1357.5 c 128,-1,10
 185 1400 185 1400 245 1400 c 2,11,-1
 685 1400 l 2,12,13
 745 1400 745 1400 787.5 1357.5 c 128,-1,14
 830 1315 830 1315 830 1255 c 2,15,-1
 830 955 l 1,16,-1
 600 955 l 1,17,-1
 600 1152 l 1,18,-1
 350 1152 l 1,19,-1
 350 248 l 1,20,-1
 537 248 l 2,21,22
 563 248 563 248 581.5 266.5 c 128,-1,23
 600 285 600 285 600 311 c 2,24,-1
 600 470 l 1,25,-1
 480 470 l 1,26,-1
 480 700 l 1,27,-1
 830 700 l 1,28,-1
 830 144 l 2,29,30
 830 57 830 57 904 18 c 0,31,32
 912 13 912 13 912 8 c 0,33,34
 912 0 912 0 904 0 c 2,35,-1
 826 0 l 2,36,37
 766 0 766 0 723.5 43.5 c 128,-1,38
 681 87 681 87 680 148 c 1,39,-1
 678 148 l 1,40,-1
 678 140 l 2,41,42
 678 82 678 82 636.5 41 c 128,-1,43
 595 0 595 0 536 0 c 2,44,-1
 245 0 l 2,45,46
 185 0 185 0 142.5 42.5 c 128,-1,47
 100 85 100 85 100 145 c 2,7,-1
EndSplineSet
EndChar

StartChar: Gdotaccent
Encoding: 288 288 39
GlifName: G_dotaccent
Width: 932
GlyphClass: 2
Flags: W
LayerCount: 2
Fore
SplineSet
380 1700 m 1,0,-1
 530 1700 l 1,1,-1
 530 1550 l 1,2,-1
 380 1550 l 1,3,-1
 380 1700 l 1,0,-1
100 145 m 2,4,-1
 100 1255 l 2,5,6
 100 1315 100 1315 142.5 1357.5 c 128,-1,7
 185 1400 185 1400 245 1400 c 2,8,-1
 685 1400 l 2,9,10
 745 1400 745 1400 787.5 1357.5 c 128,-1,11
 830 1315 830 1315 830 1255 c 2,12,-1
 830 955 l 1,13,-1
 600 955 l 1,14,-1
 600 1152 l 1,15,-1
 350 1152 l 1,16,-1
 350 248 l 1,17,-1
 537 248 l 2,18,19
 563 248 563 248 581.5 266.5 c 128,-1,20
 600 285 600 285 600 311 c 2,21,-1
 600 470 l 1,22,-1
 480 470 l 1,23,-1
 480 700 l 1,24,-1
 830 700 l 1,25,-1
 830 144 l 2,26,27
 830 57 830 57 904 18 c 0,28,29
 912 13 912 13 912 8 c 0,30,31
 912 0 912 0 904 0 c 2,32,-1
 826 0 l 2,33,34
 766 0 766 0 723.5 43.5 c 128,-1,35
 681 87 681 87 680 148 c 1,36,-1
 678 148 l 1,37,-1
 678 140 l 2,38,39
 678 82 678 82 636.5 41 c 128,-1,40
 595 0 595 0 536 0 c 2,41,-1
 245 0 l 2,42,43
 185 0 185 0 142.5 42.5 c 128,-1,44
 100 85 100 85 100 145 c 2,4,-1
EndSplineSet
EndChar

StartChar: H
Encoding: 72 72 40
GlifName: H_
Width: 970
GlyphClass: 2
Flags: W
LayerCount: 2
Fore
SplineSet
350 0 m 1,0,-1
 100 0 l 1,1,-1
 100 1400 l 1,2,-1
 350 1400 l 1,3,-1
 350 810 l 1,4,-1
 620 810 l 1,5,-1
 620 1400 l 1,6,-1
 870 1400 l 1,7,-1
 870 0 l 1,8,-1
 620 0 l 1,9,-1
 620 570 l 1,10,-1
 350 570 l 1,11,-1
 350 0 l 1,0,-1
EndSplineSet
EndChar

StartChar: Hbar
Encoding: 294 294 41
GlifName: H_bar
Width: 990
GlyphClass: 2
Flags: W
LayerCount: 2
Fore
SplineSet
350 0 m 1,0,-1
 100 0 l 1,1,-1
 100 940 l 1,2,-1
 20 940 l 1,3,-1
 20 1050 l 1,4,-1
 100 1050 l 1,5,-1
 100 1400 l 1,6,-1
 350 1400 l 1,7,-1
 350 1050 l 1,8,-1
 620 1050 l 1,9,-1
 620 1400 l 1,10,-1
 870 1400 l 1,11,-1
 870 1050 l 1,12,-1
 970 1050 l 1,13,-1
 970 940 l 1,14,-1
 870 940 l 1,15,-1
 870 0 l 1,16,-1
 620 0 l 1,17,-1
 620 570 l 1,18,-1
 350 570 l 1,19,-1
 350 0 l 1,0,-1
620 940 m 1,20,-1
 350 940 l 1,21,-1
 350 810 l 1,22,-1
 620 810 l 1,23,-1
 620 940 l 1,20,-1
EndSplineSet
EndChar

StartChar: Hcircumflex
Encoding: 292 292 42
GlifName: H_circumflex
Width: 970
GlyphClass: 2
Flags: W
LayerCount: 2
Fore
SplineSet
399 1800 m 1,0,-1
 572 1800 l 1,1,-1
 756 1500 l 1,2,-1
 601 1500 l 1,3,-1
 486 1682 l 1,4,-1
 370 1500 l 1,5,-1
 215 1500 l 1,6,-1
 399 1800 l 1,0,-1
350 0 m 1,7,-1
 100 0 l 1,8,-1
 100 1400 l 1,9,-1
 350 1400 l 1,10,-1
 350 810 l 1,11,-1
 620 810 l 1,12,-1
 620 1400 l 1,13,-1
 870 1400 l 1,14,-1
 870 0 l 1,15,-1
 620 0 l 1,16,-1
 620 570 l 1,17,-1
 350 570 l 1,18,-1
 350 0 l 1,7,-1
EndSplineSet
EndChar

StartChar: I
Encoding: 73 73 43
GlifName: I_
Width: 450
GlyphClass: 2
Flags: W
LayerCount: 2
Fore
SplineSet
100 1400 m 1,0,-1
 350 1400 l 1,1,-1
 350 0 l 1,2,-1
 100 0 l 1,3,-1
 100 1400 l 1,0,-1
EndSplineSet
EndChar

StartChar: IJ
Encoding: 306 306 44
GlifName: I_J_
Width: 910
GlyphClass: 2
Flags: W
LayerCount: 2
Fore
SplineSet
100 1400 m 1,0,-1
 350 1400 l 1,1,-1
 350 0 l 1,2,-1
 100 0 l 1,3,-1
 100 1400 l 1,0,-1
100 -255 m 2,4,-1
 100 -80 l 1,5,-1
 350 -80 l 1,6,-1
 350 -140 l 1,7,-1
 560 -140 l 1,8,-1
 560 1400 l 1,9,-1
 810 1400 l 1,10,-1
 810 -255 l 2,11,12
 810 -315 810 -315 767.5 -357.5 c 128,-1,13
 725 -400 725 -400 665 -400 c 2,14,-1
 245 -400 l 2,15,16
 185 -400 185 -400 142.5 -357.5 c 128,-1,17
 100 -315 100 -315 100 -255 c 2,4,-1
EndSplineSet
EndChar

StartChar: Iacute
Encoding: 205 205 45
GlifName: I_acute
Width: 560
GlyphClass: 2
Flags: W
LayerCount: 2
Fore
SplineSet
460 1750 m 1,0,-1
 260 1490 l 1,1,-1
 100 1490 l 1,2,-1
 240 1750 l 1,3,-1
 460 1750 l 1,0,-1
100 1400 m 1,4,-1
 350 1400 l 1,5,-1
 350 0 l 1,6,-1
 100 0 l 1,7,-1
 100 1400 l 1,4,-1
EndSplineSet
EndChar

StartChar: Ibreve
Encoding: 300 300 46
GlifName: I_breve
Width: 592
GlyphClass: 2
Flags: W
LayerCount: 2
Fore
SplineSet
226 1504 m 256,0,1
 154 1504 154 1504 97.5 1551 c 128,-1,2
 41 1598 41 1598 30 1667 c 1,3,-1
 141 1700 l 1,4,5
 141 1667 141 1667 167 1643 c 128,-1,6
 193 1619 193 1619 226 1619 c 256,7,8
 259 1619 259 1619 285 1643 c 128,-1,9
 311 1667 311 1667 311 1700 c 1,10,-1
 422 1667 l 1,11,12
 411 1598 411 1598 354.5 1551 c 128,-1,13
 298 1504 298 1504 226 1504 c 256,0,1
100 1400 m 1,14,-1
 350 1400 l 1,15,-1
 350 0 l 1,16,-1
 100 0 l 1,17,-1
 100 1400 l 1,14,-1
EndSplineSet
EndChar

StartChar: Icircumflex
Encoding: 206 206 47
GlifName: I_circumflex
Width: 596
GlyphClass: 2
Flags: W
LayerCount: 2
Fore
SplineSet
139 1800 m 1,0,-1
 312 1800 l 1,1,-1
 496 1500 l 1,2,-1
 341 1500 l 1,3,-1
 226 1682 l 1,4,-1
 110 1500 l 1,5,-1
 -45 1500 l 1,6,-1
 139 1800 l 1,0,-1
100 1400 m 1,7,-1
 350 1400 l 1,8,-1
 350 0 l 1,9,-1
 100 0 l 1,10,-1
 100 1400 l 1,7,-1
EndSplineSet
EndChar

StartChar: Idieresis
Encoding: 207 207 48
GlifName: I_dieresis
Width: 590
GlyphClass: 2
Flags: W
LayerCount: 2
Fore
SplineSet
30 1700 m 1,0,-1
 180 1700 l 1,1,-1
 180 1550 l 1,2,-1
 30 1550 l 1,3,-1
 30 1700 l 1,0,-1
270 1700 m 1,4,-1
 420 1700 l 1,5,-1
 420 1550 l 1,6,-1
 270 1550 l 1,7,-1
 270 1700 l 1,4,-1
100 1400 m 1,8,-1
 350 1400 l 1,9,-1
 350 0 l 1,10,-1
 100 0 l 1,11,-1
 100 1400 l 1,8,-1
EndSplineSet
EndChar

StartChar: Idotaccent
Encoding: 304 304 49
GlifName: I_dotaccent
Width: 450
GlyphClass: 2
Flags: W
LayerCount: 2
Fore
SplineSet
150 1700 m 1,0,-1
 300 1700 l 1,1,-1
 300 1550 l 1,2,-1
 150 1550 l 1,3,-1
 150 1700 l 1,0,-1
100 1400 m 1,4,-1
 350 1400 l 1,5,-1
 350 0 l 1,6,-1
 100 0 l 1,7,-1
 100 1400 l 1,4,-1
EndSplineSet
EndChar

StartChar: Igrave
Encoding: 204 204 50
GlifName: I_grave
Width: 450
GlyphClass: 2
Flags: W
LayerCount: 2
Fore
SplineSet
190 1490 m 1,0,-1
 -10 1750 l 1,1,-1
 210 1750 l 1,2,-1
 350 1490 l 1,3,-1
 190 1490 l 1,0,-1
100 1400 m 1,4,-1
 350 1400 l 1,5,-1
 350 0 l 1,6,-1
 100 0 l 1,7,-1
 100 1400 l 1,4,-1
EndSplineSet
EndChar

StartChar: Imacron
Encoding: 298 298 51
GlifName: I_macron
Width: 645
GlyphClass: 2
Flags: W
LayerCount: 2
Fore
SplineSet
5 1640 m 1,0,-1
 445 1640 l 1,1,-1
 445 1530 l 1,2,-1
 5 1530 l 1,3,-1
 5 1640 l 1,0,-1
100 1400 m 1,4,-1
 350 1400 l 1,5,-1
 350 0 l 1,6,-1
 100 0 l 1,7,-1
 100 1400 l 1,4,-1
EndSplineSet
EndChar

StartChar: Iogonek
Encoding: 302 302 52
GlifName: I_ogonek
Width: 720
GlyphClass: 2
Flags: W
LayerCount: 2
Fore
SplineSet
100 -20 m 1,0,-1
 100 1400 l 1,1,-1
 350 1400 l 1,2,-1
 350 0 l 1,3,-1
 200 -153 l 1,4,-1
 200 -167 l 2,5,6
 200 -193 200 -193 218 -211.5 c 128,-1,7
 236 -230 236 -230 262 -230 c 2,8,-1
 397 -230 l 2,9,10
 423 -230 423 -230 441.5 -211.5 c 128,-1,11
 460 -193 460 -193 460 -167 c 2,12,-1
 460 -155 l 1,13,-1
 620 -155 l 1,14,-1
 620 -230 l 2,15,16
 620 -296 620 -296 573 -343 c 128,-1,17
 526 -390 526 -390 460 -390 c 2,18,-1
 200 -390 l 2,19,20
 134 -390 134 -390 87 -343 c 128,-1,21
 40 -296 40 -296 40 -230 c 2,22,-1
 40 -80 l 1,23,-1
 100 -20 l 1,0,-1
EndSplineSet
EndChar

StartChar: Itilde
Encoding: 296 296 53
GlifName: I_tilde
Width: 702
GlyphClass: 2
Flags: W
LayerCount: 2
Fore
SplineSet
388 1653 m 1,0,-1
 477 1626 l 1,1,2
 467 1571 467 1571 422 1533.5 c 128,-1,3
 377 1496 377 1496 320 1496 c 0,4,5
 271 1496 271 1496 233 1523 c 128,-1,6
 195 1550 195 1550 178 1593 c 1,7,8
 159 1619 159 1619 132 1619 c 0,9,10
 106 1619 106 1619 85 1599.5 c 128,-1,11
 64 1580 64 1580 64 1553 c 1,12,-1
 -25 1580 l 1,13,14
 -16 1635 -16 1635 29 1672.5 c 128,-1,15
 74 1710 74 1710 132 1710 c 0,16,17
 181 1710 181 1710 219 1683.5 c 128,-1,18
 257 1657 257 1657 273 1613 c 1,19,20
 282 1602 282 1602 293 1594.5 c 128,-1,21
 304 1587 304 1587 320 1587 c 0,22,23
 346 1587 346 1587 367 1606.5 c 128,-1,24
 388 1626 388 1626 388 1653 c 1,0,-1
100 1400 m 1,25,-1
 350 1400 l 1,26,-1
 350 0 l 1,27,-1
 100 0 l 1,28,-1
 100 1400 l 1,25,-1
EndSplineSet
EndChar

StartChar: J
Encoding: 74 74 54
GlifName: J_
Width: 910
GlyphClass: 2
Flags: W
LayerCount: 2
Fore
SplineSet
100 145 m 2,0,-1
 100 430 l 1,1,-1
 350 430 l 1,2,-1
 350 260 l 1,3,-1
 560 260 l 1,4,-1
 560 1400 l 1,5,-1
 810 1400 l 1,6,-1
 810 145 l 2,7,8
 810 85 810 85 767.5 42.5 c 128,-1,9
 725 0 725 0 665 0 c 2,10,-1
 245 0 l 2,11,12
 185 0 185 0 142.5 42.5 c 128,-1,13
 100 85 100 85 100 145 c 2,0,-1
EndSplineSet
EndChar

StartChar: Jcircumflex
Encoding: 308 308 55
GlifName: J_circumflex
Width: 941
GlyphClass: 2
Flags: W
LayerCount: 2
Fore
SplineSet
584 1800 m 1,0,-1
 757 1800 l 1,1,-1
 941 1500 l 1,2,-1
 786 1500 l 1,3,-1
 671 1682 l 1,4,-1
 555 1500 l 1,5,-1
 400 1500 l 1,6,-1
 584 1800 l 1,0,-1
100 145 m 2,7,-1
 100 430 l 1,8,-1
 350 430 l 1,9,-1
 350 260 l 1,10,-1
 560 260 l 1,11,-1
 560 1400 l 1,12,-1
 810 1400 l 1,13,-1
 810 145 l 2,14,15
 810 85 810 85 767.5 42.5 c 128,-1,16
 725 0 725 0 665 0 c 2,17,-1
 245 0 l 2,18,19
 185 0 185 0 142.5 42.5 c 128,-1,20
 100 85 100 85 100 145 c 2,7,-1
EndSplineSet
EndChar

StartChar: K
Encoding: 75 75 56
GlifName: K_
Width: 950
GlyphClass: 2
Flags: W
LayerCount: 2
Fore
SplineSet
579 714 m 1,0,-1
 900 0 l 1,1,-1
 640 0 l 1,2,-1
 368 603 l 1,3,-1
 350 603 l 1,4,-1
 350 0 l 1,5,-1
 100 0 l 1,6,-1
 100 1400 l 1,7,-1
 350 1400 l 1,8,-1
 350 813 l 1,9,-1
 367 813 l 1,10,-1
 620 1400 l 1,11,-1
 880 1400 l 1,12,-1
 579 714 l 1,0,-1
EndSplineSet
EndChar

StartChar: L
Encoding: 76 76 57
GlifName: L_
Width: 880
GlyphClass: 2
Flags: W
LayerCount: 2
Fore
SplineSet
350 255 m 1,0,-1
 800 255 l 1,1,-1
 800 0 l 1,2,-1
 100 0 l 1,3,-1
 100 1400 l 1,4,-1
 350 1400 l 1,5,-1
 350 255 l 1,0,-1
EndSplineSet
EndChar

StartChar: Lacute
Encoding: 313 313 58
GlifName: L_acute
Width: 880
GlyphClass: 2
Flags: W
LayerCount: 2
Fore
SplineSet
460 1750 m 1,0,-1
 260 1490 l 1,1,-1
 100 1490 l 1,2,-1
 240 1750 l 1,3,-1
 460 1750 l 1,0,-1
350 255 m 1,4,-1
 800 255 l 1,5,-1
 800 0 l 1,6,-1
 100 0 l 1,7,-1
 100 1400 l 1,8,-1
 350 1400 l 1,9,-1
 350 255 l 1,4,-1
EndSplineSet
EndChar

StartChar: Lcaron
Encoding: 317 317 59
GlifName: L_caron
Width: 880
GlyphClass: 2
Flags: W
LayerCount: 2
Fore
SplineSet
139 1500 m 1,0,-1
 -45 1800 l 1,1,-1
 110 1800 l 1,2,-1
 226 1618 l 1,3,-1
 341 1800 l 1,4,-1
 496 1800 l 1,5,-1
 312 1500 l 1,6,-1
 139 1500 l 1,0,-1
350 255 m 1,7,-1
 800 255 l 1,8,-1
 800 0 l 1,9,-1
 100 0 l 1,10,-1
 100 1400 l 1,11,-1
 350 1400 l 1,12,-1
 350 255 l 1,7,-1
EndSplineSet
EndChar

StartChar: Ldot
Encoding: 319 319 60
GlifName: L_dot
Width: 880
GlyphClass: 2
Flags: W
LayerCount: 2
Fore
SplineSet
350 255 m 1,0,-1
 800 255 l 1,1,-1
 800 0 l 1,2,-1
 100 0 l 1,3,-1
 100 1400 l 1,4,-1
 350 1400 l 1,5,-1
 350 255 l 1,0,-1
450 815 m 1,6,-1
 680 815 l 1,7,-1
 680 585 l 1,8,-1
 450 585 l 1,9,-1
 450 815 l 1,6,-1
EndSplineSet
EndChar

StartChar: Lslash
Encoding: 321 321 61
GlifName: L_slash
Width: 880
GlyphClass: 2
Flags: W
LayerCount: 2
Fore
SplineSet
350 255 m 1,0,-1
 800 255 l 1,1,-1
 800 0 l 1,2,-1
 100 0 l 1,3,-1
 100 645 l 1,4,-1
 50 645 l 1,5,-1
 50 755 l 1,6,-1
 100 755 l 1,7,-1
 100 1400 l 1,8,-1
 350 1400 l 1,9,-1
 350 755 l 1,10,-1
 590 755 l 1,11,-1
 590 645 l 1,12,-1
 350 645 l 1,13,-1
 350 255 l 1,0,-1
EndSplineSet
EndChar

StartChar: M
Encoding: 77 77 62
GlifName: M_
Width: 1320
GlyphClass: 2
Flags: W
LayerCount: 2
Fore
SplineSet
860 1400 m 1,0,-1
 1220 1400 l 1,1,-1
 1220 0 l 1,2,-1
 1000 0 l 1,3,-1
 1000 1050 l 1,4,-1
 750 0 l 1,5,-1
 570 0 l 1,6,-1
 320 1050 l 1,7,-1
 320 0 l 1,8,-1
 100 0 l 1,9,-1
 100 1400 l 1,10,-1
 460 1400 l 1,11,-1
 660 482 l 1,12,-1
 860 1400 l 1,0,-1
EndSplineSet
EndChar

StartChar: N
Encoding: 78 78 63
GlifName: N_
Width: 980
GlyphClass: 2
Flags: W
LayerCount: 2
Fore
SplineSet
640 610 m 1,0,-1
 640 1400 l 1,1,-1
 880 1400 l 1,2,-1
 880 0 l 1,3,-1
 670 0 l 1,4,-1
 330 754 l 1,5,-1
 330 0 l 1,6,-1
 100 0 l 1,7,-1
 100 1400 l 1,8,-1
 310 1400 l 1,9,-1
 640 610 l 1,0,-1
EndSplineSet
EndChar

StartChar: Nacute
Encoding: 323 323 64
GlifName: N_acute
Width: 980
GlyphClass: 2
Flags: W
LayerCount: 2
Fore
SplineSet
680 1750 m 1,0,-1
 480 1490 l 1,1,-1
 320 1490 l 1,2,-1
 460 1750 l 1,3,-1
 680 1750 l 1,0,-1
640 610 m 1,4,-1
 640 1400 l 1,5,-1
 880 1400 l 1,6,-1
 880 0 l 1,7,-1
 670 0 l 1,8,-1
 330 754 l 1,9,-1
 330 0 l 1,10,-1
 100 0 l 1,11,-1
 100 1400 l 1,12,-1
 310 1400 l 1,13,-1
 640 610 l 1,4,-1
EndSplineSet
EndChar

StartChar: Ncaron
Encoding: 327 327 65
GlifName: N_caron
Width: 980
GlyphClass: 2
Flags: W
LayerCount: 2
Fore
SplineSet
404 1500 m 1,0,-1
 220 1800 l 1,1,-1
 375 1800 l 1,2,-1
 491 1618 l 1,3,-1
 606 1800 l 1,4,-1
 761 1800 l 1,5,-1
 577 1500 l 1,6,-1
 404 1500 l 1,0,-1
640 610 m 1,7,-1
 640 1400 l 1,8,-1
 880 1400 l 1,9,-1
 880 0 l 1,10,-1
 670 0 l 1,11,-1
 330 754 l 1,12,-1
 330 0 l 1,13,-1
 100 0 l 1,14,-1
 100 1400 l 1,15,-1
 310 1400 l 1,16,-1
 640 610 l 1,7,-1
EndSplineSet
EndChar

StartChar: Ntilde
Encoding: 209 209 66
GlifName: N_tilde
Width: 975
GlyphClass: 2
Flags: W
LayerCount: 2
Fore
SplineSet
920 1696 m 1,0,1
 890 1606 890 1606 812.5 1548.5 c 128,-1,2
 735 1491 735 1491 635 1491 c 0,3,4
 633 1491 633 1491 632 1491 c 0,5,6
 573 1491 573 1491 518.5 1515 c 128,-1,7
 464 1539 464 1539 423 1578 c 0,8,9
 384 1614 384 1614 333 1614 c 0,10,11
 295 1614 295 1614 262 1592.5 c 128,-1,12
 229 1571 229 1571 216 1530 c 1,13,-1
 50 1585 l 1,14,15
 80 1674 80 1674 157.5 1732 c 128,-1,16
 235 1790 235 1790 335 1790 c 0,17,18
 459 1790 459 1790 547 1702 c 0,19,20
 583 1666 583 1666 635 1666 c 0,21,22
 676 1666 676 1666 708.5 1689.5 c 128,-1,23
 741 1713 741 1713 754 1751 c 1,24,-1
 920 1696 l 1,0,1
640 610 m 1,25,-1
 640 1400 l 1,26,-1
 880 1400 l 1,27,-1
 880 0 l 1,28,-1
 670 0 l 1,29,-1
 330 754 l 1,30,-1
 330 0 l 1,31,-1
 100 0 l 1,32,-1
 100 1400 l 1,33,-1
 310 1400 l 1,34,-1
 640 610 l 1,25,-1
EndSplineSet
EndChar

StartChar: O
Encoding: 79 79 67
GlifName: O_
Width: 940
GlyphClass: 2
Flags: W
LayerCount: 2
Fore
SplineSet
840 1255 m 2,0,-1
 840 145 l 2,1,2
 840 85 840 85 797.5 42.5 c 128,-1,3
 755 0 755 0 695 0 c 2,4,-1
 245 0 l 2,5,6
 185 0 185 0 142.5 42.5 c 128,-1,7
 100 85 100 85 100 145 c 2,8,-1
 100 1255 l 2,9,10
 100 1315 100 1315 142.5 1357.5 c 128,-1,11
 185 1400 185 1400 245 1400 c 2,12,-1
 695 1400 l 2,13,14
 755 1400 755 1400 797.5 1357.5 c 128,-1,15
 840 1315 840 1315 840 1255 c 2,0,-1
350 250 m 1,16,-1
 590 250 l 1,17,-1
 590 1150 l 1,18,-1
 350 1150 l 1,19,-1
 350 250 l 1,16,-1
EndSplineSet
EndChar

StartChar: OE
Encoding: 338 338 68
GlifName: O_E_
Width: 1529
GlyphClass: 2
Flags: W
LayerCount: 2
Fore
SplineSet
967 240 m 1,0,-1
 1429 240 l 1,1,-1
 1429 0 l 1,2,-1
 717 0 l 1,3,-1
 717 42 l 1,4,5
 675 0 675 0 615 0 c 2,6,-1
 245 0 l 2,7,8
 185 0 185 0 142.5 42.5 c 128,-1,9
 100 85 100 85 100 145 c 2,10,-1
 100 1255 l 2,11,12
 100 1315 100 1315 142.5 1357.5 c 128,-1,13
 185 1400 185 1400 245 1400 c 2,14,-1
 615 1400 l 2,15,16
 675 1400 675 1400 717 1358 c 1,17,-1
 717 1400 l 1,18,-1
 1428 1400 l 1,19,-1
 1428 1170 l 1,20,-1
 967 1170 l 1,21,-1
 967 820 l 1,22,-1
 1347 820 l 1,23,-1
 1347 580 l 1,24,-1
 967 580 l 1,25,-1
 967 240 l 1,0,-1
717 1087 m 2,26,27
 717 1113 717 1113 699 1131.5 c 128,-1,28
 681 1150 681 1150 655 1150 c 2,29,-1
 412 1150 l 2,30,31
 386 1150 386 1150 368 1131.5 c 128,-1,32
 350 1113 350 1113 350 1087 c 2,33,-1
 350 313 l 2,34,35
 350 287 350 287 368 268.5 c 128,-1,36
 386 250 386 250 412 250 c 2,37,-1
 655 250 l 2,38,39
 681 250 681 250 699 268.5 c 128,-1,40
 717 287 717 287 717 313 c 2,41,-1
 717 1087 l 2,26,27
EndSplineSet
EndChar

StartChar: Oacute
Encoding: 211 211 69
GlifName: O_acute
Width: 940
GlyphClass: 2
Flags: W
LayerCount: 2
Fore
SplineSet
680 1750 m 1,0,-1
 480 1490 l 1,1,-1
 320 1490 l 1,2,-1
 460 1750 l 1,3,-1
 680 1750 l 1,0,-1
840 1255 m 2,4,-1
 840 145 l 2,5,6
 840 85 840 85 797.5 42.5 c 128,-1,7
 755 0 755 0 695 0 c 2,8,-1
 245 0 l 2,9,10
 185 0 185 0 142.5 42.5 c 128,-1,11
 100 85 100 85 100 145 c 2,12,-1
 100 1255 l 2,13,14
 100 1315 100 1315 142.5 1357.5 c 128,-1,15
 185 1400 185 1400 245 1400 c 2,16,-1
 695 1400 l 2,17,18
 755 1400 755 1400 797.5 1357.5 c 128,-1,19
 840 1315 840 1315 840 1255 c 2,4,-1
350 250 m 1,20,-1
 590 250 l 1,21,-1
 590 1150 l 1,22,-1
 350 1150 l 1,23,-1
 350 250 l 1,20,-1
EndSplineSet
EndChar

StartChar: Obreve
Encoding: 334 334 70
GlifName: O_breve
Width: 940
GlyphClass: 2
Flags: W
LayerCount: 2
Fore
SplineSet
470 1504 m 256,0,1
 398 1504 398 1504 341.5 1551 c 128,-1,2
 285 1598 285 1598 274 1667 c 1,3,-1
 385 1700 l 1,4,5
 385 1667 385 1667 411 1643 c 128,-1,6
 437 1619 437 1619 470 1619 c 256,7,8
 503 1619 503 1619 529 1643 c 128,-1,9
 555 1667 555 1667 555 1700 c 1,10,-1
 666 1667 l 1,11,12
 655 1598 655 1598 598.5 1551 c 128,-1,13
 542 1504 542 1504 470 1504 c 256,0,1
840 1255 m 2,14,-1
 840 145 l 2,15,16
 840 85 840 85 797.5 42.5 c 128,-1,17
 755 0 755 0 695 0 c 2,18,-1
 245 0 l 2,19,20
 185 0 185 0 142.5 42.5 c 128,-1,21
 100 85 100 85 100 145 c 2,22,-1
 100 1255 l 2,23,24
 100 1315 100 1315 142.5 1357.5 c 128,-1,25
 185 1400 185 1400 245 1400 c 2,26,-1
 695 1400 l 2,27,28
 755 1400 755 1400 797.5 1357.5 c 128,-1,29
 840 1315 840 1315 840 1255 c 2,14,-1
350 250 m 1,30,-1
 590 250 l 1,31,-1
 590 1150 l 1,32,-1
 350 1150 l 1,33,-1
 350 250 l 1,30,-1
EndSplineSet
EndChar

StartChar: Ocircumflex
Encoding: 212 212 71
GlifName: O_circumflex
Width: 940
GlyphClass: 2
Flags: W
LayerCount: 2
Fore
SplineSet
384 1800 m 1,0,-1
 557 1800 l 1,1,-1
 741 1500 l 1,2,-1
 586 1500 l 1,3,-1
 471 1682 l 1,4,-1
 355 1500 l 1,5,-1
 200 1500 l 1,6,-1
 384 1800 l 1,0,-1
840 1255 m 2,7,-1
 840 145 l 2,8,9
 840 85 840 85 797.5 42.5 c 128,-1,10
 755 0 755 0 695 0 c 2,11,-1
 245 0 l 2,12,13
 185 0 185 0 142.5 42.5 c 128,-1,14
 100 85 100 85 100 145 c 2,15,-1
 100 1255 l 2,16,17
 100 1315 100 1315 142.5 1357.5 c 128,-1,18
 185 1400 185 1400 245 1400 c 2,19,-1
 695 1400 l 2,20,21
 755 1400 755 1400 797.5 1357.5 c 128,-1,22
 840 1315 840 1315 840 1255 c 2,7,-1
350 250 m 1,23,-1
 590 250 l 1,24,-1
 590 1150 l 1,25,-1
 350 1150 l 1,26,-1
 350 250 l 1,23,-1
EndSplineSet
EndChar

StartChar: Odieresis
Encoding: 214 214 72
GlifName: O_dieresis
Width: 940
GlyphClass: 2
Flags: W
LayerCount: 2
Fore
SplineSet
275 1700 m 1,0,-1
 425 1700 l 1,1,-1
 425 1550 l 1,2,-1
 275 1550 l 1,3,-1
 275 1700 l 1,0,-1
515 1700 m 1,4,-1
 665 1700 l 1,5,-1
 665 1550 l 1,6,-1
 515 1550 l 1,7,-1
 515 1700 l 1,4,-1
840 1255 m 2,8,-1
 840 145 l 2,9,10
 840 85 840 85 797.5 42.5 c 128,-1,11
 755 0 755 0 695 0 c 2,12,-1
 245 0 l 2,13,14
 185 0 185 0 142.5 42.5 c 128,-1,15
 100 85 100 85 100 145 c 2,16,-1
 100 1255 l 2,17,18
 100 1315 100 1315 142.5 1357.5 c 128,-1,19
 185 1400 185 1400 245 1400 c 2,20,-1
 695 1400 l 2,21,22
 755 1400 755 1400 797.5 1357.5 c 128,-1,23
 840 1315 840 1315 840 1255 c 2,8,-1
350 250 m 1,24,-1
 590 250 l 1,25,-1
 590 1150 l 1,26,-1
 350 1150 l 1,27,-1
 350 250 l 1,24,-1
EndSplineSet
EndChar

StartChar: Ograve
Encoding: 210 210 73
GlifName: O_grave
Width: 940
GlyphClass: 2
Flags: W
LayerCount: 2
Fore
SplineSet
440 1490 m 1,0,-1
 240 1750 l 1,1,-1
 460 1750 l 1,2,-1
 600 1490 l 1,3,-1
 440 1490 l 1,0,-1
840 1255 m 2,4,-1
 840 145 l 2,5,6
 840 85 840 85 797.5 42.5 c 128,-1,7
 755 0 755 0 695 0 c 2,8,-1
 245 0 l 2,9,10
 185 0 185 0 142.5 42.5 c 128,-1,11
 100 85 100 85 100 145 c 2,12,-1
 100 1255 l 2,13,14
 100 1315 100 1315 142.5 1357.5 c 128,-1,15
 185 1400 185 1400 245 1400 c 2,16,-1
 695 1400 l 2,17,18
 755 1400 755 1400 797.5 1357.5 c 128,-1,19
 840 1315 840 1315 840 1255 c 2,4,-1
350 250 m 1,20,-1
 590 250 l 1,21,-1
 590 1150 l 1,22,-1
 350 1150 l 1,23,-1
 350 250 l 1,20,-1
EndSplineSet
EndChar

StartChar: Ohungarumlaut
Encoding: 336 336 74
GlifName: O_hungarumlaut
Width: 940
GlyphClass: 2
Flags: W
LayerCount: 2
Fore
SplineSet
540 1750 m 1,0,-1
 340 1490 l 1,1,-1
 180 1490 l 1,2,-1
 320 1750 l 1,3,-1
 540 1750 l 1,0,-1
840 1750 m 1,4,-1
 640 1490 l 1,5,-1
 480 1490 l 1,6,-1
 620 1750 l 1,7,-1
 840 1750 l 1,4,-1
840 1255 m 2,8,-1
 840 145 l 2,9,10
 840 85 840 85 797.5 42.5 c 128,-1,11
 755 0 755 0 695 0 c 2,12,-1
 245 0 l 2,13,14
 185 0 185 0 142.5 42.5 c 128,-1,15
 100 85 100 85 100 145 c 2,16,-1
 100 1255 l 2,17,18
 100 1315 100 1315 142.5 1357.5 c 128,-1,19
 185 1400 185 1400 245 1400 c 2,20,-1
 695 1400 l 2,21,22
 755 1400 755 1400 797.5 1357.5 c 128,-1,23
 840 1315 840 1315 840 1255 c 2,8,-1
350 250 m 1,24,-1
 590 250 l 1,25,-1
 590 1150 l 1,26,-1
 350 1150 l 1,27,-1
 350 250 l 1,24,-1
EndSplineSet
EndChar

StartChar: Omacron
Encoding: 332 332 75
GlifName: O_macron
Width: 940
GlyphClass: 2
Flags: W
LayerCount: 2
Fore
SplineSet
250 1640 m 1,0,-1
 690 1640 l 1,1,-1
 690 1530 l 1,2,-1
 250 1530 l 1,3,-1
 250 1640 l 1,0,-1
840 1255 m 2,4,-1
 840 145 l 2,5,6
 840 85 840 85 797.5 42.5 c 128,-1,7
 755 0 755 0 695 0 c 2,8,-1
 245 0 l 2,9,10
 185 0 185 0 142.5 42.5 c 128,-1,11
 100 85 100 85 100 145 c 2,12,-1
 100 1255 l 2,13,14
 100 1315 100 1315 142.5 1357.5 c 128,-1,15
 185 1400 185 1400 245 1400 c 2,16,-1
 695 1400 l 2,17,18
 755 1400 755 1400 797.5 1357.5 c 128,-1,19
 840 1315 840 1315 840 1255 c 2,4,-1
350 250 m 1,20,-1
 590 250 l 1,21,-1
 590 1150 l 1,22,-1
 350 1150 l 1,23,-1
 350 250 l 1,20,-1
EndSplineSet
EndChar

StartChar: Oslash
Encoding: 216 216 76
GlifName: O_slash
Width: 940
GlyphClass: 2
Flags: W
LayerCount: 2
Fore
SplineSet
840 1255 m 2,0,-1
 840 145 l 2,1,2
 840 85 840 85 797.5 42.5 c 128,-1,3
 755 0 755 0 695 0 c 2,4,-1
 245 0 l 2,5,6
 185 0 185 0 142.5 42.5 c 128,-1,7
 100 85 100 85 100 145 c 2,8,-1
 100 1255 l 2,9,10
 100 1315 100 1315 142.5 1357.5 c 128,-1,11
 185 1400 185 1400 245 1400 c 2,12,-1
 695 1400 l 2,13,14
 755 1400 755 1400 797.5 1357.5 c 128,-1,15
 840 1315 840 1315 840 1255 c 2,0,-1
350 732 m 1,16,-1
 590 928 l 1,17,-1
 590 1150 l 1,18,-1
 350 1150 l 1,19,-1
 350 732 l 1,16,-1
350 250 m 1,20,-1
 590 250 l 1,21,-1
 590 658 l 1,22,-1
 350 462 l 1,23,-1
 350 250 l 1,20,-1
EndSplineSet
EndChar

StartChar: Otilde
Encoding: 213 213 77
GlifName: O_tilde
Width: 940
GlyphClass: 2
Flags: W
LayerCount: 2
Fore
SplineSet
633 1653 m 1,0,-1
 722 1626 l 1,1,2
 712 1571 712 1571 667 1533.5 c 128,-1,3
 622 1496 622 1496 565 1496 c 0,4,5
 516 1496 516 1496 478 1523 c 128,-1,6
 440 1550 440 1550 423 1593 c 1,7,8
 404 1619 404 1619 377 1619 c 0,9,10
 351 1619 351 1619 330 1599.5 c 128,-1,11
 309 1580 309 1580 309 1553 c 1,12,-1
 220 1580 l 1,13,14
 229 1635 229 1635 274 1672.5 c 128,-1,15
 319 1710 319 1710 377 1710 c 0,16,17
 426 1710 426 1710 464 1683.5 c 128,-1,18
 502 1657 502 1657 518 1613 c 1,19,20
 527 1602 527 1602 538 1594.5 c 128,-1,21
 549 1587 549 1587 565 1587 c 0,22,23
 591 1587 591 1587 612 1606.5 c 128,-1,24
 633 1626 633 1626 633 1653 c 1,0,-1
840 1255 m 2,25,-1
 840 145 l 2,26,27
 840 85 840 85 797.5 42.5 c 128,-1,28
 755 0 755 0 695 0 c 2,29,-1
 245 0 l 2,30,31
 185 0 185 0 142.5 42.5 c 128,-1,32
 100 85 100 85 100 145 c 2,33,-1
 100 1255 l 2,34,35
 100 1315 100 1315 142.5 1357.5 c 128,-1,36
 185 1400 185 1400 245 1400 c 2,37,-1
 695 1400 l 2,38,39
 755 1400 755 1400 797.5 1357.5 c 128,-1,40
 840 1315 840 1315 840 1255 c 2,25,-1
350 250 m 1,41,-1
 590 250 l 1,42,-1
 590 1150 l 1,43,-1
 350 1150 l 1,44,-1
 350 250 l 1,41,-1
EndSplineSet
EndChar

StartChar: P
Encoding: 80 80 78
GlifName: P_
Width: 890
GlyphClass: 2
Flags: W
LayerCount: 2
Fore
SplineSet
810 1260 m 2,0,-1
 810 665 l 2,1,2
 810 605 810 605 767.5 562.5 c 128,-1,3
 725 520 725 520 665 520 c 2,4,-1
 350 520 l 1,5,-1
 350 0 l 1,6,-1
 100 0 l 1,7,-1
 100 1400 l 1,8,-1
 670 1400 l 2,9,10
 728 1400 728 1400 769 1359 c 128,-1,11
 810 1318 810 1318 810 1260 c 2,0,-1
350 770 m 1,12,-1
 560 770 l 1,13,-1
 560 1160 l 1,14,-1
 350 1160 l 1,15,-1
 350 770 l 1,12,-1
EndSplineSet
EndChar

StartChar: Q
Encoding: 81 81 79
GlifName: Q_
Width: 940
GlyphClass: 2
Flags: W
LayerCount: 2
Fore
SplineSet
100 145 m 2,0,-1
 100 1255 l 2,1,2
 100 1315 100 1315 142.5 1357.5 c 128,-1,3
 185 1400 185 1400 245 1400 c 2,4,-1
 695 1400 l 2,5,6
 755 1400 755 1400 797.5 1357.5 c 128,-1,7
 840 1315 840 1315 840 1255 c 2,8,-1
 840 145 l 2,9,10
 840 87 840 87 799.5 43.5 c 128,-1,11
 759 0 759 0 700 0 c 1,12,-1
 820 -150 l 1,13,-1
 640 -250 l 1,14,-1
 499 -21 l 1,15,16
 499 -21 499 -21 491.5 -10.5 c 128,-1,17
 484 0 484 0 465 0 c 2,18,-1
 245 0 l 2,19,20
 185 0 185 0 142.5 42.5 c 128,-1,21
 100 85 100 85 100 145 c 2,0,-1
590 250 m 1,22,-1
 590 1150 l 1,23,-1
 350 1150 l 1,24,-1
 350 250 l 1,25,-1
 590 250 l 1,22,-1
EndSplineSet
EndChar

StartChar: R
Encoding: 82 82 80
GlifName: R_
Width: 883
GlyphClass: 2
Flags: W
LayerCount: 2
Fore
SplineSet
350 0 m 1,0,-1
 100 0 l 1,1,-1
 100 1400 l 1,2,-1
 635 1400 l 2,3,4
 695 1400 695 1400 737.5 1357.5 c 128,-1,5
 780 1315 780 1315 780 1255 c 2,6,-1
 780 745 l 2,7,8
 780 668 780 668 716 625 c 1,9,10
 780 582 780 582 780 505 c 2,11,-1
 780 144 l 2,12,13
 780 59 780 59 855 18 c 0,14,15
 863 13 863 13 863 8 c 0,16,17
 863 0 863 0 855 0 c 2,18,-1
 684 0 l 2,19,20
 624 0 624 0 582 42 c 128,-1,21
 540 84 540 84 540 144 c 2,22,-1
 540 520 l 1,23,-1
 350 520 l 1,24,-1
 350 0 l 1,0,-1
350 740 m 1,25,-1
 540 740 l 1,26,-1
 540 1150 l 1,27,-1
 350 1150 l 1,28,-1
 350 740 l 1,25,-1
EndSplineSet
EndChar

StartChar: Racute
Encoding: 340 340 81
GlifName: R_acute
Width: 883
GlyphClass: 2
Flags: W
LayerCount: 2
Fore
SplineSet
660 1750 m 1,0,-1
 460 1490 l 1,1,-1
 300 1490 l 1,2,-1
 440 1750 l 1,3,-1
 660 1750 l 1,0,-1
350 0 m 1,4,-1
 100 0 l 1,5,-1
 100 1400 l 1,6,-1
 635 1400 l 2,7,8
 695 1400 695 1400 737.5 1357.5 c 128,-1,9
 780 1315 780 1315 780 1255 c 2,10,-1
 780 745 l 2,11,12
 780 668 780 668 716 625 c 1,13,14
 780 582 780 582 780 505 c 2,15,-1
 780 144 l 2,16,17
 780 59 780 59 855 18 c 0,18,19
 863 13 863 13 863 8 c 0,20,21
 863 0 863 0 855 0 c 2,22,-1
 684 0 l 2,23,24
 624 0 624 0 582 42 c 128,-1,25
 540 84 540 84 540 144 c 2,26,-1
 540 520 l 1,27,-1
 350 520 l 1,28,-1
 350 0 l 1,4,-1
350 740 m 1,29,-1
 540 740 l 1,30,-1
 540 1150 l 1,31,-1
 350 1150 l 1,32,-1
 350 740 l 1,29,-1
EndSplineSet
EndChar

StartChar: Rcaron
Encoding: 344 344 82
GlifName: R_caron
Width: 883
GlyphClass: 2
Flags: W
LayerCount: 2
Fore
SplineSet
354 1500 m 1,0,-1
 170 1800 l 1,1,-1
 325 1800 l 1,2,-1
 441 1618 l 1,3,-1
 556 1800 l 1,4,-1
 711 1800 l 1,5,-1
 527 1500 l 1,6,-1
 354 1500 l 1,0,-1
350 0 m 1,7,-1
 100 0 l 1,8,-1
 100 1400 l 1,9,-1
 635 1400 l 2,10,11
 695 1400 695 1400 737.5 1357.5 c 128,-1,12
 780 1315 780 1315 780 1255 c 2,13,-1
 780 745 l 2,14,15
 780 668 780 668 716 625 c 1,16,17
 780 582 780 582 780 505 c 2,18,-1
 780 144 l 2,19,20
 780 59 780 59 855 18 c 0,21,22
 863 13 863 13 863 8 c 0,23,24
 863 0 863 0 855 0 c 2,25,-1
 684 0 l 2,26,27
 624 0 624 0 582 42 c 128,-1,28
 540 84 540 84 540 144 c 2,29,-1
 540 520 l 1,30,-1
 350 520 l 1,31,-1
 350 0 l 1,7,-1
350 740 m 1,32,-1
 540 740 l 1,33,-1
 540 1150 l 1,34,-1
 350 1150 l 1,35,-1
 350 740 l 1,32,-1
EndSplineSet
EndChar

StartChar: S
Encoding: 83 83 83
GlifName: S_
Width: 940
GlyphClass: 2
Flags: W
LayerCount: 2
Fore
SplineSet
100 150 m 2,0,-1
 100 463 l 1,1,-1
 340 463 l 1,2,-1
 340 261 l 2,3,4
 340 240 340 240 361 240 c 2,5,-1
 579 240 l 2,6,7
 600 240 600 240 600 261 c 2,8,-1
 600 559 l 2,9,10
 600 580 600 580 579 580 c 2,11,-1
 250 580 l 2,12,13
 188 580 188 580 144 624.5 c 128,-1,14
 100 669 100 669 100 731 c 2,15,-1
 100 1250 l 2,16,17
 100 1312 100 1312 144 1356 c 128,-1,18
 188 1400 188 1400 250 1400 c 2,19,-1
 690 1400 l 2,20,21
 752 1400 752 1400 796 1356 c 128,-1,22
 840 1312 840 1312 840 1250 c 2,23,-1
 840 980 l 1,24,-1
 600 980 l 1,25,-1
 600 1139 l 2,26,27
 600 1160 600 1160 579 1160 c 2,28,-1
 361 1160 l 2,29,30
 340 1160 340 1160 340 1139 c 2,31,-1
 340 841 l 2,32,33
 340 820 340 820 361 820 c 2,34,-1
 690 820 l 2,35,36
 752 820 752 820 796 776 c 128,-1,37
 840 732 840 732 840 670 c 2,38,-1
 840 150 l 2,39,40
 840 88 840 88 796 44 c 128,-1,41
 752 0 752 0 690 0 c 2,42,-1
 250 0 l 2,43,44
 188 0 188 0 144 44 c 128,-1,45
 100 88 100 88 100 150 c 2,0,-1
EndSplineSet
EndChar

StartChar: Sacute
Encoding: 346 346 84
GlifName: S_acute
Width: 940
GlyphClass: 2
Flags: W
LayerCount: 2
Fore
SplineSet
650 1750 m 1,0,-1
 450 1490 l 1,1,-1
 290 1490 l 1,2,-1
 430 1750 l 1,3,-1
 650 1750 l 1,0,-1
100 150 m 2,4,-1
 100 463 l 1,5,-1
 340 463 l 1,6,-1
 340 261 l 2,7,8
 340 240 340 240 361 240 c 2,9,-1
 579 240 l 2,10,11
 600 240 600 240 600 261 c 2,12,-1
 600 559 l 2,13,14
 600 580 600 580 579 580 c 2,15,-1
 250 580 l 2,16,17
 188 580 188 580 144 624.5 c 128,-1,18
 100 669 100 669 100 731 c 2,19,-1
 100 1250 l 2,20,21
 100 1312 100 1312 144 1356 c 128,-1,22
 188 1400 188 1400 250 1400 c 2,23,-1
 690 1400 l 2,24,25
 752 1400 752 1400 796 1356 c 128,-1,26
 840 1312 840 1312 840 1250 c 2,27,-1
 840 980 l 1,28,-1
 600 980 l 1,29,-1
 600 1139 l 2,30,31
 600 1160 600 1160 579 1160 c 2,32,-1
 361 1160 l 2,33,34
 340 1160 340 1160 340 1139 c 2,35,-1
 340 841 l 2,36,37
 340 820 340 820 361 820 c 2,38,-1
 690 820 l 2,39,40
 752 820 752 820 796 776 c 128,-1,41
 840 732 840 732 840 670 c 2,42,-1
 840 150 l 2,43,44
 840 88 840 88 796 44 c 128,-1,45
 752 0 752 0 690 0 c 2,46,-1
 250 0 l 2,47,48
 188 0 188 0 144 44 c 128,-1,49
 100 88 100 88 100 150 c 2,4,-1
EndSplineSet
EndChar

StartChar: Scaron
Encoding: 352 352 85
GlifName: S_caron
Width: 940
GlyphClass: 2
Flags: W
LayerCount: 2
Fore
SplineSet
384 1500 m 1,0,-1
 200 1800 l 1,1,-1
 355 1800 l 1,2,-1
 471 1618 l 1,3,-1
 586 1800 l 1,4,-1
 741 1800 l 1,5,-1
 557 1500 l 1,6,-1
 384 1500 l 1,0,-1
100 150 m 2,7,-1
 100 463 l 1,8,-1
 340 463 l 1,9,-1
 340 261 l 2,10,11
 340 240 340 240 361 240 c 2,12,-1
 579 240 l 2,13,14
 600 240 600 240 600 261 c 2,15,-1
 600 559 l 2,16,17
 600 580 600 580 579 580 c 2,18,-1
 250 580 l 2,19,20
 188 580 188 580 144 624.5 c 128,-1,21
 100 669 100 669 100 731 c 2,22,-1
 100 1250 l 2,23,24
 100 1312 100 1312 144 1356 c 128,-1,25
 188 1400 188 1400 250 1400 c 2,26,-1
 690 1400 l 2,27,28
 752 1400 752 1400 796 1356 c 128,-1,29
 840 1312 840 1312 840 1250 c 2,30,-1
 840 980 l 1,31,-1
 600 980 l 1,32,-1
 600 1139 l 2,33,34
 600 1160 600 1160 579 1160 c 2,35,-1
 361 1160 l 2,36,37
 340 1160 340 1160 340 1139 c 2,38,-1
 340 841 l 2,39,40
 340 820 340 820 361 820 c 2,41,-1
 690 820 l 2,42,43
 752 820 752 820 796 776 c 128,-1,44
 840 732 840 732 840 670 c 2,45,-1
 840 150 l 2,46,47
 840 88 840 88 796 44 c 128,-1,48
 752 0 752 0 690 0 c 2,49,-1
 250 0 l 2,50,51
 188 0 188 0 144 44 c 128,-1,52
 100 88 100 88 100 150 c 2,7,-1
EndSplineSet
EndChar

StartChar: Scedilla
Encoding: 350 350 86
GlifName: S_cedilla
Width: 940
GlyphClass: 2
Flags: W
LayerCount: 2
Fore
SplineSet
464 0 m 1,0,-1
 250 0 l 2,1,2
 188 0 188 0 144 44 c 128,-1,3
 100 88 100 88 100 150 c 2,4,-1
 100 463 l 1,5,-1
 340 463 l 1,6,-1
 340 261 l 2,7,8
 340 240 340 240 361 240 c 2,9,-1
 579 240 l 2,10,11
 600 240 600 240 600 261 c 2,12,-1
 600 559 l 2,13,14
 600 580 600 580 579 580 c 2,15,-1
 250 580 l 2,16,17
 188 580 188 580 144 624.5 c 128,-1,18
 100 669 100 669 100 731 c 2,19,-1
 100 1250 l 2,20,21
 100 1312 100 1312 144 1356 c 128,-1,22
 188 1400 188 1400 250 1400 c 2,23,-1
 690 1400 l 2,24,25
 752 1400 752 1400 796 1356 c 128,-1,26
 840 1312 840 1312 840 1250 c 2,27,-1
 840 980 l 1,28,-1
 600 980 l 1,29,-1
 600 1139 l 2,30,31
 600 1160 600 1160 579 1160 c 2,32,-1
 361 1160 l 2,33,34
 340 1160 340 1160 340 1139 c 2,35,-1
 340 841 l 2,36,37
 340 820 340 820 361 820 c 2,38,-1
 690 820 l 2,39,40
 752 820 752 820 796 776 c 128,-1,41
 840 732 840 732 840 670 c 2,42,-1
 840 150 l 2,43,44
 840 88 840 88 796 44 c 128,-1,45
 752 0 752 0 690 0 c 1,46,-1
 770 -80 l 1,47,-1
 770 -230 l 2,48,49
 770 -296 770 -296 723 -343 c 128,-1,50
 676 -390 676 -390 610 -390 c 2,51,-1
 350 -390 l 2,52,53
 284 -390 284 -390 237 -343 c 128,-1,54
 190 -296 190 -296 190 -230 c 2,55,-1
 190 -155 l 1,56,-1
 350 -155 l 1,57,-1
 350 -167 l 2,58,59
 350 -193 350 -193 368.5 -211.5 c 128,-1,60
 387 -230 387 -230 413 -230 c 2,61,-1
 548 -230 l 2,62,63
 574 -230 574 -230 592 -211.5 c 128,-1,64
 610 -193 610 -193 610 -167 c 2,65,-1
 610 -150 l 1,66,-1
 464 0 l 1,0,-1
EndSplineSet
EndChar

StartChar: Scircumflex
Encoding: 348 348 87
GlifName: S_circumflex
Width: 940
GlyphClass: 2
Flags: W
LayerCount: 2
Fore
SplineSet
384 1800 m 1,0,-1
 557 1800 l 1,1,-1
 741 1500 l 1,2,-1
 586 1500 l 1,3,-1
 471 1682 l 1,4,-1
 355 1500 l 1,5,-1
 200 1500 l 1,6,-1
 384 1800 l 1,0,-1
100 150 m 2,7,-1
 100 463 l 1,8,-1
 340 463 l 1,9,-1
 340 261 l 2,10,11
 340 240 340 240 361 240 c 2,12,-1
 579 240 l 2,13,14
 600 240 600 240 600 261 c 2,15,-1
 600 559 l 2,16,17
 600 580 600 580 579 580 c 2,18,-1
 250 580 l 2,19,20
 188 580 188 580 144 624.5 c 128,-1,21
 100 669 100 669 100 731 c 2,22,-1
 100 1250 l 2,23,24
 100 1312 100 1312 144 1356 c 128,-1,25
 188 1400 188 1400 250 1400 c 2,26,-1
 690 1400 l 2,27,28
 752 1400 752 1400 796 1356 c 128,-1,29
 840 1312 840 1312 840 1250 c 2,30,-1
 840 980 l 1,31,-1
 600 980 l 1,32,-1
 600 1139 l 2,33,34
 600 1160 600 1160 579 1160 c 2,35,-1
 361 1160 l 2,36,37
 340 1160 340 1160 340 1139 c 2,38,-1
 340 841 l 2,39,40
 340 820 340 820 361 820 c 2,41,-1
 690 820 l 2,42,43
 752 820 752 820 796 776 c 128,-1,44
 840 732 840 732 840 670 c 2,45,-1
 840 150 l 2,46,47
 840 88 840 88 796 44 c 128,-1,48
 752 0 752 0 690 0 c 2,49,-1
 250 0 l 2,50,51
 188 0 188 0 144 44 c 128,-1,52
 100 88 100 88 100 150 c 2,7,-1
EndSplineSet
EndChar

StartChar: T
Encoding: 84 84 88
GlifName: T_
Width: 880
GlyphClass: 2
Flags: W
LayerCount: 2
Fore
SplineSet
315 0 m 1,0,-1
 315 1160 l 1,1,-1
 50 1160 l 1,2,-1
 50 1400 l 1,3,-1
 830 1400 l 1,4,-1
 830 1160 l 1,5,-1
 565 1160 l 1,6,-1
 565 0 l 1,7,-1
 315 0 l 1,0,-1
EndSplineSet
EndChar

StartChar: Tbar
Encoding: 358 358 89
GlifName: T_bar
Width: 880
GlyphClass: 2
Flags: W
LayerCount: 2
Fore
SplineSet
315 0 m 1,0,-1
 315 645 l 1,1,-1
 220 645 l 1,2,-1
 220 755 l 1,3,-1
 315 755 l 1,4,-1
 315 1160 l 1,5,-1
 50 1160 l 1,6,-1
 50 1400 l 1,7,-1
 830 1400 l 1,8,-1
 830 1160 l 1,9,-1
 565 1160 l 1,10,-1
 565 755 l 1,11,-1
 660 755 l 1,12,-1
 660 645 l 1,13,-1
 565 645 l 1,14,-1
 565 0 l 1,15,-1
 315 0 l 1,0,-1
EndSplineSet
EndChar

StartChar: Tcaron
Encoding: 356 356 90
GlifName: T_caron
Width: 880
GlyphClass: 2
Flags: W
LayerCount: 2
Fore
SplineSet
404 1500 m 1,0,-1
 220 1800 l 1,1,-1
 375 1800 l 1,2,-1
 491 1618 l 1,3,-1
 606 1800 l 1,4,-1
 761 1800 l 1,5,-1
 577 1500 l 1,6,-1
 404 1500 l 1,0,-1
315 0 m 1,7,-1
 315 1160 l 1,8,-1
 50 1160 l 1,9,-1
 50 1400 l 1,10,-1
 830 1400 l 1,11,-1
 830 1160 l 1,12,-1
 565 1160 l 1,13,-1
 565 0 l 1,14,-1
 315 0 l 1,7,-1
EndSplineSet
EndChar

StartChar: Thorn
Encoding: 222 222 91
GlifName: T_horn
Width: 940
GlyphClass: 2
Flags: W
LayerCount: 2
Fore
SplineSet
840 1060 m 2,0,-1
 840 445 l 2,1,2
 840 385 840 385 797.5 342.5 c 128,-1,3
 755 300 755 300 695 300 c 2,4,-1
 350 300 l 1,5,-1
 350 0 l 1,6,-1
 100 0 l 1,7,-1
 100 1400 l 1,8,-1
 350 1400 l 1,9,-1
 350 1200 l 1,10,-1
 700 1200 l 2,11,12
 758 1200 758 1200 799 1159 c 128,-1,13
 840 1118 840 1118 840 1060 c 2,0,-1
350 550 m 1,14,-1
 590 550 l 1,15,-1
 590 960 l 1,16,-1
 350 960 l 1,17,-1
 350 550 l 1,14,-1
EndSplineSet
EndChar

StartChar: U
Encoding: 85 85 92
GlifName: U_
Width: 970
GlyphClass: 2
Flags: W
LayerCount: 2
Fore
SplineSet
350 1400 m 1,0,-1
 350 250 l 1,1,-1
 620 250 l 1,2,-1
 620 1400 l 1,3,-1
 870 1400 l 1,4,-1
 870 145 l 2,5,6
 870 85 870 85 827.5 42.5 c 128,-1,7
 785 0 785 0 725 0 c 2,8,-1
 245 0 l 2,9,10
 185 0 185 0 142.5 42.5 c 128,-1,11
 100 85 100 85 100 145 c 2,12,-1
 100 1400 l 1,13,-1
 350 1400 l 1,0,-1
EndSplineSet
EndChar

StartChar: Uacute
Encoding: 218 218 93
GlifName: U_acute
Width: 970
GlyphClass: 2
Flags: W
LayerCount: 2
Fore
SplineSet
725 1750 m 1,0,-1
 525 1490 l 1,1,-1
 365 1490 l 1,2,-1
 505 1750 l 1,3,-1
 725 1750 l 1,0,-1
350 1400 m 1,4,-1
 350 250 l 1,5,-1
 620 250 l 1,6,-1
 620 1400 l 1,7,-1
 870 1400 l 1,8,-1
 870 145 l 2,9,10
 870 85 870 85 827.5 42.5 c 128,-1,11
 785 0 785 0 725 0 c 2,12,-1
 245 0 l 2,13,14
 185 0 185 0 142.5 42.5 c 128,-1,15
 100 85 100 85 100 145 c 2,16,-1
 100 1400 l 1,17,-1
 350 1400 l 1,4,-1
EndSplineSet
EndChar

StartChar: Ubreve
Encoding: 364 364 94
GlifName: U_breve
Width: 970
GlyphClass: 2
Flags: W
LayerCount: 2
Fore
SplineSet
485 1504 m 256,0,1
 413 1504 413 1504 356.5 1551 c 128,-1,2
 300 1598 300 1598 289 1667 c 1,3,-1
 400 1700 l 1,4,5
 400 1667 400 1667 426 1643 c 128,-1,6
 452 1619 452 1619 485 1619 c 256,7,8
 518 1619 518 1619 544 1643 c 128,-1,9
 570 1667 570 1667 570 1700 c 1,10,-1
 681 1667 l 1,11,12
 670 1598 670 1598 613.5 1551 c 128,-1,13
 557 1504 557 1504 485 1504 c 256,0,1
350 1400 m 1,14,-1
 350 250 l 1,15,-1
 620 250 l 1,16,-1
 620 1400 l 1,17,-1
 870 1400 l 1,18,-1
 870 145 l 2,19,20
 870 85 870 85 827.5 42.5 c 128,-1,21
 785 0 785 0 725 0 c 2,22,-1
 245 0 l 2,23,24
 185 0 185 0 142.5 42.5 c 128,-1,25
 100 85 100 85 100 145 c 2,26,-1
 100 1400 l 1,27,-1
 350 1400 l 1,14,-1
EndSplineSet
EndChar

StartChar: Ucircumflex
Encoding: 219 219 95
GlifName: U_circumflex
Width: 970
GlyphClass: 2
Flags: W
LayerCount: 2
Fore
SplineSet
399 1800 m 1,0,-1
 572 1800 l 1,1,-1
 756 1500 l 1,2,-1
 601 1500 l 1,3,-1
 486 1682 l 1,4,-1
 370 1500 l 1,5,-1
 215 1500 l 1,6,-1
 399 1800 l 1,0,-1
350 1400 m 1,7,-1
 350 250 l 1,8,-1
 620 250 l 1,9,-1
 620 1400 l 1,10,-1
 870 1400 l 1,11,-1
 870 145 l 2,12,13
 870 85 870 85 827.5 42.5 c 128,-1,14
 785 0 785 0 725 0 c 2,15,-1
 245 0 l 2,16,17
 185 0 185 0 142.5 42.5 c 128,-1,18
 100 85 100 85 100 145 c 2,19,-1
 100 1400 l 1,20,-1
 350 1400 l 1,7,-1
EndSplineSet
EndChar

StartChar: Udieresis
Encoding: 220 220 96
GlifName: U_dieresis
Width: 970
GlyphClass: 2
Flags: W
LayerCount: 2
Fore
SplineSet
290 1700 m 1,0,-1
 440 1700 l 1,1,-1
 440 1550 l 1,2,-1
 290 1550 l 1,3,-1
 290 1700 l 1,0,-1
530 1700 m 1,4,-1
 680 1700 l 1,5,-1
 680 1550 l 1,6,-1
 530 1550 l 1,7,-1
 530 1700 l 1,4,-1
350 1400 m 1,8,-1
 350 250 l 1,9,-1
 620 250 l 1,10,-1
 620 1400 l 1,11,-1
 870 1400 l 1,12,-1
 870 145 l 2,13,14
 870 85 870 85 827.5 42.5 c 128,-1,15
 785 0 785 0 725 0 c 2,16,-1
 245 0 l 2,17,18
 185 0 185 0 142.5 42.5 c 128,-1,19
 100 85 100 85 100 145 c 2,20,-1
 100 1400 l 1,21,-1
 350 1400 l 1,8,-1
EndSplineSet
EndChar

StartChar: Ugrave
Encoding: 217 217 97
GlifName: U_grave
Width: 970
GlyphClass: 2
Flags: W
LayerCount: 2
Fore
SplineSet
500 1490 m 1,0,-1
 300 1750 l 1,1,-1
 520 1750 l 1,2,-1
 660 1490 l 1,3,-1
 500 1490 l 1,0,-1
350 1400 m 1,4,-1
 350 250 l 1,5,-1
 620 250 l 1,6,-1
 620 1400 l 1,7,-1
 870 1400 l 1,8,-1
 870 145 l 2,9,10
 870 85 870 85 827.5 42.5 c 128,-1,11
 785 0 785 0 725 0 c 2,12,-1
 245 0 l 2,13,14
 185 0 185 0 142.5 42.5 c 128,-1,15
 100 85 100 85 100 145 c 2,16,-1
 100 1400 l 1,17,-1
 350 1400 l 1,4,-1
EndSplineSet
EndChar

StartChar: Uhungarumlaut
Encoding: 368 368 98
GlifName: U_hungarumlaut
Width: 970
GlyphClass: 2
Flags: W
LayerCount: 2
Fore
SplineSet
570 1750 m 1,0,-1
 370 1490 l 1,1,-1
 210 1490 l 1,2,-1
 350 1750 l 1,3,-1
 570 1750 l 1,0,-1
870 1750 m 1,4,-1
 670 1490 l 1,5,-1
 510 1490 l 1,6,-1
 650 1750 l 1,7,-1
 870 1750 l 1,4,-1
350 1400 m 1,8,-1
 350 250 l 1,9,-1
 620 250 l 1,10,-1
 620 1400 l 1,11,-1
 870 1400 l 1,12,-1
 870 145 l 2,13,14
 870 85 870 85 827.5 42.5 c 128,-1,15
 785 0 785 0 725 0 c 2,16,-1
 245 0 l 2,17,18
 185 0 185 0 142.5 42.5 c 128,-1,19
 100 85 100 85 100 145 c 2,20,-1
 100 1400 l 1,21,-1
 350 1400 l 1,8,-1
EndSplineSet
EndChar

StartChar: Umacron
Encoding: 362 362 99
GlifName: U_macron
Width: 970
GlyphClass: 2
Flags: W
LayerCount: 2
Fore
SplineSet
265 1640 m 1,0,-1
 705 1640 l 1,1,-1
 705 1530 l 1,2,-1
 265 1530 l 1,3,-1
 265 1640 l 1,0,-1
350 1400 m 1,4,-1
 350 250 l 1,5,-1
 620 250 l 1,6,-1
 620 1400 l 1,7,-1
 870 1400 l 1,8,-1
 870 145 l 2,9,10
 870 85 870 85 827.5 42.5 c 128,-1,11
 785 0 785 0 725 0 c 2,12,-1
 245 0 l 2,13,14
 185 0 185 0 142.5 42.5 c 128,-1,15
 100 85 100 85 100 145 c 2,16,-1
 100 1400 l 1,17,-1
 350 1400 l 1,4,-1
EndSplineSet
EndChar

StartChar: Uogonek
Encoding: 370 370 100
GlifName: U_ogonek
Width: 970
GlyphClass: 2
Flags: W
LayerCount: 2
Fore
SplineSet
350 1400 m 1,0,-1
 350 250 l 1,1,-1
 620 250 l 1,2,-1
 620 1400 l 1,3,-1
 870 1400 l 1,4,-1
 870 145 l 2,5,6
 870 85 870 85 827.5 42.5 c 128,-1,7
 785 0 785 0 725 0 c 2,8,-1
 470 0 l 1,9,-1
 320 -153 l 1,10,-1
 320 -167 l 2,11,12
 320 -193 320 -193 338 -211.5 c 128,-1,13
 356 -230 356 -230 382 -230 c 2,14,-1
 517 -230 l 2,15,16
 543 -230 543 -230 561.5 -211.5 c 128,-1,17
 580 -193 580 -193 580 -167 c 2,18,-1
 580 -155 l 1,19,-1
 740 -155 l 1,20,-1
 740 -230 l 2,21,22
 740 -296 740 -296 693 -343 c 128,-1,23
 646 -390 646 -390 580 -390 c 2,24,-1
 320 -390 l 2,25,26
 254 -390 254 -390 207 -343 c 128,-1,27
 160 -296 160 -296 160 -230 c 2,28,-1
 160 -80 l 1,29,-1
 240 0 l 1,30,31
 182 2 182 2 141 44.5 c 128,-1,32
 100 87 100 87 100 145 c 2,33,-1
 100 1400 l 1,34,-1
 350 1400 l 1,0,-1
EndSplineSet
EndChar

StartChar: Uring
Encoding: 366 366 101
GlifName: U_ring
Width: 970
GlyphClass: 2
Flags: W
LayerCount: 2
Fore
SplineSet
625 1661 m 2,0,-1
 625 1626 l 2,1,2
 625 1568 625 1568 584.5 1529 c 128,-1,3
 544 1490 544 1490 485 1490 c 256,4,5
 426 1490 426 1490 385.5 1529 c 128,-1,6
 345 1568 345 1568 345 1626 c 2,7,-1
 345 1661 l 2,8,9
 345 1719 345 1719 385.5 1759.5 c 128,-1,10
 426 1800 426 1800 485 1800 c 256,11,12
 544 1800 544 1800 584.5 1759.5 c 128,-1,13
 625 1719 625 1719 625 1661 c 2,0,-1
540 1659 m 2,14,15
 540 1690 540 1690 524 1710 c 128,-1,16
 508 1730 508 1730 485 1730 c 0,17,18
 463 1730 463 1730 446.5 1710 c 128,-1,19
 430 1690 430 1690 430 1659 c 2,20,-1
 430 1631 l 2,21,22
 430 1600 430 1600 446.5 1580 c 128,-1,23
 463 1560 463 1560 485 1560 c 0,24,25
 508 1560 508 1560 524 1580 c 128,-1,26
 540 1600 540 1600 540 1631 c 2,27,-1
 540 1659 l 2,14,15
350 1400 m 1,28,-1
 350 250 l 1,29,-1
 620 250 l 1,30,-1
 620 1400 l 1,31,-1
 870 1400 l 1,32,-1
 870 145 l 2,33,34
 870 85 870 85 827.5 42.5 c 128,-1,35
 785 0 785 0 725 0 c 2,36,-1
 245 0 l 2,37,38
 185 0 185 0 142.5 42.5 c 128,-1,39
 100 85 100 85 100 145 c 2,40,-1
 100 1400 l 1,41,-1
 350 1400 l 1,28,-1
EndSplineSet
EndChar

StartChar: Utilde
Encoding: 360 360 102
GlifName: U_tilde
Width: 970
GlyphClass: 2
Flags: W
LayerCount: 2
Fore
SplineSet
647 1653 m 1,0,-1
 736 1626 l 1,1,2
 726 1571 726 1571 681 1533.5 c 128,-1,3
 636 1496 636 1496 579 1496 c 0,4,5
 530 1496 530 1496 492 1523 c 128,-1,6
 454 1550 454 1550 437 1593 c 1,7,8
 418 1619 418 1619 391 1619 c 0,9,10
 365 1619 365 1619 344 1599.5 c 128,-1,11
 323 1580 323 1580 323 1553 c 1,12,-1
 234 1580 l 1,13,14
 243 1635 243 1635 288 1672.5 c 128,-1,15
 333 1710 333 1710 391 1710 c 0,16,17
 440 1710 440 1710 478 1683.5 c 128,-1,18
 516 1657 516 1657 532 1613 c 1,19,20
 541 1602 541 1602 552 1594.5 c 128,-1,21
 563 1587 563 1587 579 1587 c 0,22,23
 605 1587 605 1587 626 1606.5 c 128,-1,24
 647 1626 647 1626 647 1653 c 1,0,-1
350 1400 m 1,25,-1
 350 250 l 1,26,-1
 620 250 l 1,27,-1
 620 1400 l 1,28,-1
 870 1400 l 1,29,-1
 870 145 l 2,30,31
 870 85 870 85 827.5 42.5 c 128,-1,32
 785 0 785 0 725 0 c 2,33,-1
 245 0 l 2,34,35
 185 0 185 0 142.5 42.5 c 128,-1,36
 100 85 100 85 100 145 c 2,37,-1
 100 1400 l 1,38,-1
 350 1400 l 1,25,-1
EndSplineSet
EndChar

StartChar: V
Encoding: 86 86 103
GlifName: V_
Width: 990
GlyphClass: 2
Flags: W
LayerCount: 2
Fore
SplineSet
495 460 m 1,0,-1
 710 1400 l 1,1,-1
 970 1400 l 1,2,-1
 630 0 l 1,3,-1
 360 0 l 1,4,-1
 20 1400 l 1,5,-1
 280 1400 l 1,6,-1
 495 460 l 1,0,-1
EndSplineSet
EndChar

StartChar: W
Encoding: 87 87 104
GlifName: W_
Width: 1442
GlyphClass: 2
Flags: W
LayerCount: 2
Fore
SplineSet
996 470 m 1,0,-1
 1182 1400 l 1,1,-1
 1442 1400 l 1,2,-1
 1105 0 l 1,3,-1
 875 0 l 1,4,-1
 721 811 l 1,5,-1
 567 0 l 1,6,-1
 337 0 l 1,7,-1
 0 1400 l 1,8,-1
 260 1400 l 1,9,-1
 446 470 l 1,10,-1
 607 1400 l 1,11,-1
 835 1400 l 1,12,-1
 996 470 l 1,0,-1
EndSplineSet
EndChar

StartChar: Wcircumflex
Encoding: 372 372 105
GlifName: W_circumflex
Width: 1442
GlyphClass: 2
Flags: W
LayerCount: 2
Fore
SplineSet
634 1800 m 1,0,-1
 807 1800 l 1,1,-1
 991 1500 l 1,2,-1
 836 1500 l 1,3,-1
 721 1682 l 1,4,-1
 605 1500 l 1,5,-1
 450 1500 l 1,6,-1
 634 1800 l 1,0,-1
996 470 m 1,7,-1
 1182 1400 l 1,8,-1
 1442 1400 l 1,9,-1
 1105 0 l 1,10,-1
 875 0 l 1,11,-1
 721 811 l 1,12,-1
 567 0 l 1,13,-1
 337 0 l 1,14,-1
 0 1400 l 1,15,-1
 260 1400 l 1,16,-1
 446 470 l 1,17,-1
 607 1400 l 1,18,-1
 835 1400 l 1,19,-1
 996 470 l 1,7,-1
EndSplineSet
EndChar

StartChar: X
Encoding: 88 88 106
GlifName: X_
Width: 875
GlyphClass: 2
Flags: W
LayerCount: 2
Fore
SplineSet
855 1400 m 1,0,-1
 580 695 l 1,1,-1
 865 0 l 1,2,-1
 595 0 l 1,3,-1
 440 413 l 1,4,-1
 280 0 l 1,5,-1
 10 0 l 1,6,-1
 303 701 l 1,7,-1
 20 1400 l 1,8,-1
 260 1400 l 1,9,-1
 445 958 l 1,10,-1
 615 1400 l 1,11,-1
 855 1400 l 1,0,-1
EndSplineSet
EndChar

StartChar: Y
Encoding: 89 89 107
GlifName: Y_
Width: 920
GlyphClass: 2
Flags: W
LayerCount: 2
Fore
SplineSet
860 1400 m 1,0,-1
 585 506 l 1,1,-1
 585 0 l 1,2,-1
 335 0 l 1,3,-1
 335 506 l 1,4,-1
 60 1400 l 1,5,-1
 310 1400 l 1,6,-1
 460 810 l 1,7,-1
 600 1400 l 1,8,-1
 860 1400 l 1,0,-1
EndSplineSet
EndChar

StartChar: Yacute
Encoding: 221 221 108
GlifName: Y_acute
Width: 920
GlyphClass: 2
Flags: W
LayerCount: 2
Fore
SplineSet
730 1750 m 1,0,-1
 530 1490 l 1,1,-1
 370 1490 l 1,2,-1
 510 1750 l 1,3,-1
 730 1750 l 1,0,-1
860 1400 m 1,4,-1
 585 506 l 1,5,-1
 585 0 l 1,6,-1
 335 0 l 1,7,-1
 335 506 l 1,8,-1
 60 1400 l 1,9,-1
 310 1400 l 1,10,-1
 460 810 l 1,11,-1
 600 1400 l 1,12,-1
 860 1400 l 1,4,-1
EndSplineSet
EndChar

StartChar: Ycircumflex
Encoding: 374 374 109
GlifName: Y_circumflex
Width: 920
GlyphClass: 2
Flags: W
LayerCount: 2
Fore
SplineSet
374 1800 m 1,0,-1
 547 1800 l 1,1,-1
 731 1500 l 1,2,-1
 576 1500 l 1,3,-1
 461 1682 l 1,4,-1
 345 1500 l 1,5,-1
 190 1500 l 1,6,-1
 374 1800 l 1,0,-1
860 1400 m 1,7,-1
 585 506 l 1,8,-1
 585 0 l 1,9,-1
 335 0 l 1,10,-1
 335 506 l 1,11,-1
 60 1400 l 1,12,-1
 310 1400 l 1,13,-1
 460 810 l 1,14,-1
 600 1400 l 1,15,-1
 860 1400 l 1,7,-1
EndSplineSet
EndChar

StartChar: Ydieresis
Encoding: 376 376 110
GlifName: Y_dieresis
Width: 920
GlyphClass: 2
Flags: W
LayerCount: 2
Fore
SplineSet
305 1700 m 1,0,-1
 455 1700 l 1,1,-1
 455 1550 l 1,2,-1
 305 1550 l 1,3,-1
 305 1700 l 1,0,-1
545 1700 m 1,4,-1
 695 1700 l 1,5,-1
 695 1550 l 1,6,-1
 545 1550 l 1,7,-1
 545 1700 l 1,4,-1
860 1400 m 1,8,-1
 585 506 l 1,9,-1
 585 0 l 1,10,-1
 335 0 l 1,11,-1
 335 506 l 1,12,-1
 60 1400 l 1,13,-1
 310 1400 l 1,14,-1
 460 810 l 1,15,-1
 600 1400 l 1,16,-1
 860 1400 l 1,8,-1
EndSplineSet
EndChar

StartChar: Z
Encoding: 90 90 111
GlifName: Z_
Width: 890
GlyphClass: 2
Flags: W
LayerCount: 2
Fore
SplineSet
90 1400 m 1,0,-1
 800 1400 l 1,1,-1
 800 1240 l 1,2,-1
 384 230 l 1,3,-1
 800 230 l 1,4,-1
 800 0 l 1,5,-1
 90 0 l 1,6,-1
 90 160 l 1,7,-1
 529 1170 l 1,8,-1
 90 1170 l 1,9,-1
 90 1400 l 1,0,-1
EndSplineSet
EndChar

StartChar: Zacute
Encoding: 377 377 112
GlifName: Z_acute
Width: 890
GlyphClass: 2
Flags: W
LayerCount: 2
Fore
SplineSet
650 1750 m 1,0,-1
 450 1490 l 1,1,-1
 290 1490 l 1,2,-1
 430 1750 l 1,3,-1
 650 1750 l 1,0,-1
90 1400 m 1,4,-1
 800 1400 l 1,5,-1
 800 1240 l 1,6,-1
 384 230 l 1,7,-1
 800 230 l 1,8,-1
 800 0 l 1,9,-1
 90 0 l 1,10,-1
 90 160 l 1,11,-1
 529 1170 l 1,12,-1
 90 1170 l 1,13,-1
 90 1400 l 1,4,-1
EndSplineSet
EndChar

StartChar: Zcaron
Encoding: 381 381 113
GlifName: Z_caron
Width: 890
GlyphClass: 2
Flags: W
LayerCount: 2
Fore
SplineSet
369 1500 m 1,0,-1
 185 1800 l 1,1,-1
 340 1800 l 1,2,-1
 456 1618 l 1,3,-1
 571 1800 l 1,4,-1
 726 1800 l 1,5,-1
 542 1500 l 1,6,-1
 369 1500 l 1,0,-1
90 1400 m 1,7,-1
 800 1400 l 1,8,-1
 800 1240 l 1,9,-1
 384 230 l 1,10,-1
 800 230 l 1,11,-1
 800 0 l 1,12,-1
 90 0 l 1,13,-1
 90 160 l 1,14,-1
 529 1170 l 1,15,-1
 90 1170 l 1,16,-1
 90 1400 l 1,7,-1
EndSplineSet
EndChar

StartChar: Zdotaccent
Encoding: 379 379 114
GlifName: Z_dotaccent
Width: 890
GlyphClass: 2
Flags: W
LayerCount: 2
Fore
SplineSet
370 1700 m 1,0,-1
 520 1700 l 1,1,-1
 520 1550 l 1,2,-1
 370 1550 l 1,3,-1
 370 1700 l 1,0,-1
90 1400 m 1,4,-1
 800 1400 l 1,5,-1
 800 1240 l 1,6,-1
 384 230 l 1,7,-1
 800 230 l 1,8,-1
 800 0 l 1,9,-1
 90 0 l 1,10,-1
 90 160 l 1,11,-1
 529 1170 l 1,12,-1
 90 1170 l 1,13,-1
 90 1400 l 1,4,-1
EndSplineSet
EndChar

StartChar: a
Encoding: 97 97 115
GlifName: a
Width: 940
GlyphClass: 2
Flags: W
LayerCount: 2
Fore
SplineSet
230 0 m 1,0,-1
 0 0 l 1,1,-1
 350 1400 l 1,2,-1
 590 1400 l 1,3,-1
 940 0 l 1,4,-1
 710 0 l 1,5,-1
 644 260 l 1,6,-1
 296 260 l 1,7,-1
 230 0 l 1,0,-1
349 470 m 1,8,-1
 591 470 l 1,9,-1
 470 945 l 1,10,-1
 349 470 l 1,8,-1
EndSplineSet
EndChar

StartChar: aacute
Encoding: 225 225 116
GlifName: aacute
Width: 940
GlyphClass: 2
Flags: W
LayerCount: 2
Fore
SplineSet
760 1750 m 1,0,-1
 560 1490 l 1,1,-1
 400 1490 l 1,2,-1
 540 1750 l 1,3,-1
 760 1750 l 1,0,-1
230 0 m 1,4,-1
 0 0 l 1,5,-1
 350 1400 l 1,6,-1
 590 1400 l 1,7,-1
 940 0 l 1,8,-1
 710 0 l 1,9,-1
 644 260 l 1,10,-1
 296 260 l 1,11,-1
 230 0 l 1,4,-1
349 470 m 1,12,-1
 591 470 l 1,13,-1
 470 945 l 1,14,-1
 349 470 l 1,12,-1
EndSplineSet
EndChar

StartChar: abreve
Encoding: 259 259 117
GlifName: abreve
Width: 940
GlyphClass: 2
Flags: W
LayerCount: 2
Fore
SplineSet
470 1504 m 256,0,1
 398 1504 398 1504 341.5 1551 c 128,-1,2
 285 1598 285 1598 274 1667 c 1,3,-1
 385 1700 l 1,4,5
 385 1667 385 1667 411 1643 c 128,-1,6
 437 1619 437 1619 470 1619 c 256,7,8
 503 1619 503 1619 529 1643 c 128,-1,9
 555 1667 555 1667 555 1700 c 1,10,-1
 666 1667 l 1,11,12
 655 1598 655 1598 598.5 1551 c 128,-1,13
 542 1504 542 1504 470 1504 c 256,0,1
230 0 m 1,14,-1
 0 0 l 1,15,-1
 350 1400 l 1,16,-1
 590 1400 l 1,17,-1
 940 0 l 1,18,-1
 710 0 l 1,19,-1
 644 260 l 1,20,-1
 296 260 l 1,21,-1
 230 0 l 1,14,-1
349 470 m 1,22,-1
 591 470 l 1,23,-1
 470 945 l 1,24,-1
 349 470 l 1,22,-1
EndSplineSet
EndChar

StartChar: acircumflex
Encoding: 226 226 118
GlifName: acircumflex
Width: 940
GlyphClass: 2
Flags: W
LayerCount: 2
Fore
SplineSet
384 1800 m 1,0,-1
 557 1800 l 1,1,-1
 741 1500 l 1,2,-1
 586 1500 l 1,3,-1
 471 1682 l 1,4,-1
 355 1500 l 1,5,-1
 200 1500 l 1,6,-1
 384 1800 l 1,0,-1
230 0 m 1,7,-1
 0 0 l 1,8,-1
 350 1400 l 1,9,-1
 590 1400 l 1,10,-1
 940 0 l 1,11,-1
 710 0 l 1,12,-1
 644 260 l 1,13,-1
 296 260 l 1,14,-1
 230 0 l 1,7,-1
349 470 m 1,15,-1
 591 470 l 1,16,-1
 470 945 l 1,17,-1
 349 470 l 1,15,-1
EndSplineSet
EndChar

StartChar: acute
Encoding: 180 180 119
GlifName: acute
Width: 600
GlyphClass: 2
Flags: W
LayerCount: 2
Fore
SplineSet
100 1400 m 1,0,-1
 240 1800 l 1,1,-1
 500 1800 l 1,2,-1
 300 1400 l 1,3,-1
 100 1400 l 1,0,-1
EndSplineSet
EndChar

StartChar: acutecomb
Encoding: 769 769 120
GlifName: acutecomb
Width: 560
GlyphClass: 2
Flags: W
LayerCount: 2
Fore
SplineSet
460 1750 m 1,0,-1
 260 1490 l 1,1,-1
 100 1490 l 1,2,-1
 240 1750 l 1,3,-1
 460 1750 l 1,0,-1
EndSplineSet
EndChar

StartChar: adieresis
Encoding: 228 228 121
GlifName: adieresis
Width: 940
GlyphClass: 2
Flags: W
LayerCount: 2
Fore
SplineSet
275 1700 m 1,0,-1
 425 1700 l 1,1,-1
 425 1550 l 1,2,-1
 275 1550 l 1,3,-1
 275 1700 l 1,0,-1
515 1700 m 1,4,-1
 665 1700 l 1,5,-1
 665 1550 l 1,6,-1
 515 1550 l 1,7,-1
 515 1700 l 1,4,-1
230 0 m 1,8,-1
 0 0 l 1,9,-1
 350 1400 l 1,10,-1
 590 1400 l 1,11,-1
 940 0 l 1,12,-1
 710 0 l 1,13,-1
 644 260 l 1,14,-1
 296 260 l 1,15,-1
 230 0 l 1,8,-1
349 470 m 1,16,-1
 591 470 l 1,17,-1
 470 945 l 1,18,-1
 349 470 l 1,16,-1
EndSplineSet
EndChar

StartChar: ae
Encoding: 230 230 122
GlifName: ae
Width: 1461
GlyphClass: 2
Flags: W
LayerCount: 2
Fore
SplineSet
899 240 m 1,0,-1
 1361 240 l 1,1,-1
 1361 0 l 1,2,-1
 649 0 l 1,3,-1
 649 318 l 1,4,-1
 412 318 l 1,5,-1
 330 0 l 1,6,-1
 100 0 l 1,7,-1
 450 1400 l 1,8,-1
 1360 1400 l 1,9,-1
 1360 1170 l 1,10,-1
 899 1170 l 1,11,-1
 899 800 l 1,12,-1
 1279 800 l 1,13,-1
 1279 580 l 1,14,-1
 899 580 l 1,15,-1
 899 240 l 1,0,-1
649 548 m 1,16,-1
 649 1170 l 1,17,-1
 631 1170 l 1,18,-1
 471 548 l 1,19,-1
 649 548 l 1,16,-1
EndSplineSet
EndChar

StartChar: agrave
Encoding: 224 224 123
GlifName: agrave
Width: 940
GlyphClass: 2
Flags: W
LayerCount: 2
Fore
SplineSet
400 1490 m 1,0,-1
 200 1750 l 1,1,-1
 420 1750 l 1,2,-1
 560 1490 l 1,3,-1
 400 1490 l 1,0,-1
230 0 m 1,4,-1
 0 0 l 1,5,-1
 350 1400 l 1,6,-1
 590 1400 l 1,7,-1
 940 0 l 1,8,-1
 710 0 l 1,9,-1
 644 260 l 1,10,-1
 296 260 l 1,11,-1
 230 0 l 1,4,-1
349 470 m 1,12,-1
 591 470 l 1,13,-1
 470 945 l 1,14,-1
 349 470 l 1,12,-1
EndSplineSet
EndChar

StartChar: amacron
Encoding: 257 257 124
GlifName: amacron
Width: 940
GlyphClass: 2
Flags: W
LayerCount: 2
Fore
SplineSet
250 1640 m 1,0,-1
 690 1640 l 1,1,-1
 690 1530 l 1,2,-1
 250 1530 l 1,3,-1
 250 1640 l 1,0,-1
230 0 m 1,4,-1
 0 0 l 1,5,-1
 350 1400 l 1,6,-1
 590 1400 l 1,7,-1
 940 0 l 1,8,-1
 710 0 l 1,9,-1
 644 260 l 1,10,-1
 296 260 l 1,11,-1
 230 0 l 1,4,-1
349 470 m 1,12,-1
 591 470 l 1,13,-1
 470 945 l 1,14,-1
 349 470 l 1,12,-1
EndSplineSet
EndChar

StartChar: ampersand
Encoding: 38 38 125
GlifName: ampersand
Width: 1170
GlyphClass: 2
Flags: W
LayerCount: 2
Fore
SplineSet
100 150 m 2,0,-1
 100 430 l 2,1,2
 100 482 100 482 116.5 516.5 c 128,-1,3
 133 551 133 551 149.5 568.5 c 128,-1,4
 166 586 166 586 166 586 c 1,5,-1
 337 752 l 1,6,-1
 212 923 l 1,7,8
 212 923 212 923 191 956.5 c 128,-1,9
 170 990 170 990 170 1040 c 2,10,-1
 170 1250 l 2,11,12
 170 1312 170 1312 214 1356 c 128,-1,13
 258 1400 258 1400 320 1400 c 2,14,-1
 670 1400 l 2,15,16
 732 1400 732 1400 776 1356 c 128,-1,17
 820 1312 820 1312 820 1250 c 2,18,-1
 820 1020 l 2,19,20
 820 963 820 963 798 932.5 c 128,-1,21
 776 902 776 902 776 902 c 1,22,-1
 600 730 l 1,23,-1
 782 481 l 1,24,-1
 906 600 l 1,25,-1
 1044 456 l 1,26,-1
 900 317 l 1,27,-1
 1050 112 l 1,28,29
 1050 112 1050 112 1060 91 c 128,-1,30
 1070 70 1070 70 1070 35 c 2,31,-1
 1070 0 l 1,32,-1
 883 0 l 1,33,-1
 755 177 l 1,34,-1
 608 35 l 1,35,36
 608 35 608 35 580.5 17.5 c 128,-1,37
 553 0 553 0 511 0 c 2,38,-1
 250 0 l 2,39,40
 188 0 188 0 144 44 c 128,-1,41
 100 88 100 88 100 150 c 2,0,-1
599 1210 m 2,42,-1
 401 1210 l 2,43,44
 380 1210 380 1210 380 1189 c 2,45,-1
 380 1033 l 1,46,-1
 481 894 l 1,47,-1
 620 1028 l 1,48,-1
 620 1189 l 2,49,50
 620 1210 620 1210 599 1210 c 2,42,-1
300 234 m 2,51,52
 300 213 300 213 321 213 c 2,53,-1
 505 213 l 1,54,-1
 636 340 l 1,55,-1
 455 591 l 1,56,-1
 300 440 l 1,57,-1
 300 234 l 2,51,52
EndSplineSet
EndChar

StartChar: aogonek
Encoding: 261 261 126
GlifName: aogonek
Width: 940
GlyphClass: 2
Flags: W
LayerCount: 2
Fore
SplineSet
230 0 m 1,0,-1
 80 -153 l 1,1,-1
 80 -167 l 2,2,3
 80 -193 80 -193 98 -211.5 c 128,-1,4
 116 -230 116 -230 142 -230 c 2,5,-1
 277 -230 l 2,6,7
 303 -230 303 -230 321.5 -211.5 c 128,-1,8
 340 -193 340 -193 340 -167 c 2,9,-1
 340 -155 l 1,10,-1
 500 -155 l 1,11,-1
 500 -230 l 2,12,13
 500 -296 500 -296 453 -343 c 128,-1,14
 406 -390 406 -390 340 -390 c 2,15,-1
 80 -390 l 2,16,17
 14 -390 14 -390 -33 -343 c 128,-1,18
 -80 -296 -80 -296 -80 -230 c 2,19,-1
 -80 -80 l 1,20,-1
 0 0 l 1,21,-1
 350 1400 l 1,22,-1
 590 1400 l 1,23,-1
 940 0 l 1,24,-1
 710 0 l 1,25,-1
 644 260 l 1,26,-1
 296 260 l 1,27,-1
 230 0 l 1,0,-1
349 470 m 1,28,-1
 591 470 l 1,29,-1
 470 945 l 1,30,-1
 349 470 l 1,28,-1
EndSplineSet
EndChar

StartChar: aring
Encoding: 229 229 127
GlifName: aring
Width: 940
GlyphClass: 2
Flags: W
LayerCount: 2
Fore
SplineSet
610 1661 m 2,0,-1
 610 1626 l 2,1,2
 610 1568 610 1568 569.5 1529 c 128,-1,3
 529 1490 529 1490 470 1490 c 256,4,5
 411 1490 411 1490 370.5 1529 c 128,-1,6
 330 1568 330 1568 330 1626 c 2,7,-1
 330 1661 l 2,8,9
 330 1719 330 1719 370.5 1759.5 c 128,-1,10
 411 1800 411 1800 470 1800 c 256,11,12
 529 1800 529 1800 569.5 1759.5 c 128,-1,13
 610 1719 610 1719 610 1661 c 2,0,-1
525 1659 m 2,14,15
 525 1690 525 1690 509 1710 c 128,-1,16
 493 1730 493 1730 470 1730 c 0,17,18
 448 1730 448 1730 431.5 1710 c 128,-1,19
 415 1690 415 1690 415 1659 c 2,20,-1
 415 1631 l 2,21,22
 415 1600 415 1600 431.5 1580 c 128,-1,23
 448 1560 448 1560 470 1560 c 0,24,25
 493 1560 493 1560 509 1580 c 128,-1,26
 525 1600 525 1600 525 1631 c 2,27,-1
 525 1659 l 2,14,15
230 0 m 1,28,-1
 0 0 l 1,29,-1
 350 1400 l 1,30,-1
 590 1400 l 1,31,-1
 940 0 l 1,32,-1
 710 0 l 1,33,-1
 644 260 l 1,34,-1
 296 260 l 1,35,-1
 230 0 l 1,28,-1
349 470 m 1,36,-1
 591 470 l 1,37,-1
 470 945 l 1,38,-1
 349 470 l 1,36,-1
EndSplineSet
EndChar

StartChar: arrowdown
Encoding: 8595 8595 128
GlifName: arrowdown
Width: 1041
GlyphClass: 2
Flags: W
LayerCount: 2
Fore
SplineSet
360 615 m 1,0,-1
 360 1260 l 1,1,-1
 580 1260 l 1,2,-1
 580 615 l 1,3,-1
 735 786 l 1,4,-1
 891 631 l 1,5,-1
 470 210 l 1,6,-1
 50 631 l 1,7,-1
 205 786 l 1,8,-1
 360 615 l 1,0,-1
EndSplineSet
EndChar

StartChar: arrowleft
Encoding: 8592 8592 129
GlifName: arrowleft
Width: 1150
GlyphClass: 2
Flags: W
LayerCount: 2
Fore
SplineSet
455 590 m 1,0,-1
 626 435 l 1,1,-1
 471 280 l 1,2,-1
 50 700 l 1,3,-1
 471 1121 l 1,4,-1
 626 965 l 1,5,-1
 455 810 l 1,6,-1
 1100 810 l 1,7,-1
 1100 590 l 1,8,-1
 455 590 l 1,0,-1
EndSplineSet
EndChar

StartChar: arrowright
Encoding: 8594 8594 130
GlifName: arrowright
Width: 1150
GlyphClass: 2
Flags: W
LayerCount: 2
Fore
SplineSet
695 590 m 1,0,-1
 50 590 l 1,1,-1
 50 810 l 1,2,-1
 695 810 l 1,3,-1
 524 965 l 1,4,-1
 679 1121 l 1,5,-1
 1100 700 l 1,6,-1
 679 280 l 1,7,-1
 524 435 l 1,8,-1
 695 590 l 1,0,-1
EndSplineSet
EndChar

StartChar: arrowup
Encoding: 8593 8593 131
GlifName: arrowup
Width: 941
GlyphClass: 2
Flags: W
LayerCount: 2
Fore
SplineSet
360 855 m 1,0,-1
 205 684 l 1,1,-1
 50 839 l 1,2,-1
 470 1260 l 1,3,-1
 891 839 l 1,4,-1
 735 684 l 1,5,-1
 580 855 l 1,6,-1
 580 210 l 1,7,-1
 360 210 l 1,8,-1
 360 855 l 1,0,-1
EndSplineSet
EndChar

StartChar: asciicircum
Encoding: 94 94 132
GlifName: asciicircum
Width: 935
GlyphClass: 2
Flags: W
LayerCount: 2
Fore
SplineSet
350 1450 m 1,0,-1
 585 1450 l 1,1,-1
 835 950 l 1,2,-1
 625 950 l 1,3,-1
 468 1253 l 1,4,-1
 310 950 l 1,5,-1
 100 950 l 1,6,-1
 350 1450 l 1,0,-1
EndSplineSet
EndChar

StartChar: asciitilde
Encoding: 126 126 133
GlifName: asciitilde
Width: 1070
GlyphClass: 2
Flags: W
LayerCount: 2
Fore
SplineSet
970 756 m 1,0,1
 940 666 940 666 862.5 608.5 c 128,-1,2
 785 551 785 551 685 551 c 0,3,4
 683 551 683 551 682 551 c 0,5,6
 623 551 623 551 568.5 575 c 128,-1,7
 514 599 514 599 473 638 c 0,8,9
 434 674 434 674 383 674 c 0,10,11
 345 674 345 674 312 652.5 c 128,-1,12
 279 631 279 631 266 590 c 1,13,-1
 100 645 l 1,14,15
 130 734 130 734 207.5 792 c 128,-1,16
 285 850 285 850 385 850 c 0,17,18
 509 850 509 850 597 762 c 0,19,20
 633 726 633 726 685 726 c 0,21,22
 726 726 726 726 758.5 749.5 c 128,-1,23
 791 773 791 773 804 811 c 1,24,-1
 970 756 l 1,0,1
EndSplineSet
EndChar

StartChar: asterisk
Encoding: 42 42 134
GlifName: asterisk
Width: 1023
GlyphClass: 2
Flags: W
LayerCount: 2
Fore
SplineSet
355 999 m 1,0,-1
 338 1001 l 1,1,-1
 100 1079 l 1,2,-1
 162 1269 l 1,3,-1
 400 1191 l 1,4,-1
 415 1183 l 1,5,-1
 411 1200 l 1,6,-1
 411 1450 l 1,7,-1
 611 1450 l 1,8,-1
 611 1200 l 1,9,-1
 608 1183 l 1,10,-1
 623 1191 l 1,11,-1
 861 1269 l 1,12,-1
 923 1079 l 1,13,-1
 685 1001 l 1,14,-1
 667 999 l 1,15,-1
 680 987 l 1,16,-1
 827 785 l 1,17,-1
 666 668 l 1,18,-1
 519 870 l 1,19,-1
 511 886 l 1,20,-1
 504 870 l 1,21,-1
 357 668 l 1,22,-1
 195 785 l 1,23,-1
 342 987 l 1,24,-1
 355 999 l 1,0,-1
EndSplineSet
EndChar

StartChar: asteriskmath
Encoding: 8727 8727 135
GlifName: asteriskmath
Width: 1023
GlyphClass: 2
Flags: W
LayerCount: 2
Fore
SplineSet
355 639 m 1,0,-1
 338 641 l 1,1,-1
 100 719 l 1,2,-1
 162 909 l 1,3,-1
 400 831 l 1,4,-1
 415 823 l 1,5,-1
 411 840 l 1,6,-1
 411 1090 l 1,7,-1
 611 1090 l 1,8,-1
 611 840 l 1,9,-1
 608 823 l 1,10,-1
 623 831 l 1,11,-1
 861 909 l 1,12,-1
 923 719 l 1,13,-1
 685 641 l 1,14,-1
 667 639 l 1,15,-1
 680 627 l 1,16,-1
 827 425 l 1,17,-1
 666 308 l 1,18,-1
 519 510 l 1,19,-1
 511 526 l 1,20,-1
 504 510 l 1,21,-1
 357 308 l 1,22,-1
 195 425 l 1,23,-1
 342 627 l 1,24,-1
 355 639 l 1,0,-1
EndSplineSet
EndChar

StartChar: at
Encoding: 64 64 136
GlifName: at
Width: 1420
GlyphClass: 2
Flags: W
LayerCount: 2
Fore
SplineSet
500 60 m 2,0,1
 388 60 388 60 297 113 c 128,-1,2
 206 166 206 166 153 257 c 128,-1,3
 100 348 100 348 100 460 c 2,4,-1
 100 940 l 2,5,6
 100 1053 100 1053 153 1143.5 c 128,-1,7
 206 1234 206 1234 297 1287 c 128,-1,8
 388 1340 388 1340 500 1340 c 2,9,-1
 920 1340 l 2,10,11
 1031 1340 1031 1340 1120.5 1288.5 c 128,-1,12
 1210 1237 1210 1237 1264 1148.5 c 128,-1,13
 1318 1060 1318 1060 1320 950 c 2,14,-1
 1320 540 l 2,15,16
 1320 474 1320 474 1273 427 c 128,-1,17
 1226 380 1226 380 1160 380 c 2,18,-1
 1000 380 l 2,19,20
 957 380 957 380 920.5 402.5 c 128,-1,21
 884 425 884 425 860 463 c 1,22,23
 814 380 814 380 720 380 c 2,24,-1
 580 380 l 2,25,26
 514 380 514 380 467 427 c 128,-1,27
 420 474 420 474 420 540 c 2,28,-1
 420 860 l 2,29,30
 420 926 420 926 467 973 c 128,-1,31
 514 1020 514 1020 580 1020 c 2,32,-1
 710 1020 l 2,33,34
 792 1020 792 1020 840 953 c 1,35,-1
 840 1020 l 1,36,-1
 1000 1020 l 1,37,-1
 1000 603 l 2,38,39
 1000 577 1000 577 1018.5 558.5 c 128,-1,40
 1037 540 1037 540 1063 540 c 2,41,-1
 1100 540 l 2,42,43
 1148 540 1148 540 1160 587 c 1,44,-1
 1160 940 l 2,45,46
 1160 1041 1160 1041 1090.5 1110.5 c 128,-1,47
 1021 1180 1021 1180 920 1180 c 2,48,-1
 500 1180 l 2,49,50
 399 1180 399 1180 329.5 1110.5 c 128,-1,51
 260 1041 260 1041 260 940 c 2,52,-1
 260 460 l 2,53,54
 260 359 260 359 329.5 289.5 c 128,-1,55
 399 220 399 220 500 220 c 2,56,-1
 1170 220 l 1,57,-1
 1170 60 l 1,58,-1
 500 60 l 2,0,1
778 540 m 2,59,60
 804 540 804 540 822 558.5 c 128,-1,61
 840 577 840 577 840 603 c 2,62,-1
 840 797 l 2,63,64
 840 823 840 823 822 841.5 c 128,-1,65
 804 860 804 860 778 860 c 2,66,-1
 643 860 l 2,67,68
 617 860 617 860 598.5 841.5 c 128,-1,69
 580 823 580 823 580 797 c 2,70,-1
 580 603 l 2,71,72
 580 577 580 577 598.5 558.5 c 128,-1,73
 617 540 617 540 643 540 c 2,74,-1
 778 540 l 2,59,60
EndSplineSet
EndChar

StartChar: atilde
Encoding: 227 227 137
GlifName: atilde
Width: 940
GlyphClass: 2
Flags: W
LayerCount: 2
Fore
SplineSet
632 1653 m 1,0,-1
 721 1626 l 1,1,2
 711 1571 711 1571 666 1533.5 c 128,-1,3
 621 1496 621 1496 564 1496 c 0,4,5
 515 1496 515 1496 477 1523 c 128,-1,6
 439 1550 439 1550 422 1593 c 1,7,8
 403 1619 403 1619 376 1619 c 0,9,10
 350 1619 350 1619 329 1599.5 c 128,-1,11
 308 1580 308 1580 308 1553 c 1,12,-1
 219 1580 l 1,13,14
 228 1635 228 1635 273 1672.5 c 128,-1,15
 318 1710 318 1710 376 1710 c 0,16,17
 425 1710 425 1710 463 1683.5 c 128,-1,18
 501 1657 501 1657 517 1613 c 1,19,20
 526 1602 526 1602 537 1594.5 c 128,-1,21
 548 1587 548 1587 564 1587 c 0,22,23
 590 1587 590 1587 611 1606.5 c 128,-1,24
 632 1626 632 1626 632 1653 c 1,0,-1
230 0 m 1,25,-1
 0 0 l 1,26,-1
 350 1400 l 1,27,-1
 590 1400 l 1,28,-1
 940 0 l 1,29,-1
 710 0 l 1,30,-1
 644 260 l 1,31,-1
 296 260 l 1,32,-1
 230 0 l 1,25,-1
349 470 m 1,33,-1
 591 470 l 1,34,-1
 470 945 l 1,35,-1
 349 470 l 1,33,-1
EndSplineSet
EndChar

StartChar: b
Encoding: 98 98 138
GlifName: b
Width: 880
GlyphClass: 2
Flags: W
LayerCount: 2
Fore
SplineSet
100 0 m 1,0,-1
 100 1400 l 1,1,-1
 635 1400 l 2,2,3
 695 1400 695 1400 737.5 1357.5 c 128,-1,4
 780 1315 780 1315 780 1255 c 2,5,-1
 780 835 l 2,6,7
 780 790 780 790 754.5 753.5 c 128,-1,8
 729 717 729 717 688 700 c 1,9,10
 729 684 729 684 754.5 647 c 128,-1,11
 780 610 780 610 780 565 c 2,12,-1
 780 145 l 2,13,14
 780 85 780 85 737.5 42.5 c 128,-1,15
 695 0 695 0 635 0 c 2,16,-1
 100 0 l 1,0,-1
350 820 m 1,17,-1
 550 820 l 1,18,-1
 550 1160 l 1,19,-1
 350 1160 l 1,20,-1
 350 820 l 1,17,-1
350 240 m 1,21,-1
 550 240 l 1,22,-1
 550 580 l 1,23,-1
 350 580 l 1,24,-1
 350 240 l 1,21,-1
EndSplineSet
EndChar

StartChar: backslash
Encoding: 92 92 139
GlifName: backslash
Width: 800
GlyphClass: 2
Flags: W
LayerCount: 2
Fore
SplineSet
700 0 m 1,0,-1
 460 0 l 1,1,-1
 100 1400 l 1,2,-1
 347 1400 l 1,3,-1
 700 0 l 1,0,-1
EndSplineSet
EndChar

StartChar: bar
Encoding: 124 124 140
GlifName: bar
Width: 430
GlyphClass: 2
Flags: W
LayerCount: 2
Fore
SplineSet
100 1580 m 1,0,-1
 330 1580 l 1,1,-1
 330 -180 l 1,2,-1
 100 -180 l 1,3,-1
 100 1580 l 1,0,-1
EndSplineSet
EndChar

StartChar: braceleft
Encoding: 123 123 141
GlifName: braceleft
Width: 730
GlyphClass: 2
Flags: W
LayerCount: 2
Fore
SplineSet
100 775 m 1,0,-1
 128 775 l 2,1,2
 154 775 154 775 172 793.5 c 128,-1,3
 190 812 190 812 190 838 c 2,4,-1
 190 1130 l 2,5,6
 190 1254 190 1254 251 1356 c 128,-1,7
 312 1458 312 1458 414.5 1519 c 128,-1,8
 517 1580 517 1580 640 1580 c 2,9,-1
 720 1580 l 1,10,-1
 720 1400 l 1,11,-1
 640 1400 l 2,12,13
 600 1400 600 1400 548 1379.5 c 128,-1,14
 496 1359 496 1359 458 1313 c 128,-1,15
 420 1267 420 1267 420 1190 c 2,16,-1
 420 850 l 2,17,18
 420 800 420 800 391.5 758.5 c 128,-1,19
 363 717 363 717 316 700 c 1,20,21
 363 682 363 682 391.5 641 c 128,-1,22
 420 600 420 600 420 550 c 2,23,-1
 420 210 l 2,24,25
 420 133 420 133 458 87 c 128,-1,26
 496 41 496 41 548 20.5 c 128,-1,27
 600 0 600 0 640 0 c 2,28,-1
 720 0 l 1,29,-1
 720 -180 l 1,30,-1
 640 -180 l 2,31,32
 517 -180 517 -180 414.5 -119 c 128,-1,33
 312 -58 312 -58 251 44.5 c 128,-1,34
 190 147 190 147 190 270 c 2,35,-1
 190 562 l 2,36,37
 190 588 190 588 172 606.5 c 128,-1,38
 154 625 154 625 128 625 c 2,39,-1
 100 625 l 1,40,-1
 100 775 l 1,0,-1
EndSplineSet
EndChar

StartChar: braceright
Encoding: 125 125 142
GlifName: braceright
Width: 730
GlyphClass: 2
Flags: W
LayerCount: 2
Fore
SplineSet
90 1580 m 2,0,1
 214 1580 214 1580 316 1519 c 128,-1,2
 418 1458 418 1458 479 1356 c 128,-1,3
 540 1254 540 1254 540 1130 c 2,4,-1
 540 838 l 2,5,6
 540 812 540 812 558 793.5 c 128,-1,7
 576 775 576 775 602 775 c 2,8,-1
 630 775 l 1,9,-1
 630 625 l 1,10,-1
 602 625 l 2,11,12
 576 625 576 625 558 606.5 c 128,-1,13
 540 588 540 588 540 562 c 2,14,-1
 540 270 l 2,15,16
 540 147 540 147 479 44.5 c 128,-1,17
 418 -58 418 -58 316 -119 c 128,-1,18
 214 -180 214 -180 90 -180 c 2,19,-1
 10 -180 l 1,20,-1
 10 0 l 1,21,-1
 90 0 l 2,22,23
 131 0 131 0 182.5 20.5 c 128,-1,24
 234 41 234 41 272 87 c 128,-1,25
 310 133 310 133 310 210 c 2,26,-1
 310 550 l 2,27,28
 310 600 310 600 338.5 641 c 128,-1,29
 367 682 367 682 414 700 c 1,30,31
 367 717 367 717 338.5 758.5 c 128,-1,32
 310 800 310 800 310 850 c 2,33,-1
 310 1190 l 2,34,35
 310 1267 310 1267 272 1313 c 128,-1,36
 234 1359 234 1359 182.5 1379.5 c 128,-1,37
 131 1400 131 1400 90 1400 c 2,38,-1
 10 1400 l 1,39,-1
 10 1580 l 1,40,-1
 90 1580 l 2,0,1
EndSplineSet
EndChar

StartChar: bracketleft
Encoding: 91 91 143
GlifName: bracketleft
Width: 650
GlyphClass: 2
Flags: W
LayerCount: 2
Fore
SplineSet
640 1400 m 1,0,-1
 330 1400 l 1,1,-1
 330 0 l 1,2,-1
 640 0 l 1,3,-1
 640 -200 l 1,4,-1
 100 -200 l 1,5,-1
 100 1600 l 1,6,-1
 640 1600 l 1,7,-1
 640 1400 l 1,0,-1
EndSplineSet
EndChar

StartChar: bracketright
Encoding: 93 93 144
GlifName: bracketright
Width: 650
GlyphClass: 2
Flags: W
LayerCount: 2
Fore
SplineSet
10 1400 m 1,0,-1
 10 1600 l 1,1,-1
 550 1600 l 1,2,-1
 550 -200 l 1,3,-1
 10 -200 l 1,4,-1
 10 0 l 1,5,-1
 320 0 l 1,6,-1
 320 1400 l 1,7,-1
 10 1400 l 1,0,-1
EndSplineSet
EndChar

StartChar: brokenbar
Encoding: 166 166 145
GlifName: brokenbar
Width: 430
GlyphClass: 2
Flags: W
LayerCount: 2
Fore
SplineSet
100 1580 m 1,0,-1
 330 1580 l 1,1,-1
 330 800 l 1,2,-1
 100 800 l 1,3,-1
 100 1580 l 1,0,-1
100 600 m 1,4,-1
 330 600 l 1,5,-1
 330 -180 l 1,6,-1
 100 -180 l 1,7,-1
 100 600 l 1,4,-1
EndSplineSet
EndChar

StartChar: bullet
Encoding: 8226 8226 146
GlifName: bullet
Width: 480
GlyphClass: 2
Flags: W
LayerCount: 2
Fore
SplineSet
100 830 m 1,0,-1
 380 830 l 1,1,-1
 380 550 l 1,2,-1
 100 550 l 1,3,-1
 100 830 l 1,0,-1
EndSplineSet
EndChar

StartChar: c
Encoding: 99 99 147
GlifName: c
Width: 910
GlyphClass: 2
Flags: W
LayerCount: 2
Fore
SplineSet
100 145 m 2,0,-1
 100 1255 l 2,1,2
 100 1315 100 1315 142.5 1357.5 c 128,-1,3
 185 1400 185 1400 245 1400 c 2,4,-1
 665 1400 l 2,5,6
 725 1400 725 1400 767.5 1357.5 c 128,-1,7
 810 1315 810 1315 810 1255 c 2,8,-1
 810 955 l 1,9,-1
 560 955 l 1,10,-1
 560 1143 l 1,11,-1
 360 1143 l 1,12,-1
 360 260 l 1,13,-1
 560 260 l 1,14,-1
 560 445 l 1,15,-1
 810 445 l 1,16,-1
 810 145 l 2,17,18
 810 86 810 86 768 43 c 128,-1,19
 726 0 726 0 667 0 c 2,20,-1
 245 0 l 2,21,22
 185 0 185 0 142.5 42.5 c 128,-1,23
 100 85 100 85 100 145 c 2,0,-1
EndSplineSet
EndChar

StartChar: cacute
Encoding: 263 263 148
GlifName: cacute
Width: 910
GlyphClass: 2
Flags: W
LayerCount: 2
Fore
SplineSet
700 1750 m 1,0,-1
 500 1490 l 1,1,-1
 340 1490 l 1,2,-1
 480 1750 l 1,3,-1
 700 1750 l 1,0,-1
100 145 m 2,4,-1
 100 1255 l 2,5,6
 100 1315 100 1315 142.5 1357.5 c 128,-1,7
 185 1400 185 1400 245 1400 c 2,8,-1
 665 1400 l 2,9,10
 725 1400 725 1400 767.5 1357.5 c 128,-1,11
 810 1315 810 1315 810 1255 c 2,12,-1
 810 955 l 1,13,-1
 560 955 l 1,14,-1
 560 1143 l 1,15,-1
 360 1143 l 1,16,-1
 360 260 l 1,17,-1
 560 260 l 1,18,-1
 560 445 l 1,19,-1
 810 445 l 1,20,-1
 810 145 l 2,21,22
 810 86 810 86 768 43 c 128,-1,23
 726 0 726 0 667 0 c 2,24,-1
 245 0 l 2,25,26
 185 0 185 0 142.5 42.5 c 128,-1,27
 100 85 100 85 100 145 c 2,4,-1
EndSplineSet
EndChar

StartChar: caron
Encoding: 711 711 149
GlifName: caron
Width: 741
GlyphClass: 2
Flags: W
LayerCount: 2
Fore
SplineSet
284 1500 m 1,0,-1
 100 1800 l 1,1,-1
 255 1800 l 1,2,-1
 371 1618 l 1,3,-1
 486 1800 l 1,4,-1
 641 1800 l 1,5,-1
 457 1500 l 1,6,-1
 284 1500 l 1,0,-1
EndSplineSet
EndChar

StartChar: ccaron
Encoding: 269 269 150
GlifName: ccaron
Width: 910
GlyphClass: 2
Flags: W
LayerCount: 2
Fore
SplineSet
369 1500 m 1,0,-1
 185 1800 l 1,1,-1
 340 1800 l 1,2,-1
 456 1618 l 1,3,-1
 571 1800 l 1,4,-1
 726 1800 l 1,5,-1
 542 1500 l 1,6,-1
 369 1500 l 1,0,-1
100 145 m 2,7,-1
 100 1255 l 2,8,9
 100 1315 100 1315 142.5 1357.5 c 128,-1,10
 185 1400 185 1400 245 1400 c 2,11,-1
 665 1400 l 2,12,13
 725 1400 725 1400 767.5 1357.5 c 128,-1,14
 810 1315 810 1315 810 1255 c 2,15,-1
 810 955 l 1,16,-1
 560 955 l 1,17,-1
 560 1143 l 1,18,-1
 360 1143 l 1,19,-1
 360 260 l 1,20,-1
 560 260 l 1,21,-1
 560 445 l 1,22,-1
 810 445 l 1,23,-1
 810 145 l 2,24,25
 810 86 810 86 768 43 c 128,-1,26
 726 0 726 0 667 0 c 2,27,-1
 245 0 l 2,28,29
 185 0 185 0 142.5 42.5 c 128,-1,30
 100 85 100 85 100 145 c 2,7,-1
EndSplineSet
EndChar

StartChar: ccedilla
Encoding: 231 231 151
GlifName: ccedilla
Width: 910
GlyphClass: 2
Flags: W
LayerCount: 2
Fore
SplineSet
100 145 m 2,0,-1
 100 1255 l 2,1,2
 100 1315 100 1315 142.5 1357.5 c 128,-1,3
 185 1400 185 1400 245 1400 c 2,4,-1
 665 1400 l 2,5,6
 725 1400 725 1400 767.5 1357.5 c 128,-1,7
 810 1315 810 1315 810 1255 c 2,8,-1
 810 955 l 1,9,-1
 560 955 l 1,10,-1
 560 1143 l 1,11,-1
 360 1143 l 1,12,-1
 360 260 l 1,13,-1
 560 260 l 1,14,-1
 560 445 l 1,15,-1
 810 445 l 1,16,-1
 810 145 l 2,17,18
 810 86 810 86 768 43 c 128,-1,19
 726 0 726 0 667 0 c 2,20,-1
 665 0 l 1,21,-1
 745 -80 l 1,22,-1
 745 -230 l 2,23,24
 745 -296 745 -296 698 -343 c 128,-1,25
 651 -390 651 -390 585 -390 c 2,26,-1
 325 -390 l 2,27,28
 259 -390 259 -390 212 -343 c 128,-1,29
 165 -296 165 -296 165 -230 c 2,30,-1
 165 -155 l 1,31,-1
 325 -155 l 1,32,-1
 325 -167 l 2,33,34
 325 -193 325 -193 343.5 -211.5 c 128,-1,35
 362 -230 362 -230 388 -230 c 2,36,-1
 523 -230 l 2,37,38
 549 -230 549 -230 567 -211.5 c 128,-1,39
 585 -193 585 -193 585 -167 c 2,40,-1
 584 -149 l 1,41,-1
 439 0 l 1,42,-1
 245 0 l 2,43,44
 185 0 185 0 142.5 42.5 c 128,-1,45
 100 85 100 85 100 145 c 2,0,-1
EndSplineSet
EndChar

StartChar: ccircumflex
Encoding: 265 265 152
GlifName: ccircumflex
Width: 910
GlyphClass: 2
Flags: W
LayerCount: 2
Fore
SplineSet
369 1800 m 1,0,-1
 542 1800 l 1,1,-1
 726 1500 l 1,2,-1
 571 1500 l 1,3,-1
 456 1682 l 1,4,-1
 340 1500 l 1,5,-1
 185 1500 l 1,6,-1
 369 1800 l 1,0,-1
100 145 m 2,7,-1
 100 1255 l 2,8,9
 100 1315 100 1315 142.5 1357.5 c 128,-1,10
 185 1400 185 1400 245 1400 c 2,11,-1
 665 1400 l 2,12,13
 725 1400 725 1400 767.5 1357.5 c 128,-1,14
 810 1315 810 1315 810 1255 c 2,15,-1
 810 955 l 1,16,-1
 560 955 l 1,17,-1
 560 1143 l 1,18,-1
 360 1143 l 1,19,-1
 360 260 l 1,20,-1
 560 260 l 1,21,-1
 560 445 l 1,22,-1
 810 445 l 1,23,-1
 810 145 l 2,24,25
 810 86 810 86 768 43 c 128,-1,26
 726 0 726 0 667 0 c 2,27,-1
 245 0 l 2,28,29
 185 0 185 0 142.5 42.5 c 128,-1,30
 100 85 100 85 100 145 c 2,7,-1
EndSplineSet
EndChar

StartChar: cdotaccent
Encoding: 267 267 153
GlifName: cdotaccent
Width: 910
GlyphClass: 2
Flags: W
LayerCount: 2
Fore
SplineSet
380 1700 m 1,0,-1
 530 1700 l 1,1,-1
 530 1550 l 1,2,-1
 380 1550 l 1,3,-1
 380 1700 l 1,0,-1
100 145 m 2,4,-1
 100 1255 l 2,5,6
 100 1315 100 1315 142.5 1357.5 c 128,-1,7
 185 1400 185 1400 245 1400 c 2,8,-1
 665 1400 l 2,9,10
 725 1400 725 1400 767.5 1357.5 c 128,-1,11
 810 1315 810 1315 810 1255 c 2,12,-1
 810 955 l 1,13,-1
 560 955 l 1,14,-1
 560 1143 l 1,15,-1
 360 1143 l 1,16,-1
 360 260 l 1,17,-1
 560 260 l 1,18,-1
 560 445 l 1,19,-1
 810 445 l 1,20,-1
 810 145 l 2,21,22
 810 86 810 86 768 43 c 128,-1,23
 726 0 726 0 667 0 c 2,24,-1
 245 0 l 2,25,26
 185 0 185 0 142.5 42.5 c 128,-1,27
 100 85 100 85 100 145 c 2,4,-1
EndSplineSet
EndChar

StartChar: cedilla
Encoding: 184 184 154
GlifName: cedilla
Width: 780
GlyphClass: 2
Flags: W
LayerCount: 2
Fore
SplineSet
600 0 m 1,0,-1
 680 -80 l 1,1,-1
 680 -230 l 2,2,3
 680 -296 680 -296 633 -343 c 128,-1,4
 586 -390 586 -390 520 -390 c 2,5,-1
 260 -390 l 2,6,7
 194 -390 194 -390 147 -343 c 128,-1,8
 100 -296 100 -296 100 -230 c 2,9,-1
 100 -155 l 1,10,-1
 260 -155 l 1,11,-1
 260 -167 l 2,12,13
 260 -193 260 -193 278.5 -211.5 c 128,-1,14
 297 -230 297 -230 323 -230 c 2,15,-1
 458 -230 l 2,16,17
 484 -230 484 -230 502 -211.5 c 128,-1,18
 520 -193 520 -193 520 -167 c 2,19,-1
 520 -150 l 1,20,-1
 374 0 l 1,21,-1
 600 0 l 1,0,-1
EndSplineSet
EndChar

StartChar: cent
Encoding: 162 162 155
GlifName: cent
Width: 690
GlyphClass: 2
Flags: W
LayerCount: 2
Fore
SplineSet
100 540 m 2,0,-1
 100 860 l 2,1,2
 100 926 100 926 147 973 c 128,-1,3
 194 1020 194 1020 260 1020 c 1,4,-1
 260 1200 l 1,5,-1
 430 1200 l 1,6,-1
 430 1020 l 1,7,8
 496 1020 496 1020 543 973 c 128,-1,9
 590 926 590 926 590 860 c 2,10,-1
 590 800 l 1,11,-1
 430 800 l 1,12,-1
 430 860 l 1,13,-1
 260 860 l 1,14,-1
 260 540 l 1,15,-1
 430 540 l 1,16,-1
 430 600 l 1,17,-1
 590 600 l 1,18,-1
 590 540 l 2,19,20
 590 474 590 474 543 427 c 128,-1,21
 496 380 496 380 430 380 c 1,22,-1
 430 200 l 1,23,-1
 260 200 l 1,24,-1
 260 380 l 1,25,26
 194 380 194 380 147 427 c 128,-1,27
 100 474 100 474 100 540 c 2,0,-1
EndSplineSet
EndChar

StartChar: circumflex
Encoding: 710 710 156
GlifName: circumflex
Width: 741
GlyphClass: 2
Flags: W
LayerCount: 2
Fore
SplineSet
284 1800 m 1,0,-1
 457 1800 l 1,1,-1
 641 1500 l 1,2,-1
 486 1500 l 1,3,-1
 371 1682 l 1,4,-1
 255 1500 l 1,5,-1
 100 1500 l 1,6,-1
 284 1800 l 1,0,-1
EndSplineSet
EndChar

StartChar: colon
Encoding: 58 58 157
GlifName: colon
Width: 430
GlyphClass: 2
Flags: W
LayerCount: 2
Fore
SplineSet
100 1130 m 1,0,-1
 330 1130 l 1,1,-1
 330 900 l 1,2,-1
 100 900 l 1,3,-1
 100 1130 l 1,0,-1
100 500 m 1,4,-1
 330 500 l 1,5,-1
 330 270 l 1,6,-1
 100 270 l 1,7,-1
 100 500 l 1,4,-1
EndSplineSet
EndChar

StartChar: comma
Encoding: 44 44 158
GlifName: comma
Width: 430
GlyphClass: 2
Flags: W
LayerCount: 2
Fore
SplineSet
120 -200 m 1,0,-1
 200 0 l 1,1,-1
 100 0 l 1,2,-1
 100 230 l 1,3,-1
 330 230 l 1,4,-1
 330 0 l 1,5,-1
 220 -200 l 1,6,-1
 120 -200 l 1,0,-1
EndSplineSet
EndChar

StartChar: copyright
Encoding: 169 169 159
GlifName: copyright
Width: 1330
GlyphClass: 2
Flags: W
LayerCount: 2
Fore
SplineSet
100 460 m 2,0,-1
 100 940 l 2,1,2
 100 1053 100 1053 153 1143.5 c 128,-1,3
 206 1234 206 1234 297 1287 c 128,-1,4
 388 1340 388 1340 500 1340 c 2,5,-1
 830 1340 l 2,6,7
 941 1340 941 1340 1030.5 1288.5 c 128,-1,8
 1120 1237 1120 1237 1174 1148.5 c 128,-1,9
 1228 1060 1228 1060 1230 950 c 2,10,-1
 1230 460 l 2,11,12
 1230 348 1230 348 1177 257 c 128,-1,13
 1124 166 1124 166 1033.5 113 c 128,-1,14
 943 60 943 60 830 60 c 2,15,-1
 500 60 l 2,16,17
 388 60 388 60 297 113 c 128,-1,18
 206 166 206 166 153 257 c 128,-1,19
 100 348 100 348 100 460 c 2,0,-1
260 460 m 2,20,21
 260 359 260 359 329.5 289.5 c 128,-1,22
 399 220 399 220 500 220 c 2,23,-1
 830 220 l 2,24,25
 931 220 931 220 1000.5 289.5 c 128,-1,26
 1070 359 1070 359 1070 460 c 2,27,-1
 1070 940 l 2,28,29
 1070 1041 1070 1041 1000.5 1110.5 c 128,-1,30
 931 1180 931 1180 830 1180 c 2,31,-1
 500 1180 l 2,32,33
 399 1180 399 1180 329.5 1110.5 c 128,-1,34
 260 1041 260 1041 260 940 c 2,35,-1
 260 460 l 2,20,21
420 540 m 2,36,-1
 420 860 l 2,37,38
 420 926 420 926 467 973 c 128,-1,39
 514 1020 514 1020 580 1020 c 2,40,-1
 750 1020 l 2,41,42
 816 1020 816 1020 863 973 c 128,-1,43
 910 926 910 926 910 860 c 2,44,-1
 910 800 l 1,45,-1
 750 800 l 1,46,-1
 750 860 l 1,47,-1
 580 860 l 1,48,-1
 580 540 l 1,49,-1
 750 540 l 1,50,-1
 750 600 l 1,51,-1
 910 600 l 1,52,-1
 910 540 l 2,53,54
 910 474 910 474 863 427 c 128,-1,55
 816 380 816 380 750 380 c 2,56,-1
 580 380 l 2,57,58
 514 380 514 380 467 427 c 128,-1,59
 420 474 420 474 420 540 c 2,36,-1
EndSplineSet
EndChar

StartChar: currency
Encoding: 164 164 160
GlifName: currency
Width: 980
GlyphClass: 2
Flags: W
LayerCount: 2
Fore
SplineSet
580 380 m 2,0,-1
 400 380 l 2,1,2
 345 380 345 380 302 413.5 c 128,-1,3
 259 447 259 447 245 500 c 1,4,-1
 100 500 l 1,5,-1
 100 640 l 1,6,-1
 240 640 l 1,7,-1
 240 760 l 1,8,-1
 100 760 l 1,9,-1
 100 900 l 1,10,-1
 245 900 l 1,11,12
 259 953 259 953 302 986.5 c 128,-1,13
 345 1020 345 1020 400 1020 c 2,14,-1
 580 1020 l 2,15,16
 635 1020 635 1020 678.5 986.5 c 128,-1,17
 722 953 722 953 735 900 c 1,18,-1
 880 900 l 1,19,-1
 880 760 l 1,20,-1
 740 760 l 1,21,-1
 740 640 l 1,22,-1
 880 640 l 1,23,-1
 880 500 l 1,24,-1
 735 500 l 1,25,26
 722 447 722 447 678.5 413.5 c 128,-1,27
 635 380 635 380 580 380 c 2,0,-1
400 540 m 1,28,-1
 580 540 l 1,29,-1
 580 860 l 1,30,-1
 400 860 l 1,31,-1
 400 540 l 1,28,-1
EndSplineSet
EndChar

StartChar: d
Encoding: 100 100 161
GlifName: d
Width: 890
GlyphClass: 2
Flags: W
LayerCount: 2
Fore
SplineSet
100 0 m 1,0,-1
 100 1400 l 1,1,-1
 630 1400 l 2,2,3
 696 1400 696 1400 743 1353 c 128,-1,4
 790 1306 790 1306 790 1240 c 2,5,-1
 790 160 l 2,6,7
 790 94 790 94 743 47 c 128,-1,8
 696 0 696 0 630 0 c 2,9,-1
 100 0 l 1,0,-1
350 230 m 1,10,-1
 529 230 l 2,11,12
 550 230 550 230 550 251 c 2,13,-1
 550 1149 l 2,14,15
 550 1170 550 1170 529 1170 c 2,16,-1
 350 1170 l 1,17,-1
 350 230 l 1,10,-1
EndSplineSet
EndChar

StartChar: dagger
Encoding: 8224 8224 162
GlifName: dagger
Width: 1000
GlyphClass: 2
Flags: W
LayerCount: 2
Fore
SplineSet
900 900 m 1,0,-1
 670 900 l 1,1,-1
 583 920 l 1,2,-1
 600 720 l 1,3,-1
 600 0 l 1,4,-1
 400 0 l 1,5,-1
 400 720 l 1,6,-1
 417 920 l 1,7,-1
 330 900 l 1,8,-1
 100 900 l 1,9,-1
 100 1100 l 1,10,-1
 330 1100 l 1,11,-1
 421 1079 l 1,12,-1
 400 1170 l 1,13,-1
 400 1400 l 1,14,-1
 600 1400 l 1,15,-1
 600 1170 l 1,16,-1
 579 1079 l 1,17,-1
 670 1100 l 1,18,-1
 900 1100 l 1,19,-1
 900 900 l 1,0,-1
EndSplineSet
EndChar

StartChar: daggerdbl
Encoding: 8225 8225 163
GlifName: daggerdbl
Width: 1000
GlyphClass: 2
Flags: W
LayerCount: 2
Fore
SplineSet
670 900 m 1,0,-1
 583 920 l 1,1,-1
 600 720 l 1,2,-1
 600 680 l 1,3,-1
 583 480 l 1,4,-1
 670 500 l 1,5,-1
 900 500 l 1,6,-1
 900 300 l 1,7,-1
 670 300 l 1,8,-1
 579 321 l 1,9,-1
 600 230 l 1,10,-1
 600 0 l 1,11,-1
 400 0 l 1,12,-1
 400 230 l 1,13,-1
 421 321 l 1,14,-1
 330 300 l 1,15,-1
 100 300 l 1,16,-1
 100 500 l 1,17,-1
 330 500 l 1,18,-1
 417 480 l 1,19,-1
 400 680 l 1,20,-1
 400 720 l 1,21,-1
 417 920 l 1,22,-1
 330 900 l 1,23,-1
 100 900 l 1,24,-1
 100 1100 l 1,25,-1
 330 1100 l 1,26,-1
 421 1079 l 1,27,-1
 400 1170 l 1,28,-1
 400 1400 l 1,29,-1
 600 1400 l 1,30,-1
 600 1170 l 1,31,-1
 579 1079 l 1,32,-1
 670 1100 l 1,33,-1
 900 1100 l 1,34,-1
 900 900 l 1,35,-1
 670 900 l 1,0,-1
EndSplineSet
EndChar

StartChar: dcaron
Encoding: 271 271 164
GlifName: dcaron
Width: 890
GlyphClass: 2
Flags: W
LayerCount: 2
Fore
SplineSet
359 1500 m 1,0,-1
 175 1800 l 1,1,-1
 330 1800 l 1,2,-1
 446 1618 l 1,3,-1
 561 1800 l 1,4,-1
 716 1800 l 1,5,-1
 532 1500 l 1,6,-1
 359 1500 l 1,0,-1
100 0 m 1,7,-1
 100 1400 l 1,8,-1
 630 1400 l 2,9,10
 696 1400 696 1400 743 1353 c 128,-1,11
 790 1306 790 1306 790 1240 c 2,12,-1
 790 160 l 2,13,14
 790 94 790 94 743 47 c 128,-1,15
 696 0 696 0 630 0 c 2,16,-1
 100 0 l 1,7,-1
350 230 m 1,17,-1
 529 230 l 2,18,19
 550 230 550 230 550 251 c 2,20,-1
 550 1149 l 2,21,22
 550 1170 550 1170 529 1170 c 2,23,-1
 350 1170 l 1,24,-1
 350 230 l 1,17,-1
EndSplineSet
EndChar

StartChar: dcroat
Encoding: 273 273 165
GlifName: dcroat
Width: 890
GlyphClass: 2
Flags: W
LayerCount: 2
Fore
SplineSet
100 0 m 1,0,-1
 100 645 l 1,1,-1
 60 645 l 1,2,-1
 60 755 l 1,3,-1
 100 755 l 1,4,-1
 100 1400 l 1,5,-1
 630 1400 l 2,6,7
 696 1400 696 1400 743 1353 c 128,-1,8
 790 1306 790 1306 790 1240 c 2,9,-1
 790 160 l 2,10,11
 790 94 790 94 743 47 c 128,-1,12
 696 0 696 0 630 0 c 2,13,-1
 100 0 l 1,0,-1
350 645 m 1,14,-1
 350 230 l 1,15,-1
 529 230 l 2,16,17
 550 230 550 230 550 251 c 2,18,-1
 550 1149 l 2,19,20
 550 1170 550 1170 529 1170 c 2,21,-1
 350 1170 l 1,22,-1
 350 755 l 1,23,-1
 500 755 l 1,24,-1
 500 645 l 1,25,-1
 350 645 l 1,14,-1
EndSplineSet
EndChar

StartChar: degree
Encoding: 176 176 166
GlifName: degree
Width: 660
GlyphClass: 2
Flags: W
LayerCount: 2
Fore
SplineSet
100 1169 m 2,0,-1
 100 1220 l 2,1,2
 100 1284 100 1284 131 1336 c 128,-1,3
 162 1388 162 1388 214.5 1419 c 128,-1,4
 267 1450 267 1450 330 1450 c 0,5,6
 394 1450 394 1450 446 1419 c 128,-1,7
 498 1388 498 1388 529 1336 c 128,-1,8
 560 1284 560 1284 560 1220 c 2,9,-1
 560 1169 l 2,10,11
 560 1074 560 1074 492.5 1007 c 128,-1,12
 425 940 425 940 330 940 c 256,13,14
 235 940 235 940 167.5 1007 c 128,-1,15
 100 1074 100 1074 100 1169 c 2,0,-1
259 1184 m 2,16,17
 259 1144 259 1144 280 1116.5 c 128,-1,18
 301 1089 301 1089 330 1089 c 256,19,20
 359 1089 359 1089 380 1116.5 c 128,-1,21
 401 1144 401 1144 401 1184 c 2,22,-1
 401 1206 l 2,23,24
 401 1246 401 1246 380 1273 c 128,-1,25
 359 1300 359 1300 330 1300 c 256,26,27
 301 1300 301 1300 280 1273 c 128,-1,28
 259 1246 259 1246 259 1206 c 2,29,-1
 259 1184 l 2,16,17
EndSplineSet
EndChar

StartChar: dieresis
Encoding: 168 168 167
GlifName: dieresis
Width: 800
GlyphClass: 2
Flags: W
LayerCount: 2
Fore
SplineSet
100 1720 m 1,0,-1
 330 1720 l 1,1,-1
 330 1490 l 1,2,-1
 100 1490 l 1,3,-1
 100 1720 l 1,0,-1
470 1720 m 1,4,-1
 700 1720 l 1,5,-1
 700 1490 l 1,6,-1
 470 1490 l 1,7,-1
 470 1720 l 1,4,-1
EndSplineSet
EndChar

StartChar: divide
Encoding: 247 247 168
GlifName: divide
Width: 1000
GlyphClass: 2
Flags: W
LayerCount: 2
Fore
SplineSet
385 1130 m 1,0,-1
 615 1130 l 1,1,-1
 615 900 l 1,2,-1
 385 900 l 1,3,-1
 385 1130 l 1,0,-1
100 810 m 1,4,-1
 900 810 l 1,5,-1
 900 590 l 1,6,-1
 100 590 l 1,7,-1
 100 810 l 1,4,-1
385 500 m 1,8,-1
 615 500 l 1,9,-1
 615 270 l 1,10,-1
 385 270 l 1,11,-1
 385 500 l 1,8,-1
EndSplineSet
EndChar

StartChar: dollar
Encoding: 36 36 169
GlifName: dollar
Width: 900
GlyphClass: 2
Flags: W
LayerCount: 2
Fore
SplineSet
100 235 m 2,0,-1
 100 445 l 1,1,-1
 330 445 l 1,2,-1
 330 351 l 2,3,4
 330 330 330 330 351 330 c 2,5,-1
 549 330 l 2,6,7
 570 330 570 330 570 351 c 2,8,-1
 570 579 l 2,9,10
 570 600 570 600 549 600 c 2,11,-1
 235 600 l 2,12,13
 179 600 179 600 139.5 639.5 c 128,-1,14
 100 679 100 679 100 735 c 2,15,-1
 100 1165 l 2,16,17
 100 1221 100 1221 139.5 1260.5 c 128,-1,18
 179 1300 179 1300 235 1300 c 2,19,-1
 350 1300 l 1,20,-1
 350 1500 l 1,21,-1
 550 1500 l 1,22,-1
 550 1300 l 1,23,-1
 665 1300 l 2,24,25
 721 1300 721 1300 760.5 1260.5 c 128,-1,26
 800 1221 800 1221 800 1165 c 2,27,-1
 800 955 l 1,28,-1
 570 955 l 1,29,-1
 570 1049 l 2,30,31
 570 1070 570 1070 549 1070 c 2,32,-1
 351 1070 l 2,33,34
 330 1070 330 1070 330 1049 c 2,35,-1
 330 851 l 2,36,37
 330 830 330 830 351 830 c 2,38,-1
 665 830 l 2,39,40
 721 830 721 830 760.5 790.5 c 128,-1,41
 800 751 800 751 800 695 c 2,42,-1
 800 235 l 2,43,44
 800 179 800 179 760.5 139.5 c 128,-1,45
 721 100 721 100 665 100 c 2,46,-1
 550 100 l 1,47,-1
 550 -100 l 1,48,-1
 350 -100 l 1,49,-1
 350 100 l 1,50,-1
 235 100 l 2,51,52
 179 100 179 100 139.5 139.5 c 128,-1,53
 100 179 100 179 100 235 c 2,0,-1
EndSplineSet
EndChar

StartChar: dotlessi
Encoding: 305 305 170
GlifName: dotlessi
Width: 450
GlyphClass: 2
Flags: W
LayerCount: 2
Fore
SplineSet
100 1400 m 1,0,-1
 350 1400 l 1,1,-1
 350 0 l 1,2,-1
 100 0 l 1,3,-1
 100 1400 l 1,0,-1
EndSplineSet
EndChar

StartChar: e
Encoding: 101 101 171
GlifName: e
Width: 912
GlyphClass: 2
Flags: W
LayerCount: 2
Fore
SplineSet
100 0 m 1,0,-1
 100 1400 l 1,1,-1
 810 1400 l 1,2,-1
 810 1170 l 1,3,-1
 350 1170 l 1,4,-1
 350 820 l 1,5,-1
 730 820 l 1,6,-1
 730 580 l 1,7,-1
 350 580 l 1,8,-1
 350 240 l 1,9,-1
 812 240 l 1,10,-1
 812 0 l 1,11,-1
 100 0 l 1,0,-1
EndSplineSet
EndChar

StartChar: eacute
Encoding: 233 233 172
GlifName: eacute
Width: 912
GlyphClass: 2
Flags: W
LayerCount: 2
Fore
SplineSet
660 1750 m 1,0,-1
 460 1490 l 1,1,-1
 300 1490 l 1,2,-1
 440 1750 l 1,3,-1
 660 1750 l 1,0,-1
100 0 m 1,4,-1
 100 1400 l 1,5,-1
 810 1400 l 1,6,-1
 810 1170 l 1,7,-1
 350 1170 l 1,8,-1
 350 820 l 1,9,-1
 730 820 l 1,10,-1
 730 580 l 1,11,-1
 350 580 l 1,12,-1
 350 240 l 1,13,-1
 812 240 l 1,14,-1
 812 0 l 1,15,-1
 100 0 l 1,4,-1
EndSplineSet
EndChar

StartChar: ebreve
Encoding: 277 277 173
GlifName: ebreve
Width: 912
GlyphClass: 2
Flags: W
LayerCount: 2
Fore
SplineSet
456 1504 m 256,0,1
 384 1504 384 1504 327.5 1551 c 128,-1,2
 271 1598 271 1598 260 1667 c 1,3,-1
 371 1700 l 1,4,5
 371 1667 371 1667 397 1643 c 128,-1,6
 423 1619 423 1619 456 1619 c 256,7,8
 489 1619 489 1619 515 1643 c 128,-1,9
 541 1667 541 1667 541 1700 c 1,10,-1
 652 1667 l 1,11,12
 641 1598 641 1598 584.5 1551 c 128,-1,13
 528 1504 528 1504 456 1504 c 256,0,1
100 0 m 1,14,-1
 100 1400 l 1,15,-1
 810 1400 l 1,16,-1
 810 1170 l 1,17,-1
 350 1170 l 1,18,-1
 350 820 l 1,19,-1
 730 820 l 1,20,-1
 730 580 l 1,21,-1
 350 580 l 1,22,-1
 350 240 l 1,23,-1
 812 240 l 1,24,-1
 812 0 l 1,25,-1
 100 0 l 1,14,-1
EndSplineSet
EndChar

StartChar: ecaron
Encoding: 283 283 174
GlifName: ecaron
Width: 912
GlyphClass: 2
Flags: W
LayerCount: 2
Fore
SplineSet
369 1500 m 1,0,-1
 185 1800 l 1,1,-1
 340 1800 l 1,2,-1
 456 1618 l 1,3,-1
 571 1800 l 1,4,-1
 726 1800 l 1,5,-1
 542 1500 l 1,6,-1
 369 1500 l 1,0,-1
100 0 m 1,7,-1
 100 1400 l 1,8,-1
 810 1400 l 1,9,-1
 810 1170 l 1,10,-1
 350 1170 l 1,11,-1
 350 820 l 1,12,-1
 730 820 l 1,13,-1
 730 580 l 1,14,-1
 350 580 l 1,15,-1
 350 240 l 1,16,-1
 812 240 l 1,17,-1
 812 0 l 1,18,-1
 100 0 l 1,7,-1
EndSplineSet
EndChar

StartChar: ecircumflex
Encoding: 234 234 175
GlifName: ecircumflex
Width: 912
GlyphClass: 2
Flags: W
LayerCount: 2
Fore
SplineSet
369 1800 m 1,0,-1
 542 1800 l 1,1,-1
 726 1500 l 1,2,-1
 571 1500 l 1,3,-1
 456 1682 l 1,4,-1
 340 1500 l 1,5,-1
 185 1500 l 1,6,-1
 369 1800 l 1,0,-1
100 0 m 1,7,-1
 100 1400 l 1,8,-1
 810 1400 l 1,9,-1
 810 1170 l 1,10,-1
 350 1170 l 1,11,-1
 350 820 l 1,12,-1
 730 820 l 1,13,-1
 730 580 l 1,14,-1
 350 580 l 1,15,-1
 350 240 l 1,16,-1
 812 240 l 1,17,-1
 812 0 l 1,18,-1
 100 0 l 1,7,-1
EndSplineSet
EndChar

StartChar: edieresis
Encoding: 235 235 176
GlifName: edieresis
Width: 912
GlyphClass: 2
Flags: W
LayerCount: 2
Fore
SplineSet
261 1700 m 1,0,-1
 411 1700 l 1,1,-1
 411 1550 l 1,2,-1
 261 1550 l 1,3,-1
 261 1700 l 1,0,-1
501 1700 m 1,4,-1
 651 1700 l 1,5,-1
 651 1550 l 1,6,-1
 501 1550 l 1,7,-1
 501 1700 l 1,4,-1
100 0 m 1,8,-1
 100 1400 l 1,9,-1
 810 1400 l 1,10,-1
 810 1170 l 1,11,-1
 350 1170 l 1,12,-1
 350 820 l 1,13,-1
 730 820 l 1,14,-1
 730 580 l 1,15,-1
 350 580 l 1,16,-1
 350 240 l 1,17,-1
 812 240 l 1,18,-1
 812 0 l 1,19,-1
 100 0 l 1,8,-1
EndSplineSet
EndChar

StartChar: edotaccent
Encoding: 279 279 177
GlifName: edotaccent
Width: 912
GlyphClass: 2
Flags: W
LayerCount: 2
Fore
SplineSet
380 1700 m 1,0,-1
 530 1700 l 1,1,-1
 530 1550 l 1,2,-1
 380 1550 l 1,3,-1
 380 1700 l 1,0,-1
100 0 m 1,4,-1
 100 1400 l 1,5,-1
 810 1400 l 1,6,-1
 810 1170 l 1,7,-1
 350 1170 l 1,8,-1
 350 820 l 1,9,-1
 730 820 l 1,10,-1
 730 580 l 1,11,-1
 350 580 l 1,12,-1
 350 240 l 1,13,-1
 812 240 l 1,14,-1
 812 0 l 1,15,-1
 100 0 l 1,4,-1
EndSplineSet
EndChar

StartChar: egrave
Encoding: 232 232 178
GlifName: egrave
Width: 912
GlyphClass: 2
Flags: W
LayerCount: 2
Fore
SplineSet
430 1490 m 1,0,-1
 230 1750 l 1,1,-1
 450 1750 l 1,2,-1
 590 1490 l 1,3,-1
 430 1490 l 1,0,-1
100 0 m 1,4,-1
 100 1400 l 1,5,-1
 810 1400 l 1,6,-1
 810 1170 l 1,7,-1
 350 1170 l 1,8,-1
 350 820 l 1,9,-1
 730 820 l 1,10,-1
 730 580 l 1,11,-1
 350 580 l 1,12,-1
 350 240 l 1,13,-1
 812 240 l 1,14,-1
 812 0 l 1,15,-1
 100 0 l 1,4,-1
EndSplineSet
EndChar

StartChar: eight
Encoding: 56 56 179
GlifName: eight
Width: 930
GlyphClass: 2
Flags: W
LayerCount: 2
Fore
SplineSet
726 710 m 1,0,1
 773 693 773 693 801.5 651.5 c 128,-1,2
 830 610 830 610 830 560 c 2,3,-1
 830 160 l 2,4,5
 830 94 830 94 783 47 c 128,-1,6
 736 0 736 0 670 0 c 2,7,-1
 260 0 l 2,8,9
 194 0 194 0 147 47 c 128,-1,10
 100 94 100 94 100 160 c 2,11,-1
 100 560 l 2,12,13
 100 610 100 610 128.5 651.5 c 128,-1,14
 157 693 157 693 204 710 c 1,15,16
 157 727 157 727 128.5 768.5 c 128,-1,17
 100 810 100 810 100 860 c 2,18,-1
 100 1240 l 2,19,20
 100 1306 100 1306 147 1353 c 128,-1,21
 194 1400 194 1400 260 1400 c 2,22,-1
 670 1400 l 2,23,24
 736 1400 736 1400 783 1353 c 128,-1,25
 830 1306 830 1306 830 1240 c 2,26,-1
 830 860 l 2,27,28
 830 810 830 810 801.5 768.5 c 128,-1,29
 773 727 773 727 726 710 c 1,0,1
392 820 m 2,30,-1
 538 820 l 2,31,32
 564 820 564 820 582 838.5 c 128,-1,33
 600 857 600 857 600 883 c 2,34,-1
 600 1117 l 2,35,36
 600 1143 600 1143 582 1161.5 c 128,-1,37
 564 1180 564 1180 538 1180 c 2,38,-1
 393 1180 l 2,39,40
 367 1180 367 1180 348.5 1161.5 c 128,-1,41
 330 1143 330 1143 330 1117 c 2,42,-1
 330 883 l 2,43,44
 330 857 330 857 348 838.5 c 128,-1,45
 366 820 366 820 392 820 c 2,30,-1
393 230 m 2,46,-1
 538 230 l 2,47,48
 564 230 564 230 582 248.5 c 128,-1,49
 600 267 600 267 600 293 c 2,50,-1
 600 537 l 2,51,52
 600 563 600 563 582 581.5 c 128,-1,53
 564 600 564 600 538 600 c 2,54,-1
 392 600 l 2,55,56
 366 600 366 600 348 581.5 c 128,-1,57
 330 563 330 563 330 537 c 2,58,-1
 330 293 l 2,59,60
 330 267 330 267 348.5 248.5 c 128,-1,61
 367 230 367 230 393 230 c 2,46,-1
EndSplineSet
EndChar

StartChar: ellipsis
Encoding: 8230 8230 180
GlifName: ellipsis
Width: 990
GlyphClass: 2
Flags: W
LayerCount: 2
Fore
SplineSet
100 230 m 1,0,-1
 330 230 l 1,1,-1
 330 0 l 1,2,-1
 100 0 l 1,3,-1
 100 230 l 1,0,-1
380 230 m 1,4,-1
 610 230 l 1,5,-1
 610 0 l 1,6,-1
 380 0 l 1,7,-1
 380 230 l 1,4,-1
660 230 m 1,8,-1
 890 230 l 1,9,-1
 890 0 l 1,10,-1
 660 0 l 1,11,-1
 660 230 l 1,8,-1
EndSplineSet
EndChar

StartChar: emacron
Encoding: 275 275 181
GlifName: emacron
Width: 912
GlyphClass: 2
Flags: W
LayerCount: 2
Fore
SplineSet
236 1640 m 1,0,-1
 676 1640 l 1,1,-1
 676 1530 l 1,2,-1
 236 1530 l 1,3,-1
 236 1640 l 1,0,-1
100 0 m 1,4,-1
 100 1400 l 1,5,-1
 810 1400 l 1,6,-1
 810 1170 l 1,7,-1
 350 1170 l 1,8,-1
 350 820 l 1,9,-1
 730 820 l 1,10,-1
 730 580 l 1,11,-1
 350 580 l 1,12,-1
 350 240 l 1,13,-1
 812 240 l 1,14,-1
 812 0 l 1,15,-1
 100 0 l 1,4,-1
EndSplineSet
EndChar

StartChar: emdash
Encoding: 8212 8212 182
GlifName: emdash
Width: 1600
GlyphClass: 2
Flags: W
LayerCount: 2
Fore
SplineSet
100 810 m 1,0,-1
 1500 810 l 1,1,-1
 1500 590 l 1,2,-1
 100 590 l 1,3,-1
 100 810 l 1,0,-1
EndSplineSet
EndChar

StartChar: endash
Encoding: 8211 8211 183
GlifName: endash
Width: 1200
GlyphClass: 2
Flags: W
LayerCount: 2
Fore
SplineSet
100 800 m 1,0,-1
 1100 800 l 1,1,-1
 1100 600 l 1,2,-1
 100 600 l 1,3,-1
 100 800 l 1,0,-1
EndSplineSet
EndChar

StartChar: eng
Encoding: 331 331 184
GlifName: eng
Width: 980
GlyphClass: 2
Flags: W
LayerCount: 2
Fore
SplineSet
630 1400 m 1,0,-1
 880 1400 l 1,1,-1
 880 -50 l 2,2,3
 880 -119 880 -119 846.5 -175.5 c 128,-1,4
 813 -232 813 -232 756 -266 c 128,-1,5
 699 -300 699 -300 630 -300 c 2,6,-1
 500 -300 l 1,7,-1
 500 -70 l 1,8,-1
 628 -70 l 2,9,10
 649 -70 649 -70 649 -50 c 1,11,-1
 350 733 l 1,12,-1
 350 0 l 1,13,-1
 100 0 l 1,14,-1
 100 1400 l 1,15,-1
 350 1400 l 1,16,-1
 630 630 l 1,17,-1
 630 1400 l 1,0,-1
EndSplineSet
EndChar

StartChar: eogonek
Encoding: 281 281 185
GlifName: eogonek
Width: 912
GlyphClass: 2
Flags: W
LayerCount: 2
Fore
SplineSet
542 0 m 1,0,-1
 392 -153 l 1,1,-1
 392 -167 l 2,2,3
 392 -193 392 -193 410 -211.5 c 128,-1,4
 428 -230 428 -230 454 -230 c 2,5,-1
 589 -230 l 2,6,7
 615 -230 615 -230 633.5 -211.5 c 128,-1,8
 652 -193 652 -193 652 -167 c 2,9,-1
 652 -155 l 1,10,-1
 812 -155 l 1,11,-1
 812 -230 l 2,12,13
 812 -296 812 -296 765 -343 c 128,-1,14
 718 -390 718 -390 652 -390 c 2,15,-1
 392 -390 l 2,16,17
 326 -390 326 -390 279 -343 c 128,-1,18
 232 -296 232 -296 232 -230 c 2,19,-1
 232 -80 l 1,20,-1
 312 0 l 1,21,-1
 100 0 l 1,22,-1
 100 1400 l 1,23,-1
 810 1400 l 1,24,-1
 810 1170 l 1,25,-1
 350 1170 l 1,26,-1
 350 820 l 1,27,-1
 730 820 l 1,28,-1
 730 580 l 1,29,-1
 350 580 l 1,30,-1
 350 240 l 1,31,-1
 812 240 l 1,32,-1
 812 0 l 1,33,-1
 542 0 l 1,0,-1
EndSplineSet
EndChar

StartChar: equal
Encoding: 61 61 186
GlifName: equal
Width: 1000
GlyphClass: 2
Flags: W
LayerCount: 2
Fore
SplineSet
100 1010 m 1,0,-1
 900 1010 l 1,1,-1
 900 790 l 1,2,-1
 100 790 l 1,3,-1
 100 1010 l 1,0,-1
100 610 m 1,4,-1
 900 610 l 1,5,-1
 900 390 l 1,6,-1
 100 390 l 1,7,-1
 100 610 l 1,4,-1
EndSplineSet
EndChar

StartChar: eth
Encoding: 240 240 187
GlifName: eth
Width: 890
GlyphClass: 2
Flags: W
LayerCount: 2
Fore
SplineSet
100 0 m 1,0,-1
 100 450 l 1,1,-1
 40 450 l 1,2,-1
 40 560 l 1,3,-1
 100 560 l 1,4,-1
 100 1400 l 1,5,-1
 630 1400 l 2,6,7
 696 1400 696 1400 743 1353 c 128,-1,8
 790 1306 790 1306 790 1240 c 2,9,-1
 790 160 l 2,10,11
 790 94 790 94 743 47 c 128,-1,12
 696 0 696 0 630 0 c 2,13,-1
 100 0 l 1,0,-1
350 450 m 1,14,-1
 350 230 l 1,15,-1
 529 230 l 2,16,17
 550 230 550 230 550 251 c 2,18,-1
 550 1149 l 2,19,20
 550 1170 550 1170 529 1170 c 2,21,-1
 350 1170 l 1,22,-1
 350 560 l 1,23,-1
 480 560 l 1,24,-1
 480 450 l 1,25,-1
 350 450 l 1,14,-1
EndSplineSet
EndChar

StartChar: exclam
Encoding: 33 33 188
GlifName: exclam
Width: 450
GlyphClass: 2
Flags: W
LayerCount: 2
Fore
SplineSet
330 390 m 1,0,-1
 120 390 l 1,1,-1
 100 880 l 1,2,-1
 100 1400 l 1,3,-1
 350 1400 l 1,4,-1
 350 880 l 1,5,-1
 330 390 l 1,0,-1
110 230 m 1,6,-1
 340 230 l 1,7,-1
 340 0 l 1,8,-1
 110 0 l 1,9,-1
 110 230 l 1,6,-1
EndSplineSet
EndChar

StartChar: exclamdbl
Encoding: 8252 8252 189
GlifName: exclamdbl
Width: 750
GlyphClass: 2
Flags: W
LayerCount: 2
Fore
SplineSet
100 880 m 1,0,-1
 100 1400 l 1,1,-1
 350 1400 l 1,2,-1
 350 880 l 1,3,-1
 330 390 l 1,4,-1
 120 390 l 1,5,-1
 100 880 l 1,0,-1
400 1400 m 1,6,-1
 650 1400 l 1,7,-1
 650 880 l 1,8,-1
 630 390 l 1,9,-1
 420 390 l 1,10,-1
 400 880 l 1,11,-1
 400 1400 l 1,6,-1
110 230 m 1,12,-1
 340 230 l 1,13,-1
 340 0 l 1,14,-1
 110 0 l 1,15,-1
 110 230 l 1,12,-1
410 230 m 1,16,-1
 640 230 l 1,17,-1
 640 0 l 1,18,-1
 410 0 l 1,19,-1
 410 230 l 1,16,-1
EndSplineSet
EndChar

StartChar: exclamdown
Encoding: 161 161 190
GlifName: exclamdown
Width: 450
GlyphClass: 2
Flags: W
LayerCount: 2
Fore
SplineSet
110 1170 m 1,0,-1
 110 1400 l 1,1,-1
 340 1400 l 1,2,-1
 340 1170 l 1,3,-1
 110 1170 l 1,0,-1
330 1010 m 1,4,-1
 350 520 l 1,5,-1
 350 0 l 1,6,-1
 100 0 l 1,7,-1
 100 520 l 1,8,-1
 120 1010 l 1,9,-1
 330 1010 l 1,4,-1
EndSplineSet
EndChar

StartChar: f
Encoding: 102 102 191
GlifName: f
Width: 860
GlyphClass: 2
Flags: W
LayerCount: 2
Fore
SplineSet
350 0 m 1,0,-1
 100 0 l 1,1,-1
 100 1400 l 1,2,-1
 810 1400 l 1,3,-1
 810 1170 l 1,4,-1
 350 1170 l 1,5,-1
 350 820 l 1,6,-1
 730 820 l 1,7,-1
 730 580 l 1,8,-1
 350 580 l 1,9,-1
 350 0 l 1,0,-1
EndSplineSet
EndChar

StartChar: figuredash
Encoding: 8210 8210 192
GlifName: figuredash
Width: 1200
GlyphClass: 2
Flags: W
LayerCount: 2
Fore
SplineSet
100 800 m 1,0,-1
 1100 800 l 1,1,-1
 1100 600 l 1,2,-1
 100 600 l 1,3,-1
 100 800 l 1,0,-1
EndSplineSet
EndChar

StartChar: five
Encoding: 53 53 193
GlifName: five
Width: 930
GlyphClass: 2
Flags: W
LayerCount: 2
Fore
SplineSet
670 0 m 2,0,-1
 260 0 l 2,1,2
 194 0 194 0 147 47 c 128,-1,3
 100 94 100 94 100 160 c 2,4,-1
 100 410 l 1,5,-1
 330 410 l 1,6,-1
 330 303 l 2,7,8
 330 277 330 277 348.5 258.5 c 128,-1,9
 367 240 367 240 393 240 c 2,10,-1
 538 240 l 2,11,12
 564 240 564 240 582 258.5 c 128,-1,13
 600 277 600 277 600 303 c 2,14,-1
 600 547 l 2,15,16
 600 573 600 573 582 591.5 c 128,-1,17
 564 610 564 610 538 610 c 2,18,-1
 260 610 l 2,19,20
 194 610 194 610 147 657 c 128,-1,21
 100 704 100 704 100 770 c 2,22,-1
 100 1400 l 1,23,-1
 820 1400 l 1,24,-1
 820 1170 l 1,25,-1
 330 1170 l 1,26,-1
 330 903 l 2,27,28
 330 877 330 877 348 858.5 c 128,-1,29
 366 840 366 840 392 840 c 2,30,-1
 670 840 l 2,31,32
 736 840 736 840 783 793 c 128,-1,33
 830 746 830 746 830 680 c 2,34,-1
 830 160 l 2,35,36
 830 94 830 94 783 47 c 128,-1,37
 736 0 736 0 670 0 c 2,0,-1
EndSplineSet
EndChar

StartChar: four
Encoding: 52 52 194
GlifName: four
Width: 930
GlyphClass: 2
Flags: W
LayerCount: 2
Fore
SplineSet
550 260 m 1,0,-1
 100 260 l 1,1,-1
 100 450 l 1,2,-1
 510 1400 l 1,3,-1
 780 1400 l 1,4,-1
 780 480 l 1,5,-1
 830 480 l 1,6,-1
 830 260 l 1,7,-1
 780 260 l 1,8,-1
 780 0 l 1,9,-1
 550 0 l 1,10,-1
 550 260 l 1,0,-1
550 480 m 1,11,-1
 550 1002 l 1,12,-1
 327 480 l 1,13,-1
 550 480 l 1,11,-1
EndSplineSet
EndChar

StartChar: fraction
Encoding: 8260 8260 195
GlifName: fraction
Width: 900
GlyphClass: 2
Flags: W
LayerCount: 2
Fore
SplineSet
50 0 m 1,0,-1
 650 1400 l 1,1,-1
 850 1400 l 1,2,-1
 250 0 l 1,3,-1
 50 0 l 1,0,-1
EndSplineSet
EndChar

StartChar: g
Encoding: 103 103 196
GlifName: g
Width: 932
GlyphClass: 2
Flags: W
LayerCount: 2
Fore
SplineSet
100 145 m 2,0,-1
 100 1255 l 2,1,2
 100 1315 100 1315 142.5 1357.5 c 128,-1,3
 185 1400 185 1400 245 1400 c 2,4,-1
 685 1400 l 2,5,6
 745 1400 745 1400 787.5 1357.5 c 128,-1,7
 830 1315 830 1315 830 1255 c 2,8,-1
 830 955 l 1,9,-1
 600 955 l 1,10,-1
 600 1152 l 1,11,-1
 350 1152 l 1,12,-1
 350 248 l 1,13,-1
 537 248 l 2,14,15
 563 248 563 248 581.5 266.5 c 128,-1,16
 600 285 600 285 600 311 c 2,17,-1
 600 470 l 1,18,-1
 480 470 l 1,19,-1
 480 700 l 1,20,-1
 830 700 l 1,21,-1
 830 144 l 2,22,23
 830 57 830 57 904 18 c 0,24,25
 912 13 912 13 912 8 c 0,26,27
 912 0 912 0 904 0 c 2,28,-1
 826 0 l 2,29,30
 766 0 766 0 723.5 43.5 c 128,-1,31
 681 87 681 87 680 148 c 1,32,-1
 678 148 l 1,33,-1
 678 140 l 2,34,35
 678 82 678 82 636.5 41 c 128,-1,36
 595 0 595 0 536 0 c 2,37,-1
 245 0 l 2,38,39
 185 0 185 0 142.5 42.5 c 128,-1,40
 100 85 100 85 100 145 c 2,0,-1
EndSplineSet
EndChar

StartChar: gbreve
Encoding: 287 287 197
GlifName: gbreve
Width: 932
GlyphClass: 2
Flags: W
LayerCount: 2
Fore
SplineSet
466 1504 m 256,0,1
 394 1504 394 1504 337.5 1551 c 128,-1,2
 281 1598 281 1598 270 1667 c 1,3,-1
 381 1700 l 1,4,5
 381 1667 381 1667 407 1643 c 128,-1,6
 433 1619 433 1619 466 1619 c 256,7,8
 499 1619 499 1619 525 1643 c 128,-1,9
 551 1667 551 1667 551 1700 c 1,10,-1
 662 1667 l 1,11,12
 651 1598 651 1598 594.5 1551 c 128,-1,13
 538 1504 538 1504 466 1504 c 256,0,1
100 145 m 2,14,-1
 100 1255 l 2,15,16
 100 1315 100 1315 142.5 1357.5 c 128,-1,17
 185 1400 185 1400 245 1400 c 2,18,-1
 685 1400 l 2,19,20
 745 1400 745 1400 787.5 1357.5 c 128,-1,21
 830 1315 830 1315 830 1255 c 2,22,-1
 830 955 l 1,23,-1
 600 955 l 1,24,-1
 600 1152 l 1,25,-1
 350 1152 l 1,26,-1
 350 248 l 1,27,-1
 537 248 l 2,28,29
 563 248 563 248 581.5 266.5 c 128,-1,30
 600 285 600 285 600 311 c 2,31,-1
 600 470 l 1,32,-1
 480 470 l 1,33,-1
 480 700 l 1,34,-1
 830 700 l 1,35,-1
 830 144 l 2,36,37
 830 57 830 57 904 18 c 0,38,39
 912 13 912 13 912 8 c 0,40,41
 912 0 912 0 904 0 c 2,42,-1
 826 0 l 2,43,44
 766 0 766 0 723.5 43.5 c 128,-1,45
 681 87 681 87 680 148 c 1,46,-1
 678 148 l 1,47,-1
 678 140 l 2,48,49
 678 82 678 82 636.5 41 c 128,-1,50
 595 0 595 0 536 0 c 2,51,-1
 245 0 l 2,52,53
 185 0 185 0 142.5 42.5 c 128,-1,54
 100 85 100 85 100 145 c 2,14,-1
EndSplineSet
EndChar

StartChar: gcircumflex
Encoding: 285 285 198
GlifName: gcircumflex
Width: 932
GlyphClass: 2
Flags: W
LayerCount: 2
Fore
SplineSet
374 1800 m 1,0,-1
 547 1800 l 1,1,-1
 731 1500 l 1,2,-1
 576 1500 l 1,3,-1
 461 1682 l 1,4,-1
 345 1500 l 1,5,-1
 190 1500 l 1,6,-1
 374 1800 l 1,0,-1
100 145 m 2,7,-1
 100 1255 l 2,8,9
 100 1315 100 1315 142.5 1357.5 c 128,-1,10
 185 1400 185 1400 245 1400 c 2,11,-1
 685 1400 l 2,12,13
 745 1400 745 1400 787.5 1357.5 c 128,-1,14
 830 1315 830 1315 830 1255 c 2,15,-1
 830 955 l 1,16,-1
 600 955 l 1,17,-1
 600 1152 l 1,18,-1
 350 1152 l 1,19,-1
 350 248 l 1,20,-1
 537 248 l 2,21,22
 563 248 563 248 581.5 266.5 c 128,-1,23
 600 285 600 285 600 311 c 2,24,-1
 600 470 l 1,25,-1
 480 470 l 1,26,-1
 480 700 l 1,27,-1
 830 700 l 1,28,-1
 830 144 l 2,29,30
 830 57 830 57 904 18 c 0,31,32
 912 13 912 13 912 8 c 0,33,34
 912 0 912 0 904 0 c 2,35,-1
 826 0 l 2,36,37
 766 0 766 0 723.5 43.5 c 128,-1,38
 681 87 681 87 680 148 c 1,39,-1
 678 148 l 1,40,-1
 678 140 l 2,41,42
 678 82 678 82 636.5 41 c 128,-1,43
 595 0 595 0 536 0 c 2,44,-1
 245 0 l 2,45,46
 185 0 185 0 142.5 42.5 c 128,-1,47
 100 85 100 85 100 145 c 2,7,-1
EndSplineSet
EndChar

StartChar: gdotaccent
Encoding: 289 289 199
GlifName: gdotaccent
Width: 932
GlyphClass: 2
Flags: W
LayerCount: 2
Fore
SplineSet
380 1700 m 1,0,-1
 530 1700 l 1,1,-1
 530 1550 l 1,2,-1
 380 1550 l 1,3,-1
 380 1700 l 1,0,-1
100 145 m 2,4,-1
 100 1255 l 2,5,6
 100 1315 100 1315 142.5 1357.5 c 128,-1,7
 185 1400 185 1400 245 1400 c 2,8,-1
 685 1400 l 2,9,10
 745 1400 745 1400 787.5 1357.5 c 128,-1,11
 830 1315 830 1315 830 1255 c 2,12,-1
 830 955 l 1,13,-1
 600 955 l 1,14,-1
 600 1152 l 1,15,-1
 350 1152 l 1,16,-1
 350 248 l 1,17,-1
 537 248 l 2,18,19
 563 248 563 248 581.5 266.5 c 128,-1,20
 600 285 600 285 600 311 c 2,21,-1
 600 470 l 1,22,-1
 480 470 l 1,23,-1
 480 700 l 1,24,-1
 830 700 l 1,25,-1
 830 144 l 2,26,27
 830 57 830 57 904 18 c 0,28,29
 912 13 912 13 912 8 c 0,30,31
 912 0 912 0 904 0 c 2,32,-1
 826 0 l 2,33,34
 766 0 766 0 723.5 43.5 c 128,-1,35
 681 87 681 87 680 148 c 1,36,-1
 678 148 l 1,37,-1
 678 140 l 2,38,39
 678 82 678 82 636.5 41 c 128,-1,40
 595 0 595 0 536 0 c 2,41,-1
 245 0 l 2,42,43
 185 0 185 0 142.5 42.5 c 128,-1,44
 100 85 100 85 100 145 c 2,4,-1
EndSplineSet
EndChar

StartChar: germandbls
Encoding: 223 223 200
GlifName: germandbls
Width: 930
GlyphClass: 2
Flags: W
LayerCount: 2
Fore
SplineSet
830 1240 m 2,0,-1
 830 860 l 2,1,2
 830 808 830 808 800.5 767.5 c 128,-1,3
 771 727 771 727 726 710 c 1,4,5
 773 693 773 693 801.5 651.5 c 128,-1,6
 830 610 830 610 830 560 c 2,7,-1
 830 144 l 2,8,9
 830 84 830 84 788 42 c 128,-1,10
 746 0 746 0 686 0 c 2,11,-1
 525 0 l 2,12,13
 517 0 517 0 517 8 c 0,14,15
 517 13 517 13 525 18 c 0,16,17
 600 59 600 59 600 144 c 2,18,-1
 600 537 l 2,19,20
 600 563 600 563 582 581.5 c 128,-1,21
 564 600 564 600 538 600 c 2,22,-1
 430 600 l 1,23,-1
 430 820 l 1,24,-1
 538 820 l 2,25,26
 564 820 564 820 582 838.5 c 128,-1,27
 600 857 600 857 600 883 c 2,28,-1
 600 1107 l 2,29,30
 600 1133 600 1133 582 1151.5 c 128,-1,31
 564 1170 564 1170 538 1170 c 2,32,-1
 383 1170 l 2,33,34
 357 1170 357 1170 338.5 1151.5 c 128,-1,35
 320 1133 320 1133 320 1107 c 2,36,-1
 320 0 l 1,37,-1
 100 0 l 1,38,-1
 100 1240 l 2,39,40
 100 1306 100 1306 147 1353 c 128,-1,41
 194 1400 194 1400 260 1400 c 2,42,-1
 670 1400 l 2,43,44
 736 1400 736 1400 783 1353 c 128,-1,45
 830 1306 830 1306 830 1240 c 2,0,-1
EndSplineSet
EndChar

StartChar: grave
Encoding: 96 96 201
GlifName: grave
Width: 600
GlyphClass: 2
Flags: W
LayerCount: 2
Fore
SplineSet
360 1450 m 1,0,-1
 500 1050 l 1,1,-1
 300 1050 l 1,2,-1
 100 1450 l 1,3,-1
 360 1450 l 1,0,-1
EndSplineSet
EndChar

StartChar: gravecomb
Encoding: 768 768 202
GlifName: gravecomb
Width: 560
GlyphClass: 2
Flags: W
LayerCount: 2
Fore
SplineSet
300 1490 m 1,0,-1
 100 1750 l 1,1,-1
 320 1750 l 1,2,-1
 460 1490 l 1,3,-1
 300 1490 l 1,0,-1
EndSplineSet
EndChar

StartChar: greater
Encoding: 62 62 203
GlifName: greater
Width: 900
GlyphClass: 2
Flags: W
LayerCount: 2
Fore
SplineSet
800 580 m 1,0,-1
 100 230 l 1,1,-1
 100 440 l 1,2,-1
 606 700 l 1,3,-1
 100 960 l 1,4,-1
 100 1170 l 1,5,-1
 800 820 l 1,6,-1
 800 580 l 1,0,-1
EndSplineSet
EndChar

StartChar: guillemotleft
Encoding: 171 171 204
GlifName: guillemotleft
Width: 984
GlyphClass: 2
Flags: W
LayerCount: 2
Fore
SplineSet
301 700 m 1,0,-1
 560 360 l 1,1,-1
 372 360 l 1,2,-1
 100 700 l 1,3,-1
 372 1040 l 1,4,-1
 560 1040 l 1,5,-1
 301 700 l 1,0,-1
884 1040 m 1,6,-1
 625 700 l 1,7,-1
 884 360 l 1,8,-1
 696 360 l 1,9,-1
 424 700 l 1,10,-1
 696 1040 l 1,11,-1
 884 1040 l 1,6,-1
EndSplineSet
EndChar

StartChar: guillemotright
Encoding: 187 187 205
GlifName: guillemotright
Width: 984
GlyphClass: 2
Flags: W
LayerCount: 2
Fore
SplineSet
612 1040 m 1,0,-1
 884 700 l 1,1,-1
 612 360 l 1,2,-1
 424 360 l 1,3,-1
 683 700 l 1,4,-1
 424 1040 l 1,5,-1
 612 1040 l 1,0,-1
288 360 m 1,6,-1
 100 360 l 1,7,-1
 359 700 l 1,8,-1
 100 1040 l 1,9,-1
 288 1040 l 1,10,-1
 560 700 l 1,11,-1
 288 360 l 1,6,-1
EndSplineSet
EndChar

StartChar: guilsinglleft
Encoding: 8249 8249 206
GlifName: guilsinglleft
Width: 610
GlyphClass: 2
Flags: W
LayerCount: 2
Fore
SplineSet
251 700 m 1,0,-1
 510 360 l 1,1,-1
 322 360 l 1,2,-1
 50 700 l 1,3,-1
 322 1040 l 1,4,-1
 510 1040 l 1,5,-1
 251 700 l 1,0,-1
EndSplineSet
EndChar

StartChar: guilsinglright
Encoding: 8250 8250 207
GlifName: guilsinglright
Width: 610
GlyphClass: 2
Flags: W
LayerCount: 2
Fore
SplineSet
309 700 m 1,0,-1
 50 1040 l 1,1,-1
 238 1040 l 1,2,-1
 510 700 l 1,3,-1
 238 360 l 1,4,-1
 50 360 l 1,5,-1
 309 700 l 1,0,-1
EndSplineSet
EndChar

StartChar: h
Encoding: 104 104 208
GlifName: h
Width: 970
GlyphClass: 2
Flags: W
LayerCount: 2
Fore
SplineSet
350 0 m 1,0,-1
 100 0 l 1,1,-1
 100 1400 l 1,2,-1
 350 1400 l 1,3,-1
 350 810 l 1,4,-1
 620 810 l 1,5,-1
 620 1400 l 1,6,-1
 870 1400 l 1,7,-1
 870 0 l 1,8,-1
 620 0 l 1,9,-1
 620 570 l 1,10,-1
 350 570 l 1,11,-1
 350 0 l 1,0,-1
EndSplineSet
EndChar

StartChar: hbar
Encoding: 295 295 209
GlifName: hbar
Width: 990
GlyphClass: 2
Flags: W
LayerCount: 2
Fore
SplineSet
350 0 m 1,0,-1
 100 0 l 1,1,-1
 100 940 l 1,2,-1
 20 940 l 1,3,-1
 20 1050 l 1,4,-1
 100 1050 l 1,5,-1
 100 1400 l 1,6,-1
 350 1400 l 1,7,-1
 350 1050 l 1,8,-1
 620 1050 l 1,9,-1
 620 1400 l 1,10,-1
 870 1400 l 1,11,-1
 870 1050 l 1,12,-1
 970 1050 l 1,13,-1
 970 940 l 1,14,-1
 870 940 l 1,15,-1
 870 0 l 1,16,-1
 620 0 l 1,17,-1
 620 570 l 1,18,-1
 350 570 l 1,19,-1
 350 0 l 1,0,-1
620 940 m 1,20,-1
 350 940 l 1,21,-1
 350 810 l 1,22,-1
 620 810 l 1,23,-1
 620 940 l 1,20,-1
EndSplineSet
EndChar

StartChar: hcircumflex
Encoding: 293 293 210
GlifName: hcircumflex
Width: 970
GlyphClass: 2
Flags: W
LayerCount: 2
Fore
SplineSet
399 1800 m 1,0,-1
 572 1800 l 1,1,-1
 756 1500 l 1,2,-1
 601 1500 l 1,3,-1
 486 1682 l 1,4,-1
 370 1500 l 1,5,-1
 215 1500 l 1,6,-1
 399 1800 l 1,0,-1
350 0 m 1,7,-1
 100 0 l 1,8,-1
 100 1400 l 1,9,-1
 350 1400 l 1,10,-1
 350 810 l 1,11,-1
 620 810 l 1,12,-1
 620 1400 l 1,13,-1
 870 1400 l 1,14,-1
 870 0 l 1,15,-1
 620 0 l 1,16,-1
 620 570 l 1,17,-1
 350 570 l 1,18,-1
 350 0 l 1,7,-1
EndSplineSet
EndChar

StartChar: hyphen
Encoding: 45 45 211
GlifName: hyphen
Width: 1000
GlyphClass: 2
Flags: W
LayerCount: 2
Fore
SplineSet
100 810 m 1,0,-1
 900 810 l 1,1,-1
 900 590 l 1,2,-1
 100 590 l 1,3,-1
 100 810 l 1,0,-1
EndSplineSet
EndChar

StartChar: i
Encoding: 105 105 212
GlifName: i
Width: 450
GlyphClass: 2
Flags: W
LayerCount: 2
Fore
SplineSet
100 1400 m 1,0,-1
 350 1400 l 1,1,-1
 350 0 l 1,2,-1
 100 0 l 1,3,-1
 100 1400 l 1,0,-1
EndSplineSet
EndChar

StartChar: iacute
Encoding: 237 237 213
GlifName: iacute
Width: 560
GlyphClass: 2
Flags: W
LayerCount: 2
Fore
SplineSet
460 1750 m 1,0,-1
 260 1490 l 1,1,-1
 100 1490 l 1,2,-1
 240 1750 l 1,3,-1
 460 1750 l 1,0,-1
100 1400 m 1,4,-1
 350 1400 l 1,5,-1
 350 0 l 1,6,-1
 100 0 l 1,7,-1
 100 1400 l 1,4,-1
EndSplineSet
EndChar

StartChar: ibreve
Encoding: 301 301 214
GlifName: ibreve
Width: 592
GlyphClass: 2
Flags: W
LayerCount: 2
Fore
SplineSet
296 1504 m 256,0,1
 224 1504 224 1504 167.5 1551 c 128,-1,2
 111 1598 111 1598 100 1667 c 1,3,-1
 211 1700 l 1,4,5
 211 1667 211 1667 237 1643 c 128,-1,6
 263 1619 263 1619 296 1619 c 256,7,8
 329 1619 329 1619 355 1643 c 128,-1,9
 381 1667 381 1667 381 1700 c 1,10,-1
 492 1667 l 1,11,12
 481 1598 481 1598 424.5 1551 c 128,-1,13
 368 1504 368 1504 296 1504 c 256,0,1
170 1400 m 1,14,-1
 420 1400 l 1,15,-1
 420 0 l 1,16,-1
 170 0 l 1,17,-1
 170 1400 l 1,14,-1
EndSplineSet
EndChar

StartChar: icircumflex
Encoding: 238 238 215
GlifName: icircumflex
Width: 596
GlyphClass: 2
Flags: W
LayerCount: 2
Fore
SplineSet
139 1800 m 1,0,-1
 312 1800 l 1,1,-1
 496 1500 l 1,2,-1
 341 1500 l 1,3,-1
 226 1682 l 1,4,-1
 110 1500 l 1,5,-1
 -45 1500 l 1,6,-1
 139 1800 l 1,0,-1
100 1400 m 1,7,-1
 350 1400 l 1,8,-1
 350 0 l 1,9,-1
 100 0 l 1,10,-1
 100 1400 l 1,7,-1
EndSplineSet
EndChar

StartChar: idieresis
Encoding: 239 239 216
GlifName: idieresis
Width: 590
GlyphClass: 2
Flags: W
LayerCount: 2
Fore
SplineSet
100 1700 m 1,0,-1
 250 1700 l 1,1,-1
 250 1550 l 1,2,-1
 100 1550 l 1,3,-1
 100 1700 l 1,0,-1
340 1700 m 1,4,-1
 490 1700 l 1,5,-1
 490 1550 l 1,6,-1
 340 1550 l 1,7,-1
 340 1700 l 1,4,-1
170 1400 m 1,8,-1
 420 1400 l 1,9,-1
 420 0 l 1,10,-1
 170 0 l 1,11,-1
 170 1400 l 1,8,-1
EndSplineSet
EndChar

StartChar: igrave
Encoding: 236 236 217
GlifName: igrave
Width: 450
GlyphClass: 2
Flags: W
LayerCount: 2
Fore
SplineSet
190 1490 m 1,0,-1
 -10 1750 l 1,1,-1
 210 1750 l 1,2,-1
 350 1490 l 1,3,-1
 190 1490 l 1,0,-1
100 1400 m 1,4,-1
 350 1400 l 1,5,-1
 350 0 l 1,6,-1
 100 0 l 1,7,-1
 100 1400 l 1,4,-1
EndSplineSet
EndChar

StartChar: ij
Encoding: 307 307 218
GlifName: ij
Width: 910
GlyphClass: 2
Flags: W
LayerCount: 2
Fore
SplineSet
100 1400 m 1,0,-1
 350 1400 l 1,1,-1
 350 0 l 1,2,-1
 100 0 l 1,3,-1
 100 1400 l 1,0,-1
100 -255 m 2,4,-1
 100 -80 l 1,5,-1
 350 -80 l 1,6,-1
 350 -140 l 1,7,-1
 560 -140 l 1,8,-1
 560 1400 l 1,9,-1
 810 1400 l 1,10,-1
 810 -255 l 2,11,12
 810 -315 810 -315 767.5 -357.5 c 128,-1,13
 725 -400 725 -400 665 -400 c 2,14,-1
 245 -400 l 2,15,16
 185 -400 185 -400 142.5 -357.5 c 128,-1,17
 100 -315 100 -315 100 -255 c 2,4,-1
EndSplineSet
EndChar

StartChar: imacron
Encoding: 299 299 219
GlifName: imacron
Width: 645
GlyphClass: 2
Flags: W
LayerCount: 2
Fore
SplineSet
105 1640 m 1,0,-1
 545 1640 l 1,1,-1
 545 1530 l 1,2,-1
 105 1530 l 1,3,-1
 105 1640 l 1,0,-1
200 1400 m 1,4,-1
 450 1400 l 1,5,-1
 450 0 l 1,6,-1
 200 0 l 1,7,-1
 200 1400 l 1,4,-1
EndSplineSet
EndChar

StartChar: iogonek
Encoding: 303 303 220
GlifName: iogonek
Width: 720
GlyphClass: 2
Flags: W
LayerCount: 2
Fore
SplineSet
100 -20 m 1,0,-1
 100 1400 l 1,1,-1
 350 1400 l 1,2,-1
 350 0 l 1,3,-1
 200 -153 l 1,4,-1
 200 -167 l 2,5,6
 200 -193 200 -193 218 -211.5 c 128,-1,7
 236 -230 236 -230 262 -230 c 2,8,-1
 397 -230 l 2,9,10
 423 -230 423 -230 441.5 -211.5 c 128,-1,11
 460 -193 460 -193 460 -167 c 2,12,-1
 460 -155 l 1,13,-1
 620 -155 l 1,14,-1
 620 -230 l 2,15,16
 620 -296 620 -296 573 -343 c 128,-1,17
 526 -390 526 -390 460 -390 c 2,18,-1
 200 -390 l 2,19,20
 134 -390 134 -390 87 -343 c 128,-1,21
 40 -296 40 -296 40 -230 c 2,22,-1
 40 -80 l 1,23,-1
 100 -20 l 1,0,-1
EndSplineSet
EndChar

StartChar: itilde
Encoding: 297 297 221
GlifName: itilde
Width: 702
GlyphClass: 2
Flags: W
LayerCount: 2
Fore
SplineSet
513 1653 m 1,0,-1
 602 1626 l 1,1,2
 592 1571 592 1571 547 1533.5 c 128,-1,3
 502 1496 502 1496 445 1496 c 0,4,5
 396 1496 396 1496 358 1523 c 128,-1,6
 320 1550 320 1550 303 1593 c 1,7,8
 284 1619 284 1619 257 1619 c 0,9,10
 231 1619 231 1619 210 1599.5 c 128,-1,11
 189 1580 189 1580 189 1553 c 1,12,-1
 100 1580 l 1,13,14
 109 1635 109 1635 154 1672.5 c 128,-1,15
 199 1710 199 1710 257 1710 c 0,16,17
 306 1710 306 1710 344 1683.5 c 128,-1,18
 382 1657 382 1657 398 1613 c 1,19,20
 407 1602 407 1602 418 1594.5 c 128,-1,21
 429 1587 429 1587 445 1587 c 0,22,23
 471 1587 471 1587 492 1606.5 c 128,-1,24
 513 1626 513 1626 513 1653 c 1,0,-1
225 1400 m 1,25,-1
 475 1400 l 1,26,-1
 475 0 l 1,27,-1
 225 0 l 1,28,-1
 225 1400 l 1,25,-1
EndSplineSet
EndChar

StartChar: j
Encoding: 106 106 222
GlifName: j
Width: 910
GlyphClass: 2
Flags: W
LayerCount: 2
Fore
SplineSet
100 145 m 2,0,-1
 100 430 l 1,1,-1
 350 430 l 1,2,-1
 350 260 l 1,3,-1
 560 260 l 1,4,-1
 560 1400 l 1,5,-1
 810 1400 l 1,6,-1
 810 145 l 2,7,8
 810 85 810 85 767.5 42.5 c 128,-1,9
 725 0 725 0 665 0 c 2,10,-1
 245 0 l 2,11,12
 185 0 185 0 142.5 42.5 c 128,-1,13
 100 85 100 85 100 145 c 2,0,-1
EndSplineSet
EndChar

StartChar: jcircumflex
Encoding: 309 309 223
GlifName: jcircumflex
Width: 941
GlyphClass: 2
Flags: W
LayerCount: 2
Fore
SplineSet
584 1800 m 1,0,-1
 757 1800 l 1,1,-1
 941 1500 l 1,2,-1
 786 1500 l 1,3,-1
 671 1682 l 1,4,-1
 555 1500 l 1,5,-1
 400 1500 l 1,6,-1
 584 1800 l 1,0,-1
100 145 m 2,7,-1
 100 430 l 1,8,-1
 350 430 l 1,9,-1
 350 260 l 1,10,-1
 560 260 l 1,11,-1
 560 1400 l 1,12,-1
 810 1400 l 1,13,-1
 810 145 l 2,14,15
 810 85 810 85 767.5 42.5 c 128,-1,16
 725 0 725 0 665 0 c 2,17,-1
 245 0 l 2,18,19
 185 0 185 0 142.5 42.5 c 128,-1,20
 100 85 100 85 100 145 c 2,7,-1
EndSplineSet
EndChar

StartChar: k
Encoding: 107 107 224
GlifName: k
Width: 950
GlyphClass: 2
Flags: W
LayerCount: 2
Fore
SplineSet
579 714 m 1,0,-1
 900 0 l 1,1,-1
 640 0 l 1,2,-1
 368 603 l 1,3,-1
 350 603 l 1,4,-1
 350 0 l 1,5,-1
 100 0 l 1,6,-1
 100 1400 l 1,7,-1
 350 1400 l 1,8,-1
 350 813 l 1,9,-1
 367 813 l 1,10,-1
 620 1400 l 1,11,-1
 880 1400 l 1,12,-1
 579 714 l 1,0,-1
EndSplineSet
EndChar

StartChar: kgreenlandic
Encoding: 312 312 225
GlifName: kgreenlandic
Width: 1240
GlyphClass: 2
Flags: W
LayerCount: 2
Fore
SplineSet
1130 990 m 1,0,-1
 1020 990 l 1,1,-1
 960 1220 l 1,2,-1
 960 1450 l 1,3,-1
 1190 1450 l 1,4,-1
 1190 1220 l 1,5,-1
 1130 990 l 1,0,-1
579 714 m 1,6,-1
 900 0 l 1,7,-1
 640 0 l 1,8,-1
 368 603 l 1,9,-1
 350 603 l 1,10,-1
 350 0 l 1,11,-1
 100 0 l 1,12,-1
 100 1400 l 1,13,-1
 350 1400 l 1,14,-1
 350 813 l 1,15,-1
 367 813 l 1,16,-1
 620 1400 l 1,17,-1
 880 1400 l 1,18,-1
 579 714 l 1,6,-1
EndSplineSet
EndChar

StartChar: l
Encoding: 108 108 226
GlifName: l
Width: 880
GlyphClass: 2
Flags: W
LayerCount: 2
Fore
SplineSet
350 255 m 1,0,-1
 800 255 l 1,1,-1
 800 0 l 1,2,-1
 100 0 l 1,3,-1
 100 1400 l 1,4,-1
 350 1400 l 1,5,-1
 350 255 l 1,0,-1
EndSplineSet
EndChar

StartChar: lacute
Encoding: 314 314 227
GlifName: lacute
Width: 880
GlyphClass: 2
Flags: W
LayerCount: 2
Fore
SplineSet
460 1750 m 1,0,-1
 260 1490 l 1,1,-1
 100 1490 l 1,2,-1
 240 1750 l 1,3,-1
 460 1750 l 1,0,-1
350 255 m 1,4,-1
 800 255 l 1,5,-1
 800 0 l 1,6,-1
 100 0 l 1,7,-1
 100 1400 l 1,8,-1
 350 1400 l 1,9,-1
 350 255 l 1,4,-1
EndSplineSet
EndChar

StartChar: lcaron
Encoding: 318 318 228
GlifName: lcaron
Width: 880
GlyphClass: 2
Flags: W
LayerCount: 2
Fore
SplineSet
139 1500 m 1,0,-1
 -45 1800 l 1,1,-1
 110 1800 l 1,2,-1
 226 1618 l 1,3,-1
 341 1800 l 1,4,-1
 496 1800 l 1,5,-1
 312 1500 l 1,6,-1
 139 1500 l 1,0,-1
350 255 m 1,7,-1
 800 255 l 1,8,-1
 800 0 l 1,9,-1
 100 0 l 1,10,-1
 100 1400 l 1,11,-1
 350 1400 l 1,12,-1
 350 255 l 1,7,-1
EndSplineSet
EndChar

StartChar: ldot
Encoding: 320 320 229
GlifName: ldot
Width: 880
GlyphClass: 2
Flags: W
LayerCount: 2
Fore
SplineSet
350 255 m 1,0,-1
 800 255 l 1,1,-1
 800 0 l 1,2,-1
 100 0 l 1,3,-1
 100 1400 l 1,4,-1
 350 1400 l 1,5,-1
 350 255 l 1,0,-1
450 815 m 1,6,-1
 680 815 l 1,7,-1
 680 585 l 1,8,-1
 450 585 l 1,9,-1
 450 815 l 1,6,-1
EndSplineSet
EndChar

StartChar: less
Encoding: 60 60 230
GlifName: less
Width: 900
GlyphClass: 2
Flags: W
LayerCount: 2
Fore
SplineSet
800 230 m 1,0,-1
 100 580 l 1,1,-1
 100 820 l 1,2,-1
 800 1170 l 1,3,-1
 800 960 l 1,4,-1
 294 700 l 1,5,-1
 800 440 l 1,6,-1
 800 230 l 1,0,-1
EndSplineSet
EndChar

StartChar: logicalnot
Encoding: 172 172 231
GlifName: logicalnot
Width: 1100
GlyphClass: 2
Flags: W
LayerCount: 2
Fore
SplineSet
100 810 m 1,0,-1
 1000 810 l 1,1,-1
 1000 410 l 1,2,-1
 780 410 l 1,3,-1
 780 590 l 1,4,-1
 100 590 l 1,5,-1
 100 810 l 1,0,-1
EndSplineSet
EndChar

StartChar: longs
Encoding: 383 383 232
GlifName: longs
Width: 905
GlyphClass: 2
Flags: W
LayerCount: 2
Fore
SplineSet
425 1400 m 2,0,-1
 805 1400 l 1,1,-1
 805 1170 l 1,2,-1
 563 1170 l 2,3,4
 537 1170 537 1170 518.5 1151.5 c 128,-1,5
 500 1133 500 1133 500 1107 c 2,6,-1
 500 0 l 1,7,-1
 260 0 l 1,8,-1
 260 770 l 1,9,-1
 100 770 l 1,10,-1
 100 1000 l 1,11,-1
 260 1000 l 1,12,-1
 260 1235 l 2,13,14
 260 1303 260 1303 308.5 1351.5 c 128,-1,15
 357 1400 357 1400 425 1400 c 2,0,-1
EndSplineSet
EndChar

StartChar: lslash
Encoding: 322 322 233
GlifName: lslash
Width: 880
GlyphClass: 2
Flags: W
LayerCount: 2
Fore
SplineSet
350 255 m 1,0,-1
 800 255 l 1,1,-1
 800 0 l 1,2,-1
 100 0 l 1,3,-1
 100 645 l 1,4,-1
 50 645 l 1,5,-1
 50 755 l 1,6,-1
 100 755 l 1,7,-1
 100 1400 l 1,8,-1
 350 1400 l 1,9,-1
 350 755 l 1,10,-1
 590 755 l 1,11,-1
 590 645 l 1,12,-1
 350 645 l 1,13,-1
 350 255 l 1,0,-1
EndSplineSet
EndChar

StartChar: m
Encoding: 109 109 234
GlifName: m
Width: 1320
GlyphClass: 2
Flags: W
LayerCount: 2
Fore
SplineSet
860 1400 m 1,0,-1
 1220 1400 l 1,1,-1
 1220 0 l 1,2,-1
 1000 0 l 1,3,-1
 1000 1050 l 1,4,-1
 750 0 l 1,5,-1
 570 0 l 1,6,-1
 320 1050 l 1,7,-1
 320 0 l 1,8,-1
 100 0 l 1,9,-1
 100 1400 l 1,10,-1
 460 1400 l 1,11,-1
 660 482 l 1,12,-1
 860 1400 l 1,0,-1
EndSplineSet
EndChar

StartChar: macron
Encoding: 175 175 235
GlifName: macron
Width: 1000
GlyphClass: 2
Flags: W
LayerCount: 2
Fore
SplineSet
100 1700 m 1,0,-1
 900 1700 l 1,1,-1
 900 1500 l 1,2,-1
 100 1500 l 1,3,-1
 100 1700 l 1,0,-1
EndSplineSet
EndChar

StartChar: minus
Encoding: 8722 8722 236
GlifName: minus
Width: 1000
GlyphClass: 2
Flags: W
LayerCount: 2
Fore
SplineSet
100 810 m 1,0,-1
 900 810 l 1,1,-1
 900 590 l 1,2,-1
 100 590 l 1,3,-1
 100 810 l 1,0,-1
EndSplineSet
EndChar

StartChar: minute
Encoding: 8242 8242 237
GlifName: minute
Width: 540
GlyphClass: 2
Flags: W
LayerCount: 2
Fore
SplineSet
240 1500 m 1,0,-1
 440 1500 l 1,1,-1
 300 1100 l 1,2,-1
 100 1100 l 1,3,-1
 240 1500 l 1,0,-1
EndSplineSet
EndChar

StartChar: mu
Encoding: 181 181 238
GlifName: mu
Width: 843
GlyphClass: 2
Flags: W
LayerCount: 2
Fore
SplineSet
260 640 m 1,0,-1
 260 223 l 2,1,2
 260 197 260 197 278.5 178.5 c 128,-1,3
 297 160 297 160 323 160 c 2,4,-1
 458 160 l 2,5,6
 484 160 484 160 502 178.5 c 128,-1,7
 520 197 520 197 520 223 c 2,8,-1
 520 640 l 1,9,-1
 680 640 l 1,10,-1
 680 223 l 2,11,12
 680 197 680 197 698.5 178.5 c 128,-1,13
 717 160 717 160 743 160 c 1,14,-1
 743 0 l 1,15,-1
 680 0 l 2,16,17
 586 0 586 0 540 83 c 1,18,19
 494 0 494 0 400 0 c 2,20,-1
 260 0 l 1,21,-1
 260 -300 l 1,22,-1
 100 -300 l 1,23,-1
 100 640 l 1,24,-1
 260 640 l 1,0,-1
EndSplineSet
EndChar

StartChar: multiply
Encoding: 215 215 239
GlifName: multiply
Width: 921
GlyphClass: 2
Flags: W
LayerCount: 2
Fore
SplineSet
666 1061 m 1,0,-1
 821 905 l 1,1,-1
 616 700 l 1,2,-1
 821 495 l 1,3,-1
 666 340 l 1,4,-1
 461 545 l 1,5,-1
 256 340 l 1,6,-1
 100 495 l 1,7,-1
 305 700 l 1,8,-1
 100 905 l 1,9,-1
 256 1061 l 1,10,-1
 461 856 l 1,11,-1
 666 1061 l 1,0,-1
EndSplineSet
EndChar

StartChar: n
Encoding: 110 110 240
GlifName: n
Width: 980
GlyphClass: 2
Flags: W
LayerCount: 2
Fore
SplineSet
640 610 m 1,0,-1
 640 1400 l 1,1,-1
 880 1400 l 1,2,-1
 880 0 l 1,3,-1
 670 0 l 1,4,-1
 330 754 l 1,5,-1
 330 0 l 1,6,-1
 100 0 l 1,7,-1
 100 1400 l 1,8,-1
 310 1400 l 1,9,-1
 640 610 l 1,0,-1
EndSplineSet
EndChar

StartChar: nacute
Encoding: 324 324 241
GlifName: nacute
Width: 980
GlyphClass: 2
Flags: W
LayerCount: 2
Fore
SplineSet
680 1750 m 1,0,-1
 480 1490 l 1,1,-1
 320 1490 l 1,2,-1
 460 1750 l 1,3,-1
 680 1750 l 1,0,-1
640 610 m 1,4,-1
 640 1400 l 1,5,-1
 880 1400 l 1,6,-1
 880 0 l 1,7,-1
 670 0 l 1,8,-1
 330 754 l 1,9,-1
 330 0 l 1,10,-1
 100 0 l 1,11,-1
 100 1400 l 1,12,-1
 310 1400 l 1,13,-1
 640 610 l 1,4,-1
EndSplineSet
EndChar

StartChar: napostrophe
Encoding: 329 329 242
GlifName: napostrophe
Width: 1300
GlyphClass: 2
Flags: W
LayerCount: 2
Fore
SplineSet
270 990 m 1,0,-1
 160 990 l 1,1,-1
 100 1220 l 1,2,-1
 100 1450 l 1,3,-1
 330 1450 l 1,4,-1
 330 1220 l 1,5,-1
 270 990 l 1,0,-1
960 610 m 1,6,-1
 960 1400 l 1,7,-1
 1200 1400 l 1,8,-1
 1200 0 l 1,9,-1
 990 0 l 1,10,-1
 650 754 l 1,11,-1
 650 0 l 1,12,-1
 420 0 l 1,13,-1
 420 1400 l 1,14,-1
 630 1400 l 1,15,-1
 960 610 l 1,6,-1
EndSplineSet
EndChar

StartChar: ncaron
Encoding: 328 328 244
GlifName: ncaron
Width: 980
GlyphClass: 2
Flags: W
LayerCount: 2
Fore
SplineSet
404 1500 m 1,0,-1
 220 1800 l 1,1,-1
 375 1800 l 1,2,-1
 491 1618 l 1,3,-1
 606 1800 l 1,4,-1
 761 1800 l 1,5,-1
 577 1500 l 1,6,-1
 404 1500 l 1,0,-1
640 610 m 1,7,-1
 640 1400 l 1,8,-1
 880 1400 l 1,9,-1
 880 0 l 1,10,-1
 670 0 l 1,11,-1
 330 754 l 1,12,-1
 330 0 l 1,13,-1
 100 0 l 1,14,-1
 100 1400 l 1,15,-1
 310 1400 l 1,16,-1
 640 610 l 1,7,-1
EndSplineSet
EndChar

StartChar: nine
Encoding: 57 57 245
GlifName: nine
Width: 930
GlyphClass: 2
Flags: W
LayerCount: 2
Fore
SplineSet
830 1240 m 2,0,-1
 830 160 l 2,1,2
 830 94 830 94 783 47 c 128,-1,3
 736 0 736 0 670 0 c 2,4,-1
 260 0 l 2,5,6
 194 0 194 0 147 47 c 128,-1,7
 100 94 100 94 100 160 c 2,8,-1
 100 380 l 1,9,-1
 330 380 l 1,10,-1
 330 283 l 2,11,12
 330 257 330 257 348.5 238.5 c 128,-1,13
 367 220 367 220 393 220 c 2,14,-1
 538 220 l 2,15,16
 564 220 564 220 582 238.5 c 128,-1,17
 600 257 600 257 600 283 c 2,18,-1
 600 645 l 1,19,20
 581 616 581 616 549.5 598 c 128,-1,21
 518 580 518 580 480 580 c 2,22,-1
 260 580 l 2,23,24
 194 580 194 580 147 627 c 128,-1,25
 100 674 100 674 100 740 c 2,26,-1
 100 1240 l 2,27,28
 100 1306 100 1306 147 1353 c 128,-1,29
 194 1400 194 1400 260 1400 c 2,30,-1
 670 1400 l 2,31,32
 736 1400 736 1400 783 1353 c 128,-1,33
 830 1306 830 1306 830 1240 c 2,0,-1
538 800 m 2,34,35
 564 800 564 800 582 818.5 c 128,-1,36
 600 837 600 837 600 863 c 2,37,-1
 600 1117 l 2,38,39
 600 1143 600 1143 582 1161.5 c 128,-1,40
 564 1180 564 1180 538 1180 c 2,41,-1
 393 1180 l 2,42,43
 367 1180 367 1180 348.5 1161.5 c 128,-1,44
 330 1143 330 1143 330 1117 c 2,45,-1
 330 863 l 2,46,47
 330 837 330 837 348.5 818.5 c 128,-1,48
 367 800 367 800 393 800 c 2,49,-1
 538 800 l 2,34,35
EndSplineSet
EndChar

StartChar: ntilde
Encoding: 241 241 246
GlifName: ntilde
Width: 975
GlyphClass: 2
Flags: W
LayerCount: 2
Fore
SplineSet
920 1696 m 1,0,1
 890 1606 890 1606 812.5 1548.5 c 128,-1,2
 735 1491 735 1491 635 1491 c 0,3,4
 633 1491 633 1491 632 1491 c 0,5,6
 573 1491 573 1491 518.5 1515 c 128,-1,7
 464 1539 464 1539 423 1578 c 0,8,9
 384 1614 384 1614 333 1614 c 0,10,11
 295 1614 295 1614 262 1592.5 c 128,-1,12
 229 1571 229 1571 216 1530 c 1,13,-1
 50 1585 l 1,14,15
 80 1674 80 1674 157.5 1732 c 128,-1,16
 235 1790 235 1790 335 1790 c 0,17,18
 459 1790 459 1790 547 1702 c 0,19,20
 583 1666 583 1666 635 1666 c 0,21,22
 676 1666 676 1666 708.5 1689.5 c 128,-1,23
 741 1713 741 1713 754 1751 c 1,24,-1
 920 1696 l 1,0,1
640 610 m 1,25,-1
 640 1400 l 1,26,-1
 880 1400 l 1,27,-1
 880 0 l 1,28,-1
 670 0 l 1,29,-1
 330 754 l 1,30,-1
 330 0 l 1,31,-1
 100 0 l 1,32,-1
 100 1400 l 1,33,-1
 310 1400 l 1,34,-1
 640 610 l 1,25,-1
EndSplineSet
EndChar

StartChar: numbersign
Encoding: 35 35 247
GlifName: numbersign
Width: 1232
GlyphClass: 2
Flags: W
LayerCount: 2
Fore
SplineSet
290 410 m 1,0,-1
 100 410 l 1,1,-1
 100 580 l 1,2,-1
 324 580 l 1,3,-1
 372 820 l 1,4,-1
 182 820 l 1,5,-1
 182 990 l 1,6,-1
 406 990 l 1,7,-1
 448 1200 l 1,8,-1
 638 1200 l 1,9,-1
 596 990 l 1,10,-1
 786 990 l 1,11,-1
 828 1200 l 1,12,-1
 1018 1200 l 1,13,-1
 976 990 l 1,14,-1
 1132 990 l 1,15,-1
 1132 820 l 1,16,-1
 942 820 l 1,17,-1
 894 580 l 1,18,-1
 1050 580 l 1,19,-1
 1050 410 l 1,20,-1
 860 410 l 1,21,-1
 818 200 l 1,22,-1
 628 200 l 1,23,-1
 670 410 l 1,24,-1
 480 410 l 1,25,-1
 438 200 l 1,26,-1
 248 200 l 1,27,-1
 290 410 l 1,0,-1
514 580 m 1,28,-1
 704 580 l 1,29,-1
 752 820 l 1,30,-1
 562 820 l 1,31,-1
 514 580 l 1,28,-1
EndSplineSet
EndChar

StartChar: o
Encoding: 111 111 248
GlifName: o
Width: 940
GlyphClass: 2
Flags: W
LayerCount: 2
Fore
SplineSet
840 1255 m 2,0,-1
 840 145 l 2,1,2
 840 85 840 85 797.5 42.5 c 128,-1,3
 755 0 755 0 695 0 c 2,4,-1
 245 0 l 2,5,6
 185 0 185 0 142.5 42.5 c 128,-1,7
 100 85 100 85 100 145 c 2,8,-1
 100 1255 l 2,9,10
 100 1315 100 1315 142.5 1357.5 c 128,-1,11
 185 1400 185 1400 245 1400 c 2,12,-1
 695 1400 l 2,13,14
 755 1400 755 1400 797.5 1357.5 c 128,-1,15
 840 1315 840 1315 840 1255 c 2,0,-1
350 250 m 1,16,-1
 590 250 l 1,17,-1
 590 1150 l 1,18,-1
 350 1150 l 1,19,-1
 350 250 l 1,16,-1
EndSplineSet
EndChar

StartChar: oacute
Encoding: 243 243 249
GlifName: oacute
Width: 940
GlyphClass: 2
Flags: W
LayerCount: 2
Fore
SplineSet
680 1750 m 1,0,-1
 480 1490 l 1,1,-1
 320 1490 l 1,2,-1
 460 1750 l 1,3,-1
 680 1750 l 1,0,-1
840 1255 m 2,4,-1
 840 145 l 2,5,6
 840 85 840 85 797.5 42.5 c 128,-1,7
 755 0 755 0 695 0 c 2,8,-1
 245 0 l 2,9,10
 185 0 185 0 142.5 42.5 c 128,-1,11
 100 85 100 85 100 145 c 2,12,-1
 100 1255 l 2,13,14
 100 1315 100 1315 142.5 1357.5 c 128,-1,15
 185 1400 185 1400 245 1400 c 2,16,-1
 695 1400 l 2,17,18
 755 1400 755 1400 797.5 1357.5 c 128,-1,19
 840 1315 840 1315 840 1255 c 2,4,-1
350 250 m 1,20,-1
 590 250 l 1,21,-1
 590 1150 l 1,22,-1
 350 1150 l 1,23,-1
 350 250 l 1,20,-1
EndSplineSet
EndChar

StartChar: obreve
Encoding: 335 335 250
GlifName: obreve
Width: 940
GlyphClass: 2
Flags: W
LayerCount: 2
Fore
SplineSet
470 1504 m 256,0,1
 398 1504 398 1504 341.5 1551 c 128,-1,2
 285 1598 285 1598 274 1667 c 1,3,-1
 385 1700 l 1,4,5
 385 1667 385 1667 411 1643 c 128,-1,6
 437 1619 437 1619 470 1619 c 256,7,8
 503 1619 503 1619 529 1643 c 128,-1,9
 555 1667 555 1667 555 1700 c 1,10,-1
 666 1667 l 1,11,12
 655 1598 655 1598 598.5 1551 c 128,-1,13
 542 1504 542 1504 470 1504 c 256,0,1
840 1255 m 2,14,-1
 840 145 l 2,15,16
 840 85 840 85 797.5 42.5 c 128,-1,17
 755 0 755 0 695 0 c 2,18,-1
 245 0 l 2,19,20
 185 0 185 0 142.5 42.5 c 128,-1,21
 100 85 100 85 100 145 c 2,22,-1
 100 1255 l 2,23,24
 100 1315 100 1315 142.5 1357.5 c 128,-1,25
 185 1400 185 1400 245 1400 c 2,26,-1
 695 1400 l 2,27,28
 755 1400 755 1400 797.5 1357.5 c 128,-1,29
 840 1315 840 1315 840 1255 c 2,14,-1
350 250 m 1,30,-1
 590 250 l 1,31,-1
 590 1150 l 1,32,-1
 350 1150 l 1,33,-1
 350 250 l 1,30,-1
EndSplineSet
EndChar

StartChar: ocircumflex
Encoding: 244 244 251
GlifName: ocircumflex
Width: 940
GlyphClass: 2
Flags: W
LayerCount: 2
Fore
SplineSet
384 1800 m 1,0,-1
 557 1800 l 1,1,-1
 741 1500 l 1,2,-1
 586 1500 l 1,3,-1
 471 1682 l 1,4,-1
 355 1500 l 1,5,-1
 200 1500 l 1,6,-1
 384 1800 l 1,0,-1
840 1255 m 2,7,-1
 840 145 l 2,8,9
 840 85 840 85 797.5 42.5 c 128,-1,10
 755 0 755 0 695 0 c 2,11,-1
 245 0 l 2,12,13
 185 0 185 0 142.5 42.5 c 128,-1,14
 100 85 100 85 100 145 c 2,15,-1
 100 1255 l 2,16,17
 100 1315 100 1315 142.5 1357.5 c 128,-1,18
 185 1400 185 1400 245 1400 c 2,19,-1
 695 1400 l 2,20,21
 755 1400 755 1400 797.5 1357.5 c 128,-1,22
 840 1315 840 1315 840 1255 c 2,7,-1
350 250 m 1,23,-1
 590 250 l 1,24,-1
 590 1150 l 1,25,-1
 350 1150 l 1,26,-1
 350 250 l 1,23,-1
EndSplineSet
EndChar

StartChar: odieresis
Encoding: 246 246 252
GlifName: odieresis
Width: 940
GlyphClass: 2
Flags: W
LayerCount: 2
Fore
SplineSet
275 1700 m 1,0,-1
 425 1700 l 1,1,-1
 425 1550 l 1,2,-1
 275 1550 l 1,3,-1
 275 1700 l 1,0,-1
515 1700 m 1,4,-1
 665 1700 l 1,5,-1
 665 1550 l 1,6,-1
 515 1550 l 1,7,-1
 515 1700 l 1,4,-1
840 1255 m 2,8,-1
 840 145 l 2,9,10
 840 85 840 85 797.5 42.5 c 128,-1,11
 755 0 755 0 695 0 c 2,12,-1
 245 0 l 2,13,14
 185 0 185 0 142.5 42.5 c 128,-1,15
 100 85 100 85 100 145 c 2,16,-1
 100 1255 l 2,17,18
 100 1315 100 1315 142.5 1357.5 c 128,-1,19
 185 1400 185 1400 245 1400 c 2,20,-1
 695 1400 l 2,21,22
 755 1400 755 1400 797.5 1357.5 c 128,-1,23
 840 1315 840 1315 840 1255 c 2,8,-1
350 250 m 1,24,-1
 590 250 l 1,25,-1
 590 1150 l 1,26,-1
 350 1150 l 1,27,-1
 350 250 l 1,24,-1
EndSplineSet
EndChar

StartChar: oe
Encoding: 339 339 253
GlifName: oe
Width: 1529
GlyphClass: 2
Flags: W
LayerCount: 2
Fore
SplineSet
967 240 m 1,0,-1
 1429 240 l 1,1,-1
 1429 0 l 1,2,-1
 717 0 l 1,3,-1
 717 42 l 1,4,5
 675 0 675 0 615 0 c 2,6,-1
 245 0 l 2,7,8
 185 0 185 0 142.5 42.5 c 128,-1,9
 100 85 100 85 100 145 c 2,10,-1
 100 1255 l 2,11,12
 100 1315 100 1315 142.5 1357.5 c 128,-1,13
 185 1400 185 1400 245 1400 c 2,14,-1
 615 1400 l 2,15,16
 675 1400 675 1400 717 1358 c 1,17,-1
 717 1400 l 1,18,-1
 1428 1400 l 1,19,-1
 1428 1170 l 1,20,-1
 967 1170 l 1,21,-1
 967 820 l 1,22,-1
 1347 820 l 1,23,-1
 1347 580 l 1,24,-1
 967 580 l 1,25,-1
 967 240 l 1,0,-1
717 1087 m 2,26,27
 717 1113 717 1113 699 1131.5 c 128,-1,28
 681 1150 681 1150 655 1150 c 2,29,-1
 412 1150 l 2,30,31
 386 1150 386 1150 368 1131.5 c 128,-1,32
 350 1113 350 1113 350 1087 c 2,33,-1
 350 313 l 2,34,35
 350 287 350 287 368 268.5 c 128,-1,36
 386 250 386 250 412 250 c 2,37,-1
 655 250 l 2,38,39
 681 250 681 250 699 268.5 c 128,-1,40
 717 287 717 287 717 313 c 2,41,-1
 717 1087 l 2,26,27
EndSplineSet
EndChar

StartChar: ograve
Encoding: 242 242 254
GlifName: ograve
Width: 940
GlyphClass: 2
Flags: W
LayerCount: 2
Fore
SplineSet
440 1490 m 1,0,-1
 240 1750 l 1,1,-1
 460 1750 l 1,2,-1
 600 1490 l 1,3,-1
 440 1490 l 1,0,-1
840 1255 m 2,4,-1
 840 145 l 2,5,6
 840 85 840 85 797.5 42.5 c 128,-1,7
 755 0 755 0 695 0 c 2,8,-1
 245 0 l 2,9,10
 185 0 185 0 142.5 42.5 c 128,-1,11
 100 85 100 85 100 145 c 2,12,-1
 100 1255 l 2,13,14
 100 1315 100 1315 142.5 1357.5 c 128,-1,15
 185 1400 185 1400 245 1400 c 2,16,-1
 695 1400 l 2,17,18
 755 1400 755 1400 797.5 1357.5 c 128,-1,19
 840 1315 840 1315 840 1255 c 2,4,-1
350 250 m 1,20,-1
 590 250 l 1,21,-1
 590 1150 l 1,22,-1
 350 1150 l 1,23,-1
 350 250 l 1,20,-1
EndSplineSet
EndChar

StartChar: ohungarumlaut
Encoding: 337 337 255
GlifName: ohungarumlaut
Width: 940
GlyphClass: 2
Flags: W
LayerCount: 2
Fore
SplineSet
540 1750 m 1,0,-1
 340 1490 l 1,1,-1
 180 1490 l 1,2,-1
 320 1750 l 1,3,-1
 540 1750 l 1,0,-1
840 1750 m 1,4,-1
 640 1490 l 1,5,-1
 480 1490 l 1,6,-1
 620 1750 l 1,7,-1
 840 1750 l 1,4,-1
840 1255 m 2,8,-1
 840 145 l 2,9,10
 840 85 840 85 797.5 42.5 c 128,-1,11
 755 0 755 0 695 0 c 2,12,-1
 245 0 l 2,13,14
 185 0 185 0 142.5 42.5 c 128,-1,15
 100 85 100 85 100 145 c 2,16,-1
 100 1255 l 2,17,18
 100 1315 100 1315 142.5 1357.5 c 128,-1,19
 185 1400 185 1400 245 1400 c 2,20,-1
 695 1400 l 2,21,22
 755 1400 755 1400 797.5 1357.5 c 128,-1,23
 840 1315 840 1315 840 1255 c 2,8,-1
350 250 m 1,24,-1
 590 250 l 1,25,-1
 590 1150 l 1,26,-1
 350 1150 l 1,27,-1
 350 250 l 1,24,-1
EndSplineSet
EndChar

StartChar: omacron
Encoding: 333 333 256
GlifName: omacron
Width: 940
GlyphClass: 2
Flags: W
LayerCount: 2
Fore
SplineSet
250 1640 m 1,0,-1
 690 1640 l 1,1,-1
 690 1530 l 1,2,-1
 250 1530 l 1,3,-1
 250 1640 l 1,0,-1
840 1255 m 2,4,-1
 840 145 l 2,5,6
 840 85 840 85 797.5 42.5 c 128,-1,7
 755 0 755 0 695 0 c 2,8,-1
 245 0 l 2,9,10
 185 0 185 0 142.5 42.5 c 128,-1,11
 100 85 100 85 100 145 c 2,12,-1
 100 1255 l 2,13,14
 100 1315 100 1315 142.5 1357.5 c 128,-1,15
 185 1400 185 1400 245 1400 c 2,16,-1
 695 1400 l 2,17,18
 755 1400 755 1400 797.5 1357.5 c 128,-1,19
 840 1315 840 1315 840 1255 c 2,4,-1
350 250 m 1,20,-1
 590 250 l 1,21,-1
 590 1150 l 1,22,-1
 350 1150 l 1,23,-1
 350 250 l 1,20,-1
EndSplineSet
EndChar

StartChar: one
Encoding: 49 49 257
GlifName: one
Width: 620
GlyphClass: 2
Flags: W
LayerCount: 2
Fore
SplineSet
280 0 m 1,0,-1
 280 1060 l 1,1,2
 280 1060 280 1060 259 1045 c 128,-1,3
 238 1030 238 1030 198 1015 c 128,-1,4
 158 1000 158 1000 100 1000 c 1,5,-1
 100 1270 l 1,6,7
 142 1270 142 1270 178.5 1289.5 c 128,-1,8
 215 1309 215 1309 242.5 1335 c 128,-1,9
 270 1361 270 1361 285 1380.5 c 128,-1,10
 300 1400 300 1400 300 1400 c 1,11,-1
 520 1400 l 1,12,-1
 520 0 l 1,13,-1
 280 0 l 1,0,-1
EndSplineSet
EndChar

StartChar: onedotenleader
Encoding: 8228 8228 258
GlifName: onedotenleader
Width: 430
GlyphClass: 2
Flags: W
LayerCount: 2
Fore
SplineSet
100 230 m 1,0,-1
 330 230 l 1,1,-1
 330 0 l 1,2,-1
 100 0 l 1,3,-1
 100 230 l 1,0,-1
EndSplineSet
EndChar

StartChar: onehalf
Encoding: 189 189 259
GlifName: onehalf
Width: 970
GlyphClass: 2
Flags: W
LayerCount: 2
Fore
SplineSet
220 800 m 1,0,-1
 220 1255 l 1,1,2
 220 1255 220 1255 200.5 1241.5 c 128,-1,3
 181 1228 181 1228 143 1228 c 1,4,-1
 143 1345 l 1,5,6
 182 1347 182 1347 206 1373.5 c 128,-1,7
 230 1400 230 1400 230 1400 c 1,8,-1
 323 1400 l 1,9,-1
 323 800 l 1,10,-1
 220 800 l 1,0,-1
720 1400 m 1,11,-1
 870 1400 l 1,12,-1
 250 0 l 1,13,-1
 100 0 l 1,14,-1
 720 1400 l 1,11,-1
550 0 m 1,15,-1
 550 50 l 2,16,17
 550 103 550 103 584 157.5 c 128,-1,18
 618 212 618 212 662 262.5 c 128,-1,19
 706 313 706 313 740 356 c 128,-1,20
 774 399 774 399 774 430 c 2,21,-1
 774 475 l 2,22,23
 772 500 772 500 747 500 c 2,24,-1
 685 500 l 2,25,26
 658 500 658 500 658 473 c 2,27,-1
 658 430 l 1,28,-1
 558 430 l 1,29,-1
 558 530 l 2,30,31
 558 559 558 559 578.5 579.5 c 128,-1,32
 599 600 599 600 628 600 c 2,33,-1
 800 600 l 2,34,35
 829 600 829 600 849.5 579.5 c 128,-1,36
 870 559 870 559 870 530 c 2,37,-1
 870 410 l 2,38,39
 870 364 870 364 832 313.5 c 128,-1,40
 794 263 794 263 748.5 211.5 c 128,-1,41
 703 160 703 160 682 110 c 1,42,-1
 870 110 l 1,43,-1
 870 0 l 1,44,-1
 550 0 l 1,15,-1
EndSplineSet
EndChar

StartChar: onequarter
Encoding: 188 188 260
GlifName: onequarter
Width: 970
GlyphClass: 2
Flags: W
LayerCount: 2
Fore
SplineSet
230 1400 m 1,0,-1
 323 1400 l 1,1,-1
 323 800 l 1,2,-1
 220 800 l 1,3,-1
 220 1255 l 1,4,5
 220 1255 220 1255 200.5 1241.5 c 128,-1,6
 181 1228 181 1228 143 1228 c 1,7,-1
 143 1345 l 1,8,9
 182 1347 182 1347 206 1373.5 c 128,-1,10
 230 1400 230 1400 230 1400 c 1,0,-1
870 1400 m 1,11,-1
 250 0 l 1,12,-1
 100 0 l 1,13,-1
 720 1400 l 1,14,-1
 870 1400 l 1,11,-1
685 0 m 1,15,-1
 685 120 l 1,16,-1
 485 120 l 1,17,-1
 485 195 l 1,18,-1
 665 600 l 1,19,-1
 785 600 l 1,20,-1
 785 210 l 1,21,-1
 805 210 l 1,22,-1
 805 120 l 1,23,-1
 785 120 l 1,24,-1
 785 0 l 1,25,-1
 685 0 l 1,15,-1
685 210 m 1,26,-1
 685 438 l 1,27,-1
 587 210 l 1,28,-1
 685 210 l 1,26,-1
EndSplineSet
EndChar

StartChar: ordfeminine
Encoding: 170 170 261
GlifName: ordfeminine
Width: 843
GlyphClass: 2
Flags: W
LayerCount: 2
Fore
SplineSet
680 1450 m 1,0,-1
 680 1033 l 2,1,2
 680 1007 680 1007 698.5 988.5 c 128,-1,3
 717 970 717 970 743 970 c 1,4,-1
 743 810 l 1,5,-1
 680 810 l 2,6,7
 586 810 586 810 540 893 c 1,8,9
 494 810 494 810 400 810 c 2,10,-1
 260 810 l 2,11,12
 194 810 194 810 147 857 c 128,-1,13
 100 904 100 904 100 970 c 2,14,-1
 100 1290 l 2,15,16
 100 1356 100 1356 147 1403 c 128,-1,17
 194 1450 194 1450 260 1450 c 2,18,-1
 390 1450 l 2,19,20
 472 1450 472 1450 520 1383 c 1,21,-1
 520 1450 l 1,22,-1
 680 1450 l 1,0,-1
458 970 m 2,23,24
 484 970 484 970 502 988.5 c 128,-1,25
 520 1007 520 1007 520 1033 c 2,26,-1
 520 1227 l 2,27,28
 520 1253 520 1253 502 1271.5 c 128,-1,29
 484 1290 484 1290 458 1290 c 2,30,-1
 323 1290 l 2,31,32
 297 1290 297 1290 278.5 1271.5 c 128,-1,33
 260 1253 260 1253 260 1227 c 2,34,-1
 260 1033 l 2,35,36
 260 1007 260 1007 278.5 988.5 c 128,-1,37
 297 970 297 970 323 970 c 2,38,-1
 458 970 l 2,23,24
EndSplineSet
EndChar

StartChar: ordmasculine
Encoding: 186 186 262
GlifName: ordmasculine
Width: 660
GlyphClass: 2
Flags: W
LayerCount: 2
Fore
SplineSet
100 1169 m 2,0,-1
 100 1220 l 2,1,2
 100 1284 100 1284 131 1336 c 128,-1,3
 162 1388 162 1388 214.5 1419 c 128,-1,4
 267 1450 267 1450 330 1450 c 0,5,6
 394 1450 394 1450 446 1419 c 128,-1,7
 498 1388 498 1388 529 1336 c 128,-1,8
 560 1284 560 1284 560 1220 c 2,9,-1
 560 1169 l 2,10,11
 560 1074 560 1074 492.5 1007 c 128,-1,12
 425 940 425 940 330 940 c 256,13,14
 235 940 235 940 167.5 1007 c 128,-1,15
 100 1074 100 1074 100 1169 c 2,0,-1
259 1184 m 2,16,17
 259 1144 259 1144 280 1116.5 c 128,-1,18
 301 1089 301 1089 330 1089 c 256,19,20
 359 1089 359 1089 380 1116.5 c 128,-1,21
 401 1144 401 1144 401 1184 c 2,22,-1
 401 1206 l 2,23,24
 401 1246 401 1246 380 1273 c 128,-1,25
 359 1300 359 1300 330 1300 c 256,26,27
 301 1300 301 1300 280 1273 c 128,-1,28
 259 1246 259 1246 259 1206 c 2,29,-1
 259 1184 l 2,16,17
EndSplineSet
EndChar

StartChar: oslash
Encoding: 248 248 263
GlifName: oslash
Width: 940
GlyphClass: 2
Flags: W
LayerCount: 2
Fore
SplineSet
840 1255 m 2,0,-1
 840 145 l 2,1,2
 840 85 840 85 797.5 42.5 c 128,-1,3
 755 0 755 0 695 0 c 2,4,-1
 245 0 l 2,5,6
 185 0 185 0 142.5 42.5 c 128,-1,7
 100 85 100 85 100 145 c 2,8,-1
 100 1255 l 2,9,10
 100 1315 100 1315 142.5 1357.5 c 128,-1,11
 185 1400 185 1400 245 1400 c 2,12,-1
 695 1400 l 2,13,14
 755 1400 755 1400 797.5 1357.5 c 128,-1,15
 840 1315 840 1315 840 1255 c 2,0,-1
350 732 m 1,16,-1
 590 928 l 1,17,-1
 590 1150 l 1,18,-1
 350 1150 l 1,19,-1
 350 732 l 1,16,-1
350 250 m 1,20,-1
 590 250 l 1,21,-1
 590 658 l 1,22,-1
 350 462 l 1,23,-1
 350 250 l 1,20,-1
EndSplineSet
EndChar

StartChar: otilde
Encoding: 245 245 264
GlifName: otilde
Width: 940
GlyphClass: 2
Flags: W
LayerCount: 2
Fore
SplineSet
633 1653 m 1,0,-1
 722 1626 l 1,1,2
 712 1571 712 1571 667 1533.5 c 128,-1,3
 622 1496 622 1496 565 1496 c 0,4,5
 516 1496 516 1496 478 1523 c 128,-1,6
 440 1550 440 1550 423 1593 c 1,7,8
 404 1619 404 1619 377 1619 c 0,9,10
 351 1619 351 1619 330 1599.5 c 128,-1,11
 309 1580 309 1580 309 1553 c 1,12,-1
 220 1580 l 1,13,14
 229 1635 229 1635 274 1672.5 c 128,-1,15
 319 1710 319 1710 377 1710 c 0,16,17
 426 1710 426 1710 464 1683.5 c 128,-1,18
 502 1657 502 1657 518 1613 c 1,19,20
 527 1602 527 1602 538 1594.5 c 128,-1,21
 549 1587 549 1587 565 1587 c 0,22,23
 591 1587 591 1587 612 1606.5 c 128,-1,24
 633 1626 633 1626 633 1653 c 1,0,-1
840 1255 m 2,25,-1
 840 145 l 2,26,27
 840 85 840 85 797.5 42.5 c 128,-1,28
 755 0 755 0 695 0 c 2,29,-1
 245 0 l 2,30,31
 185 0 185 0 142.5 42.5 c 128,-1,32
 100 85 100 85 100 145 c 2,33,-1
 100 1255 l 2,34,35
 100 1315 100 1315 142.5 1357.5 c 128,-1,36
 185 1400 185 1400 245 1400 c 2,37,-1
 695 1400 l 2,38,39
 755 1400 755 1400 797.5 1357.5 c 128,-1,40
 840 1315 840 1315 840 1255 c 2,25,-1
350 250 m 1,41,-1
 590 250 l 1,42,-1
 590 1150 l 1,43,-1
 350 1150 l 1,44,-1
 350 250 l 1,41,-1
EndSplineSet
EndChar

StartChar: p
Encoding: 112 112 265
GlifName: p
Width: 890
GlyphClass: 2
Flags: W
LayerCount: 2
Fore
SplineSet
810 1260 m 2,0,-1
 810 665 l 2,1,2
 810 605 810 605 767.5 562.5 c 128,-1,3
 725 520 725 520 665 520 c 2,4,-1
 350 520 l 1,5,-1
 350 0 l 1,6,-1
 100 0 l 1,7,-1
 100 1400 l 1,8,-1
 670 1400 l 2,9,10
 728 1400 728 1400 769 1359 c 128,-1,11
 810 1318 810 1318 810 1260 c 2,0,-1
350 770 m 1,12,-1
 560 770 l 1,13,-1
 560 1160 l 1,14,-1
 350 1160 l 1,15,-1
 350 770 l 1,12,-1
EndSplineSet
EndChar

StartChar: paragraph
Encoding: 182 182 266
GlifName: paragraph
Width: 1080
GlyphClass: 2
Flags: W
LayerCount: 2
Fore
SplineSet
450 0 m 1,0,-1
 450 750 l 1,1,-1
 240 750 l 2,2,3
 182 752 182 752 141 794.5 c 128,-1,4
 100 837 100 837 100 895 c 2,5,-1
 100 1260 l 2,6,7
 100 1318 100 1318 141 1359 c 128,-1,8
 182 1400 182 1400 240 1400 c 2,9,-1
 980 1400 l 1,10,-1
 980 0 l 1,11,-1
 780 0 l 1,12,-1
 780 1200 l 1,13,-1
 650 1200 l 1,14,-1
 650 0 l 1,15,-1
 450 0 l 1,0,-1
EndSplineSet
EndChar

StartChar: parenleft
Encoding: 40 40 267
GlifName: parenleft
Width: 640
GlyphClass: 2
Flags: W
LayerCount: 2
Fore
SplineSet
100 270 m 2,0,-1
 100 1130 l 2,1,2
 100 1254 100 1254 161 1356 c 128,-1,3
 222 1458 222 1458 324.5 1519 c 128,-1,4
 427 1580 427 1580 550 1580 c 2,5,-1
 630 1580 l 1,6,-1
 630 1400 l 1,7,-1
 550 1400 l 2,8,9
 510 1400 510 1400 458 1379.5 c 128,-1,10
 406 1359 406 1359 368 1313 c 128,-1,11
 330 1267 330 1267 330 1190 c 2,12,-1
 330 210 l 2,13,14
 330 133 330 133 368 87 c 128,-1,15
 406 41 406 41 458 20.5 c 128,-1,16
 510 0 510 0 550 0 c 2,17,-1
 630 0 l 1,18,-1
 630 -180 l 1,19,-1
 550 -180 l 2,20,21
 427 -180 427 -180 324.5 -119 c 128,-1,22
 222 -58 222 -58 161 44.5 c 128,-1,23
 100 147 100 147 100 270 c 2,0,-1
EndSplineSet
EndChar

StartChar: parenright
Encoding: 41 41 268
GlifName: parenright
Width: 640
GlyphClass: 2
Flags: W
LayerCount: 2
Fore
SplineSet
90 -180 m 2,0,-1
 10 -180 l 1,1,-1
 10 0 l 1,2,-1
 90 0 l 2,3,4
 131 0 131 0 182.5 20.5 c 128,-1,5
 234 41 234 41 272 87 c 128,-1,6
 310 133 310 133 310 210 c 2,7,-1
 310 1190 l 2,8,9
 310 1267 310 1267 272 1313 c 128,-1,10
 234 1359 234 1359 182.5 1379.5 c 128,-1,11
 131 1400 131 1400 90 1400 c 2,12,-1
 10 1400 l 1,13,-1
 10 1580 l 1,14,-1
 90 1580 l 2,15,16
 214 1580 214 1580 316 1519 c 128,-1,17
 418 1458 418 1458 479 1356 c 128,-1,18
 540 1254 540 1254 540 1130 c 2,19,-1
 540 270 l 2,20,21
 540 147 540 147 479 44.5 c 128,-1,22
 418 -58 418 -58 316 -119 c 128,-1,23
 214 -180 214 -180 90 -180 c 2,0,-1
EndSplineSet
EndChar

StartChar: percent
Encoding: 37 37 269
GlifName: percent
Width: 1260
GlyphClass: 2
Flags: W
LayerCount: 2
Fore
SplineSet
220 0 m 1,0,-1
 820 1400 l 1,1,-1
 1020 1400 l 1,2,-1
 420 0 l 1,3,-1
 220 0 l 1,0,-1
100 1029 m 2,4,-1
 100 1080 l 2,5,6
 100 1144 100 1144 131 1196 c 128,-1,7
 162 1248 162 1248 214.5 1279 c 128,-1,8
 267 1310 267 1310 330 1310 c 0,9,10
 394 1310 394 1310 446 1279 c 128,-1,11
 498 1248 498 1248 529 1196 c 128,-1,12
 560 1144 560 1144 560 1080 c 2,13,-1
 560 1029 l 2,14,15
 560 934 560 934 492.5 867 c 128,-1,16
 425 800 425 800 330 800 c 256,17,18
 235 800 235 800 167.5 867 c 128,-1,19
 100 934 100 934 100 1029 c 2,4,-1
259 1044 m 2,20,21
 259 1004 259 1004 280 976.5 c 128,-1,22
 301 949 301 949 330 949 c 256,23,24
 359 949 359 949 380 976.5 c 128,-1,25
 401 1004 401 1004 401 1044 c 2,26,-1
 401 1066 l 2,27,28
 401 1106 401 1106 380 1133 c 128,-1,29
 359 1160 359 1160 330 1160 c 256,30,31
 301 1160 301 1160 280 1133 c 128,-1,32
 259 1106 259 1106 259 1066 c 2,33,-1
 259 1044 l 2,20,21
930 600 m 0,34,35
 994 600 994 600 1046 569 c 128,-1,36
 1098 538 1098 538 1129 486 c 128,-1,37
 1160 434 1160 434 1160 370 c 2,38,-1
 1160 319 l 2,39,40
 1160 224 1160 224 1092.5 157 c 128,-1,41
 1025 90 1025 90 930 90 c 256,42,43
 835 90 835 90 767.5 157 c 128,-1,44
 700 224 700 224 700 319 c 2,45,-1
 700 370 l 2,46,47
 700 434 700 434 731 486 c 128,-1,48
 762 538 762 538 814.5 569 c 128,-1,49
 867 600 867 600 930 600 c 0,34,35
930 450 m 256,50,51
 901 450 901 450 880 423 c 128,-1,52
 859 396 859 396 859 356 c 2,53,-1
 859 334 l 2,54,55
 859 294 859 294 880 266.5 c 128,-1,56
 901 239 901 239 930 239 c 256,57,58
 959 239 959 239 980 266.5 c 128,-1,59
 1001 294 1001 294 1001 334 c 2,60,-1
 1001 356 l 2,61,62
 1001 396 1001 396 980 423 c 128,-1,63
 959 450 959 450 930 450 c 256,50,51
EndSplineSet
EndChar

StartChar: period
Encoding: 46 46 270
GlifName: period
Width: 430
GlyphClass: 2
Flags: W
LayerCount: 2
Fore
SplineSet
100 230 m 1,0,-1
 330 230 l 1,1,-1
 330 0 l 1,2,-1
 100 0 l 1,3,-1
 100 230 l 1,0,-1
EndSplineSet
EndChar

StartChar: periodcentered
Encoding: 183 183 271
GlifName: periodcentered
Width: 430
GlyphClass: 2
Flags: W
LayerCount: 2
Fore
SplineSet
100 815 m 1,0,-1
 330 815 l 1,1,-1
 330 585 l 1,2,-1
 100 585 l 1,3,-1
 100 815 l 1,0,-1
EndSplineSet
EndChar

StartChar: perthousand
Encoding: 8240 8240 272
GlifName: perthousand
Width: 1680
GlyphClass: 2
Flags: W
LayerCount: 2
Fore
SplineSet
990 1400 m 1,0,-1
 390 0 l 1,1,-1
 190 0 l 1,2,-1
 790 1400 l 1,3,-1
 990 1400 l 1,0,-1
100 1029 m 2,4,-1
 100 1080 l 2,5,6
 100 1144 100 1144 131 1196 c 128,-1,7
 162 1248 162 1248 214.5 1279 c 128,-1,8
 267 1310 267 1310 330 1310 c 0,9,10
 394 1310 394 1310 446 1279 c 128,-1,11
 498 1248 498 1248 529 1196 c 128,-1,12
 560 1144 560 1144 560 1080 c 2,13,-1
 560 1029 l 2,14,15
 560 934 560 934 492.5 867 c 128,-1,16
 425 800 425 800 330 800 c 256,17,18
 235 800 235 800 167.5 867 c 128,-1,19
 100 934 100 934 100 1029 c 2,4,-1
259 1044 m 2,20,21
 259 1004 259 1004 280 976.5 c 128,-1,22
 301 949 301 949 330 949 c 256,23,24
 359 949 359 949 380 976.5 c 128,-1,25
 401 1004 401 1004 401 1044 c 2,26,-1
 401 1066 l 2,27,28
 401 1106 401 1106 380 1133 c 128,-1,29
 359 1160 359 1160 330 1160 c 256,30,31
 301 1160 301 1160 280 1133 c 128,-1,32
 259 1106 259 1106 259 1066 c 2,33,-1
 259 1044 l 2,20,21
640 319 m 2,34,-1
 640 370 l 2,35,36
 640 434 640 434 671 486 c 128,-1,37
 702 538 702 538 754.5 569 c 128,-1,38
 807 600 807 600 870 600 c 0,39,40
 934 600 934 600 986 569 c 128,-1,41
 1038 538 1038 538 1069 486 c 128,-1,42
 1100 434 1100 434 1100 370 c 2,43,-1
 1100 319 l 2,44,45
 1100 224 1100 224 1032.5 157 c 128,-1,46
 965 90 965 90 870 90 c 256,47,48
 775 90 775 90 707.5 157 c 128,-1,49
 640 224 640 224 640 319 c 2,34,-1
1120 319 m 2,50,-1
 1120 370 l 2,51,52
 1120 434 1120 434 1151 486 c 128,-1,53
 1182 538 1182 538 1234.5 569 c 128,-1,54
 1287 600 1287 600 1350 600 c 0,55,56
 1414 600 1414 600 1466 569 c 128,-1,57
 1518 538 1518 538 1549 486 c 128,-1,58
 1580 434 1580 434 1580 370 c 2,59,-1
 1580 319 l 2,60,61
 1580 224 1580 224 1512.5 157 c 128,-1,62
 1445 90 1445 90 1350 90 c 256,63,64
 1255 90 1255 90 1187.5 157 c 128,-1,65
 1120 224 1120 224 1120 319 c 2,50,-1
799 334 m 2,66,67
 799 294 799 294 820 266.5 c 128,-1,68
 841 239 841 239 870 239 c 256,69,70
 899 239 899 239 920 266.5 c 128,-1,71
 941 294 941 294 941 334 c 2,72,-1
 941 356 l 2,73,74
 941 396 941 396 920 423 c 128,-1,75
 899 450 899 450 870 450 c 256,76,77
 841 450 841 450 820 423 c 128,-1,78
 799 396 799 396 799 356 c 2,79,-1
 799 334 l 2,66,67
1279 334 m 2,80,81
 1279 294 1279 294 1300 266.5 c 128,-1,82
 1321 239 1321 239 1350 239 c 256,83,84
 1379 239 1379 239 1400 266.5 c 128,-1,85
 1421 294 1421 294 1421 334 c 2,86,-1
 1421 356 l 2,87,88
 1421 396 1421 396 1400 423 c 128,-1,89
 1379 450 1379 450 1350 450 c 256,90,91
 1321 450 1321 450 1300 423 c 128,-1,92
 1279 396 1279 396 1279 356 c 2,93,-1
 1279 334 l 2,80,81
EndSplineSet
EndChar

StartChar: plus
Encoding: 43 43 273
GlifName: plus
Width: 1000
GlyphClass: 2
Flags: W
LayerCount: 2
Fore
SplineSet
390 290 m 1,0,-1
 390 580 l 1,1,-1
 100 580 l 1,2,-1
 100 800 l 1,3,-1
 390 800 l 1,4,-1
 390 1090 l 1,5,-1
 610 1090 l 1,6,-1
 610 800 l 1,7,-1
 900 800 l 1,8,-1
 900 580 l 1,9,-1
 610 580 l 1,10,-1
 610 290 l 1,11,-1
 390 290 l 1,0,-1
EndSplineSet
EndChar

StartChar: plusminus
Encoding: 177 177 274
GlifName: plusminus
Width: 1000
GlyphClass: 2
Flags: W
LayerCount: 2
Fore
SplineSet
610 455 m 1,0,-1
 390 455 l 1,1,-1
 390 745 l 1,2,-1
 100 745 l 1,3,-1
 100 965 l 1,4,-1
 390 965 l 1,5,-1
 390 1255 l 1,6,-1
 610 1255 l 1,7,-1
 610 965 l 1,8,-1
 900 965 l 1,9,-1
 900 745 l 1,10,-1
 610 745 l 1,11,-1
 610 455 l 1,0,-1
100 365 m 1,12,-1
 900 365 l 1,13,-1
 900 145 l 1,14,-1
 100 145 l 1,15,-1
 100 365 l 1,12,-1
EndSplineSet
EndChar

StartChar: q
Encoding: 113 113 275
GlifName: q
Width: 940
GlyphClass: 2
Flags: W
LayerCount: 2
Fore
SplineSet
100 145 m 2,0,-1
 100 1255 l 2,1,2
 100 1315 100 1315 142.5 1357.5 c 128,-1,3
 185 1400 185 1400 245 1400 c 2,4,-1
 695 1400 l 2,5,6
 755 1400 755 1400 797.5 1357.5 c 128,-1,7
 840 1315 840 1315 840 1255 c 2,8,-1
 840 145 l 2,9,10
 840 87 840 87 799.5 43.5 c 128,-1,11
 759 0 759 0 700 0 c 1,12,-1
 820 -150 l 1,13,-1
 640 -250 l 1,14,-1
 499 -21 l 1,15,16
 499 -21 499 -21 491.5 -10.5 c 128,-1,17
 484 0 484 0 465 0 c 2,18,-1
 245 0 l 2,19,20
 185 0 185 0 142.5 42.5 c 128,-1,21
 100 85 100 85 100 145 c 2,0,-1
590 250 m 1,22,-1
 590 1150 l 1,23,-1
 350 1150 l 1,24,-1
 350 250 l 1,25,-1
 590 250 l 1,22,-1
EndSplineSet
EndChar

StartChar: question
Encoding: 63 63 276
GlifName: question
Width: 910
GlyphClass: 2
Flags: W
LayerCount: 2
Fore
SplineSet
260 1400 m 2,0,-1
 650 1400 l 2,1,2
 716 1400 716 1400 763 1353 c 128,-1,3
 810 1306 810 1306 810 1240 c 2,4,-1
 810 1048 l 2,5,6
 810 968 810 968 781 908.5 c 128,-1,7
 752 849 752 849 710 800 c 128,-1,8
 668 751 668 751 625.5 702.5 c 128,-1,9
 583 654 583 654 554 596 c 128,-1,10
 525 538 525 538 525 460 c 2,11,-1
 525 360 l 1,12,-1
 300 360 l 1,13,-1
 300 450 l 2,14,15
 300 540 300 540 329 609 c 128,-1,16
 358 678 358 678 401.5 734.5 c 128,-1,17
 445 791 445 791 488 840.5 c 128,-1,18
 531 890 531 890 560 940 c 128,-1,19
 589 990 589 990 589 1048 c 2,20,-1
 589 1127 l 2,21,22
 589 1153 589 1153 571 1171.5 c 128,-1,23
 553 1190 553 1190 527 1190 c 2,24,-1
 393 1190 l 2,25,26
 367 1190 367 1190 348.5 1171.5 c 128,-1,27
 330 1153 330 1153 330 1127 c 2,28,-1
 330 1000 l 1,29,-1
 100 1000 l 1,30,-1
 100 1240 l 2,31,32
 100 1306 100 1306 147 1353 c 128,-1,33
 194 1400 194 1400 260 1400 c 2,0,-1
300 230 m 1,34,-1
 530 230 l 1,35,-1
 530 0 l 1,36,-1
 300 0 l 1,37,-1
 300 230 l 1,34,-1
EndSplineSet
EndChar

StartChar: questiondown
Encoding: 191 191 277
GlifName: questiondown
Width: 910
GlyphClass: 2
Flags: W
LayerCount: 2
Fore
SplineSet
380 1400 m 1,0,-1
 610 1400 l 1,1,-1
 610 1170 l 1,2,-1
 380 1170 l 1,3,-1
 380 1400 l 1,0,-1
810 160 m 2,4,5
 810 94 810 94 763 47 c 128,-1,6
 716 0 716 0 650 0 c 2,7,-1
 260 0 l 2,8,9
 194 0 194 0 147 47 c 128,-1,10
 100 94 100 94 100 160 c 2,11,-1
 100 352 l 2,12,13
 100 432 100 432 129 491.5 c 128,-1,14
 158 551 158 551 200 600 c 128,-1,15
 242 649 242 649 284.5 697.5 c 128,-1,16
 327 746 327 746 356 804 c 128,-1,17
 385 862 385 862 385 940 c 2,18,-1
 385 1040 l 1,19,-1
 610 1040 l 1,20,-1
 610 950 l 2,21,22
 610 860 610 860 581 791 c 128,-1,23
 552 722 552 722 508.5 665.5 c 128,-1,24
 465 609 465 609 422 559.5 c 128,-1,25
 379 510 379 510 350 460 c 128,-1,26
 321 410 321 410 321 352 c 2,27,-1
 321 273 l 2,28,29
 321 247 321 247 339 228.5 c 128,-1,30
 357 210 357 210 383 210 c 2,31,-1
 517 210 l 2,32,33
 543 210 543 210 561.5 228.5 c 128,-1,34
 580 247 580 247 580 273 c 2,35,-1
 580 400 l 1,36,-1
 810 400 l 1,37,-1
 810 160 l 2,4,5
EndSplineSet
EndChar

StartChar: quotedbl
Encoding: 34 34 278
GlifName: quotedbl
Width: 720
GlyphClass: 2
Flags: W
LayerCount: 2
Fore
SplineSet
270 990 m 1,0,-1
 160 990 l 1,1,-1
 100 1220 l 1,2,-1
 100 1450 l 1,3,-1
 330 1450 l 1,4,-1
 330 1220 l 1,5,-1
 270 990 l 1,0,-1
560 990 m 1,6,-1
 450 990 l 1,7,-1
 390 1220 l 1,8,-1
 390 1450 l 1,9,-1
 620 1450 l 1,10,-1
 620 1220 l 1,11,-1
 560 990 l 1,6,-1
EndSplineSet
EndChar

StartChar: quotedblbase
Encoding: 8222 8222 279
GlifName: quotedblbase
Width: 710
GlyphClass: 2
Flags: W
LayerCount: 2
Fore
SplineSet
170 -200 m 1,0,-1
 70 -200 l 1,1,-1
 150 0 l 1,2,-1
 50 0 l 1,3,-1
 50 230 l 1,4,-1
 280 230 l 1,5,-1
 280 0 l 1,6,-1
 170 -200 l 1,0,-1
450 -200 m 1,7,-1
 350 -200 l 1,8,-1
 430 0 l 1,9,-1
 330 0 l 1,10,-1
 330 230 l 1,11,-1
 560 230 l 1,12,-1
 560 0 l 1,13,-1
 450 -200 l 1,7,-1
EndSplineSet
EndChar

StartChar: quotedblleft
Encoding: 8220 8220 280
GlifName: quotedblleft
Width: 610
GlyphClass: 2
Flags: W
LayerCount: 2
Fore
SplineSet
280 1400 m 1,0,-1
 280 1170 l 1,1,-1
 50 1170 l 1,2,-1
 50 1400 l 1,3,-1
 160 1600 l 1,4,-1
 260 1600 l 1,5,-1
 180 1400 l 1,6,-1
 280 1400 l 1,0,-1
560 1400 m 1,7,-1
 560 1170 l 1,8,-1
 330 1170 l 1,9,-1
 330 1400 l 1,10,-1
 440 1600 l 1,11,-1
 540 1600 l 1,12,-1
 460 1400 l 1,13,-1
 560 1400 l 1,7,-1
EndSplineSet
EndChar

StartChar: quotedblright
Encoding: 8221 8221 281
GlifName: quotedblright
Width: 610
GlyphClass: 2
Flags: W
LayerCount: 2
Fore
SplineSet
170 1070 m 1,0,-1
 70 1070 l 1,1,-1
 150 1270 l 1,2,-1
 50 1270 l 1,3,-1
 50 1500 l 1,4,-1
 280 1500 l 1,5,-1
 280 1270 l 1,6,-1
 170 1070 l 1,0,-1
450 1070 m 1,7,-1
 350 1070 l 1,8,-1
 430 1270 l 1,9,-1
 330 1270 l 1,10,-1
 330 1500 l 1,11,-1
 560 1500 l 1,12,-1
 560 1270 l 1,13,-1
 450 1070 l 1,7,-1
EndSplineSet
EndChar

StartChar: quoteleft
Encoding: 8216 8216 282
GlifName: quoteleft
Width: 330
GlyphClass: 2
Flags: W
LayerCount: 2
Fore
SplineSet
280 1400 m 1,0,-1
 280 1170 l 1,1,-1
 50 1170 l 1,2,-1
 50 1400 l 1,3,-1
 160 1600 l 1,4,-1
 260 1600 l 1,5,-1
 180 1400 l 1,6,-1
 280 1400 l 1,0,-1
EndSplineSet
EndChar

StartChar: quotereversed
Encoding: 8219 8219 283
GlifName: quotereversed
Width: 330
GlyphClass: 2
Flags: W
LayerCount: 2
Fore
SplineSet
160 1070 m 1,0,-1
 50 1270 l 1,1,-1
 50 1500 l 1,2,-1
 280 1500 l 1,3,-1
 280 1270 l 1,4,-1
 180 1270 l 1,5,-1
 260 1070 l 1,6,-1
 160 1070 l 1,0,-1
EndSplineSet
EndChar

StartChar: quoteright
Encoding: 8217 8217 284
GlifName: quoteright
Width: 330
GlyphClass: 2
Flags: W
LayerCount: 2
Fore
SplineSet
170 1070 m 1,0,-1
 70 1070 l 1,1,-1
 150 1270 l 1,2,-1
 50 1270 l 1,3,-1
 50 1500 l 1,4,-1
 280 1500 l 1,5,-1
 280 1270 l 1,6,-1
 170 1070 l 1,0,-1
EndSplineSet
EndChar

StartChar: quotesinglbase
Encoding: 8218 8218 285
GlifName: quotesinglbase
Width: 330
GlyphClass: 2
Flags: W
LayerCount: 2
Fore
SplineSet
170 -200 m 1,0,-1
 70 -200 l 1,1,-1
 150 0 l 1,2,-1
 50 0 l 1,3,-1
 50 230 l 1,4,-1
 280 230 l 1,5,-1
 280 0 l 1,6,-1
 170 -200 l 1,0,-1
EndSplineSet
EndChar

StartChar: quotesingle
Encoding: 39 39 286
GlifName: quotesingle
Width: 430
GlyphClass: 2
Flags: W
LayerCount: 2
Fore
SplineSet
270 990 m 1,0,-1
 160 990 l 1,1,-1
 100 1220 l 1,2,-1
 100 1450 l 1,3,-1
 330 1450 l 1,4,-1
 330 1220 l 1,5,-1
 270 990 l 1,0,-1
EndSplineSet
EndChar

StartChar: r
Encoding: 114 114 287
GlifName: r
Width: 883
GlyphClass: 2
Flags: W
LayerCount: 2
Fore
SplineSet
350 0 m 1,0,-1
 100 0 l 1,1,-1
 100 1400 l 1,2,-1
 635 1400 l 2,3,4
 695 1400 695 1400 737.5 1357.5 c 128,-1,5
 780 1315 780 1315 780 1255 c 2,6,-1
 780 745 l 2,7,8
 780 668 780 668 716 625 c 1,9,10
 780 582 780 582 780 505 c 2,11,-1
 780 144 l 2,12,13
 780 59 780 59 855 18 c 0,14,15
 863 13 863 13 863 8 c 0,16,17
 863 0 863 0 855 0 c 2,18,-1
 684 0 l 2,19,20
 624 0 624 0 582 42 c 128,-1,21
 540 84 540 84 540 144 c 2,22,-1
 540 520 l 1,23,-1
 350 520 l 1,24,-1
 350 0 l 1,0,-1
350 740 m 1,25,-1
 540 740 l 1,26,-1
 540 1150 l 1,27,-1
 350 1150 l 1,28,-1
 350 740 l 1,25,-1
EndSplineSet
EndChar

StartChar: racute
Encoding: 341 341 288
GlifName: racute
Width: 883
GlyphClass: 2
Flags: W
LayerCount: 2
Fore
SplineSet
660 1750 m 1,0,-1
 460 1490 l 1,1,-1
 300 1490 l 1,2,-1
 440 1750 l 1,3,-1
 660 1750 l 1,0,-1
350 0 m 1,4,-1
 100 0 l 1,5,-1
 100 1400 l 1,6,-1
 635 1400 l 2,7,8
 695 1400 695 1400 737.5 1357.5 c 128,-1,9
 780 1315 780 1315 780 1255 c 2,10,-1
 780 745 l 2,11,12
 780 668 780 668 716 625 c 1,13,14
 780 582 780 582 780 505 c 2,15,-1
 780 144 l 2,16,17
 780 59 780 59 855 18 c 0,18,19
 863 13 863 13 863 8 c 0,20,21
 863 0 863 0 855 0 c 2,22,-1
 684 0 l 2,23,24
 624 0 624 0 582 42 c 128,-1,25
 540 84 540 84 540 144 c 2,26,-1
 540 520 l 1,27,-1
 350 520 l 1,28,-1
 350 0 l 1,4,-1
350 740 m 1,29,-1
 540 740 l 1,30,-1
 540 1150 l 1,31,-1
 350 1150 l 1,32,-1
 350 740 l 1,29,-1
EndSplineSet
EndChar

StartChar: rcaron
Encoding: 345 345 289
GlifName: rcaron
Width: 883
GlyphClass: 2
Flags: W
LayerCount: 2
Fore
SplineSet
354 1500 m 1,0,-1
 170 1800 l 1,1,-1
 325 1800 l 1,2,-1
 441 1618 l 1,3,-1
 556 1800 l 1,4,-1
 711 1800 l 1,5,-1
 527 1500 l 1,6,-1
 354 1500 l 1,0,-1
350 0 m 1,7,-1
 100 0 l 1,8,-1
 100 1400 l 1,9,-1
 635 1400 l 2,10,11
 695 1400 695 1400 737.5 1357.5 c 128,-1,12
 780 1315 780 1315 780 1255 c 2,13,-1
 780 745 l 2,14,15
 780 668 780 668 716 625 c 1,16,17
 780 582 780 582 780 505 c 2,18,-1
 780 144 l 2,19,20
 780 59 780 59 855 18 c 0,21,22
 863 13 863 13 863 8 c 0,23,24
 863 0 863 0 855 0 c 2,25,-1
 684 0 l 2,26,27
 624 0 624 0 582 42 c 128,-1,28
 540 84 540 84 540 144 c 2,29,-1
 540 520 l 1,30,-1
 350 520 l 1,31,-1
 350 0 l 1,7,-1
350 740 m 1,32,-1
 540 740 l 1,33,-1
 540 1150 l 1,34,-1
 350 1150 l 1,35,-1
 350 740 l 1,32,-1
EndSplineSet
EndChar

StartChar: registered
Encoding: 174 174 290
GlifName: registered
Width: 1330
GlyphClass: 2
Flags: W
LayerCount: 2
Fore
SplineSet
500 1340 m 2,0,-1
 830 1340 l 2,1,2
 941 1340 941 1340 1030.5 1288.5 c 128,-1,3
 1120 1237 1120 1237 1174 1148.5 c 128,-1,4
 1228 1060 1228 1060 1230 950 c 2,5,-1
 1230 460 l 2,6,7
 1230 348 1230 348 1177 257 c 128,-1,8
 1124 166 1124 166 1033.5 113 c 128,-1,9
 943 60 943 60 830 60 c 2,10,-1
 500 60 l 2,11,12
 388 60 388 60 297 113 c 128,-1,13
 206 166 206 166 153 257 c 128,-1,14
 100 348 100 348 100 460 c 2,15,-1
 100 940 l 2,16,17
 100 1053 100 1053 153 1143.5 c 128,-1,18
 206 1234 206 1234 297 1287 c 128,-1,19
 388 1340 388 1340 500 1340 c 2,0,-1
500 1180 m 2,20,21
 399 1180 399 1180 329.5 1110.5 c 128,-1,22
 260 1041 260 1041 260 940 c 2,23,-1
 260 460 l 2,24,25
 260 359 260 359 329.5 289.5 c 128,-1,26
 399 220 399 220 500 220 c 2,27,-1
 830 220 l 2,28,29
 931 220 931 220 1000.5 289.5 c 128,-1,30
 1070 359 1070 359 1070 460 c 2,31,-1
 1070 940 l 2,32,33
 1070 1041 1070 1041 1000.5 1110.5 c 128,-1,34
 931 1180 931 1180 830 1180 c 2,35,-1
 500 1180 l 2,20,21
580 380 m 1,36,-1
 420 380 l 1,37,-1
 420 1020 l 1,38,-1
 750 1020 l 2,39,40
 816 1020 816 1020 863 973 c 128,-1,41
 910 926 910 926 910 860 c 2,42,-1
 910 740 l 2,43,44
 910 651 910 651 834 604 c 1,45,-1
 925 380 l 1,46,-1
 765 380 l 1,47,-1
 691 580 l 1,48,-1
 580 580 l 1,49,-1
 580 380 l 1,36,-1
580 860 m 1,50,-1
 580 740 l 1,51,-1
 750 740 l 1,52,-1
 750 860 l 1,53,-1
 580 860 l 1,50,-1
EndSplineSet
EndChar

StartChar: ring
Encoding: 730 730 291
GlifName: ring
Width: 480
GlyphClass: 2
Flags: W
LayerCount: 2
Fore
SplineSet
380 1661 m 2,0,-1
 380 1626 l 2,1,2
 380 1568 380 1568 339.5 1529 c 128,-1,3
 299 1490 299 1490 240 1490 c 256,4,5
 181 1490 181 1490 140.5 1529 c 128,-1,6
 100 1568 100 1568 100 1626 c 2,7,-1
 100 1661 l 2,8,9
 100 1719 100 1719 140.5 1759.5 c 128,-1,10
 181 1800 181 1800 240 1800 c 256,11,12
 299 1800 299 1800 339.5 1759.5 c 128,-1,13
 380 1719 380 1719 380 1661 c 2,0,-1
295 1659 m 2,14,15
 295 1690 295 1690 279 1710 c 128,-1,16
 263 1730 263 1730 240 1730 c 0,17,18
 218 1730 218 1730 201.5 1710 c 128,-1,19
 185 1690 185 1690 185 1659 c 2,20,-1
 185 1631 l 2,21,22
 185 1600 185 1600 201.5 1580 c 128,-1,23
 218 1560 218 1560 240 1560 c 0,24,25
 263 1560 263 1560 279 1580 c 128,-1,26
 295 1600 295 1600 295 1631 c 2,27,-1
 295 1659 l 2,14,15
EndSplineSet
EndChar

StartChar: s
Encoding: 115 115 292
GlifName: s
Width: 940
GlyphClass: 2
Flags: W
LayerCount: 2
Fore
SplineSet
100 150 m 2,0,-1
 100 463 l 1,1,-1
 340 463 l 1,2,-1
 340 261 l 2,3,4
 340 240 340 240 361 240 c 2,5,-1
 579 240 l 2,6,7
 600 240 600 240 600 261 c 2,8,-1
 600 559 l 2,9,10
 600 580 600 580 579 580 c 2,11,-1
 250 580 l 2,12,13
 188 580 188 580 144 624.5 c 128,-1,14
 100 669 100 669 100 731 c 2,15,-1
 100 1250 l 2,16,17
 100 1312 100 1312 144 1356 c 128,-1,18
 188 1400 188 1400 250 1400 c 2,19,-1
 690 1400 l 2,20,21
 752 1400 752 1400 796 1356 c 128,-1,22
 840 1312 840 1312 840 1250 c 2,23,-1
 840 980 l 1,24,-1
 600 980 l 1,25,-1
 600 1139 l 2,26,27
 600 1160 600 1160 579 1160 c 2,28,-1
 361 1160 l 2,29,30
 340 1160 340 1160 340 1139 c 2,31,-1
 340 841 l 2,32,33
 340 820 340 820 361 820 c 2,34,-1
 690 820 l 2,35,36
 752 820 752 820 796 776 c 128,-1,37
 840 732 840 732 840 670 c 2,38,-1
 840 150 l 2,39,40
 840 88 840 88 796 44 c 128,-1,41
 752 0 752 0 690 0 c 2,42,-1
 250 0 l 2,43,44
 188 0 188 0 144 44 c 128,-1,45
 100 88 100 88 100 150 c 2,0,-1
EndSplineSet
EndChar

StartChar: sacute
Encoding: 347 347 293
GlifName: sacute
Width: 940
GlyphClass: 2
Flags: W
LayerCount: 2
Fore
SplineSet
650 1750 m 1,0,-1
 450 1490 l 1,1,-1
 290 1490 l 1,2,-1
 430 1750 l 1,3,-1
 650 1750 l 1,0,-1
100 150 m 2,4,-1
 100 463 l 1,5,-1
 340 463 l 1,6,-1
 340 261 l 2,7,8
 340 240 340 240 361 240 c 2,9,-1
 579 240 l 2,10,11
 600 240 600 240 600 261 c 2,12,-1
 600 559 l 2,13,14
 600 580 600 580 579 580 c 2,15,-1
 250 580 l 2,16,17
 188 580 188 580 144 624.5 c 128,-1,18
 100 669 100 669 100 731 c 2,19,-1
 100 1250 l 2,20,21
 100 1312 100 1312 144 1356 c 128,-1,22
 188 1400 188 1400 250 1400 c 2,23,-1
 690 1400 l 2,24,25
 752 1400 752 1400 796 1356 c 128,-1,26
 840 1312 840 1312 840 1250 c 2,27,-1
 840 980 l 1,28,-1
 600 980 l 1,29,-1
 600 1139 l 2,30,31
 600 1160 600 1160 579 1160 c 2,32,-1
 361 1160 l 2,33,34
 340 1160 340 1160 340 1139 c 2,35,-1
 340 841 l 2,36,37
 340 820 340 820 361 820 c 2,38,-1
 690 820 l 2,39,40
 752 820 752 820 796 776 c 128,-1,41
 840 732 840 732 840 670 c 2,42,-1
 840 150 l 2,43,44
 840 88 840 88 796 44 c 128,-1,45
 752 0 752 0 690 0 c 2,46,-1
 250 0 l 2,47,48
 188 0 188 0 144 44 c 128,-1,49
 100 88 100 88 100 150 c 2,4,-1
EndSplineSet
EndChar

StartChar: scaron
Encoding: 353 353 294
GlifName: scaron
Width: 940
GlyphClass: 2
Flags: W
LayerCount: 2
Fore
SplineSet
384 1500 m 1,0,-1
 200 1800 l 1,1,-1
 355 1800 l 1,2,-1
 471 1618 l 1,3,-1
 586 1800 l 1,4,-1
 741 1800 l 1,5,-1
 557 1500 l 1,6,-1
 384 1500 l 1,0,-1
100 150 m 2,7,-1
 100 463 l 1,8,-1
 340 463 l 1,9,-1
 340 261 l 2,10,11
 340 240 340 240 361 240 c 2,12,-1
 579 240 l 2,13,14
 600 240 600 240 600 261 c 2,15,-1
 600 559 l 2,16,17
 600 580 600 580 579 580 c 2,18,-1
 250 580 l 2,19,20
 188 580 188 580 144 624.5 c 128,-1,21
 100 669 100 669 100 731 c 2,22,-1
 100 1250 l 2,23,24
 100 1312 100 1312 144 1356 c 128,-1,25
 188 1400 188 1400 250 1400 c 2,26,-1
 690 1400 l 2,27,28
 752 1400 752 1400 796 1356 c 128,-1,29
 840 1312 840 1312 840 1250 c 2,30,-1
 840 980 l 1,31,-1
 600 980 l 1,32,-1
 600 1139 l 2,33,34
 600 1160 600 1160 579 1160 c 2,35,-1
 361 1160 l 2,36,37
 340 1160 340 1160 340 1139 c 2,38,-1
 340 841 l 2,39,40
 340 820 340 820 361 820 c 2,41,-1
 690 820 l 2,42,43
 752 820 752 820 796 776 c 128,-1,44
 840 732 840 732 840 670 c 2,45,-1
 840 150 l 2,46,47
 840 88 840 88 796 44 c 128,-1,48
 752 0 752 0 690 0 c 2,49,-1
 250 0 l 2,50,51
 188 0 188 0 144 44 c 128,-1,52
 100 88 100 88 100 150 c 2,7,-1
EndSplineSet
EndChar

StartChar: scedilla
Encoding: 351 351 295
GlifName: scedilla
Width: 940
GlyphClass: 2
Flags: W
LayerCount: 2
Fore
SplineSet
464 0 m 1,0,-1
 250 0 l 2,1,2
 188 0 188 0 144 44 c 128,-1,3
 100 88 100 88 100 150 c 2,4,-1
 100 463 l 1,5,-1
 340 463 l 1,6,-1
 340 261 l 2,7,8
 340 240 340 240 361 240 c 2,9,-1
 579 240 l 2,10,11
 600 240 600 240 600 261 c 2,12,-1
 600 559 l 2,13,14
 600 580 600 580 579 580 c 2,15,-1
 250 580 l 2,16,17
 188 580 188 580 144 624.5 c 128,-1,18
 100 669 100 669 100 731 c 2,19,-1
 100 1250 l 2,20,21
 100 1312 100 1312 144 1356 c 128,-1,22
 188 1400 188 1400 250 1400 c 2,23,-1
 690 1400 l 2,24,25
 752 1400 752 1400 796 1356 c 128,-1,26
 840 1312 840 1312 840 1250 c 2,27,-1
 840 980 l 1,28,-1
 600 980 l 1,29,-1
 600 1139 l 2,30,31
 600 1160 600 1160 579 1160 c 2,32,-1
 361 1160 l 2,33,34
 340 1160 340 1160 340 1139 c 2,35,-1
 340 841 l 2,36,37
 340 820 340 820 361 820 c 2,38,-1
 690 820 l 2,39,40
 752 820 752 820 796 776 c 128,-1,41
 840 732 840 732 840 670 c 2,42,-1
 840 150 l 2,43,44
 840 88 840 88 796 44 c 128,-1,45
 752 0 752 0 690 0 c 1,46,-1
 770 -80 l 1,47,-1
 770 -230 l 2,48,49
 770 -296 770 -296 723 -343 c 128,-1,50
 676 -390 676 -390 610 -390 c 2,51,-1
 350 -390 l 2,52,53
 284 -390 284 -390 237 -343 c 128,-1,54
 190 -296 190 -296 190 -230 c 2,55,-1
 190 -155 l 1,56,-1
 350 -155 l 1,57,-1
 350 -167 l 2,58,59
 350 -193 350 -193 368.5 -211.5 c 128,-1,60
 387 -230 387 -230 413 -230 c 2,61,-1
 548 -230 l 2,62,63
 574 -230 574 -230 592 -211.5 c 128,-1,64
 610 -193 610 -193 610 -167 c 2,65,-1
 610 -150 l 1,66,-1
 464 0 l 1,0,-1
EndSplineSet
EndChar

StartChar: scircumflex
Encoding: 349 349 296
GlifName: scircumflex
Width: 940
GlyphClass: 2
Flags: W
LayerCount: 2
Fore
SplineSet
384 1800 m 1,0,-1
 557 1800 l 1,1,-1
 741 1500 l 1,2,-1
 586 1500 l 1,3,-1
 471 1682 l 1,4,-1
 355 1500 l 1,5,-1
 200 1500 l 1,6,-1
 384 1800 l 1,0,-1
100 150 m 2,7,-1
 100 463 l 1,8,-1
 340 463 l 1,9,-1
 340 261 l 2,10,11
 340 240 340 240 361 240 c 2,12,-1
 579 240 l 2,13,14
 600 240 600 240 600 261 c 2,15,-1
 600 559 l 2,16,17
 600 580 600 580 579 580 c 2,18,-1
 250 580 l 2,19,20
 188 580 188 580 144 624.5 c 128,-1,21
 100 669 100 669 100 731 c 2,22,-1
 100 1250 l 2,23,24
 100 1312 100 1312 144 1356 c 128,-1,25
 188 1400 188 1400 250 1400 c 2,26,-1
 690 1400 l 2,27,28
 752 1400 752 1400 796 1356 c 128,-1,29
 840 1312 840 1312 840 1250 c 2,30,-1
 840 980 l 1,31,-1
 600 980 l 1,32,-1
 600 1139 l 2,33,34
 600 1160 600 1160 579 1160 c 2,35,-1
 361 1160 l 2,36,37
 340 1160 340 1160 340 1139 c 2,38,-1
 340 841 l 2,39,40
 340 820 340 820 361 820 c 2,41,-1
 690 820 l 2,42,43
 752 820 752 820 796 776 c 128,-1,44
 840 732 840 732 840 670 c 2,45,-1
 840 150 l 2,46,47
 840 88 840 88 796 44 c 128,-1,48
 752 0 752 0 690 0 c 2,49,-1
 250 0 l 2,50,51
 188 0 188 0 144 44 c 128,-1,52
 100 88 100 88 100 150 c 2,7,-1
EndSplineSet
EndChar

StartChar: second
Encoding: 8243 8243 297
GlifName: second
Width: 790
GlyphClass: 2
Flags: W
LayerCount: 2
Fore
SplineSet
440 1500 m 1,0,-1
 300 1100 l 1,1,-1
 100 1100 l 1,2,-1
 240 1500 l 1,3,-1
 440 1500 l 1,0,-1
350 1100 m 1,4,-1
 490 1500 l 1,5,-1
 690 1500 l 1,6,-1
 550 1100 l 1,7,-1
 350 1100 l 1,4,-1
EndSplineSet
EndChar

StartChar: section
Encoding: 167 167 298
GlifName: section
Width: 930
GlyphClass: 2
Flags: W
LayerCount: 2
Fore
SplineSet
830 1244 m 2,0,-1
 830 1019 l 1,1,-1
 620 1019 l 1,2,-1
 620 1126 l 2,3,4
 620 1152 620 1152 601.5 1170.5 c 128,-1,5
 583 1189 583 1189 557 1189 c 2,6,-1
 382 1189 l 2,7,8
 356 1189 356 1189 338 1170.5 c 128,-1,9
 320 1152 320 1152 320 1126 c 2,10,-1
 320 1046 l 1,11,-1
 748 889 l 1,12,13
 785 881 785 881 807.5 852 c 128,-1,14
 830 823 830 823 830 787 c 0,15,16
 830 768 830 768 823 749 c 2,17,-1
 743 529 l 1,18,19
 783 510 783 510 806.5 472 c 128,-1,20
 830 434 830 434 830 390 c 2,21,-1
 830 155 l 2,22,23
 830 91 830 91 785 45.5 c 128,-1,24
 740 0 740 0 675 0 c 2,25,-1
 255 0 l 2,26,27
 191 0 191 0 145.5 45.5 c 128,-1,28
 100 91 100 91 100 155 c 2,29,-1
 100 380 l 1,30,-1
 310 380 l 1,31,-1
 310 273 l 2,32,33
 310 247 310 247 328.5 228.5 c 128,-1,34
 347 210 347 210 373 210 c 2,35,-1
 548 210 l 2,36,37
 574 210 574 210 592 228.5 c 128,-1,38
 610 247 610 247 610 273 c 2,39,-1
 610 353 l 1,40,-1
 182 510 l 1,41,42
 145 518 145 518 122.5 547 c 128,-1,43
 100 576 100 576 100 612 c 0,44,45
 100 631 100 631 107 650 c 2,46,-1
 187 870 l 1,47,48
 147 890 147 890 123.5 927.5 c 128,-1,49
 100 965 100 965 100 1009 c 2,50,-1
 100 1244 l 2,51,52
 100 1309 100 1309 145.5 1354 c 128,-1,53
 191 1399 191 1399 255 1399 c 2,54,-1
 675 1399 l 2,55,56
 740 1399 740 1399 785 1354 c 128,-1,57
 830 1309 830 1309 830 1244 c 2,0,-1
572 672 m 2,58,59
 574 679 574 679 574 687 c 0,60,61
 574 727 574 727 538 744 c 2,62,-1
 385 799 l 1,63,-1
 358 727 l 2,64,65
 356 720 356 720 356 712 c 0,66,67
 356 672 356 672 392 655 c 2,68,-1
 545 600 l 1,69,-1
 572 672 l 2,58,59
EndSplineSet
EndChar

StartChar: semicolon
Encoding: 59 59 299
GlifName: semicolon
Width: 430
GlyphClass: 2
Flags: W
LayerCount: 2
Fore
SplineSet
100 830 m 1,0,-1
 330 830 l 1,1,-1
 330 600 l 1,2,-1
 100 600 l 1,3,-1
 100 830 l 1,0,-1
100 0 m 1,4,-1
 100 230 l 1,5,-1
 330 230 l 1,6,-1
 330 0 l 1,7,-1
 220 -200 l 1,8,-1
 120 -200 l 1,9,-1
 200 0 l 1,10,-1
 100 0 l 1,4,-1
EndSplineSet
EndChar

StartChar: seven
Encoding: 55 55 300
GlifName: seven
Width: 930
GlyphClass: 2
Flags: W
LayerCount: 2
Fore
SplineSet
830 1200 m 1,0,-1
 530 0 l 1,1,-1
 270 0 l 1,2,-1
 571 1170 l 1,3,-1
 330 1170 l 1,4,-1
 330 1080 l 1,5,-1
 100 1080 l 1,6,-1
 100 1400 l 1,7,-1
 830 1400 l 1,8,-1
 830 1200 l 1,0,-1
EndSplineSet
EndChar

StartChar: six
Encoding: 54 54 301
GlifName: six
Width: 930
GlyphClass: 2
Flags: W
LayerCount: 2
Fore
SplineSet
600 1020 m 1,0,-1
 600 1107 l 2,1,2
 600 1133 600 1133 581.5 1151.5 c 128,-1,3
 563 1170 563 1170 537 1170 c 2,4,-1
 392 1170 l 2,5,6
 366 1170 366 1170 348 1151.5 c 128,-1,7
 330 1133 330 1133 330 1107 c 2,8,-1
 330 883 l 2,9,10
 330 857 330 857 348 838.5 c 128,-1,11
 366 820 366 820 392 820 c 2,12,-1
 670 820 l 2,13,14
 736 820 736 820 783 773 c 128,-1,15
 830 726 830 726 830 660 c 2,16,-1
 830 160 l 2,17,18
 830 94 830 94 783 47 c 128,-1,19
 736 0 736 0 670 0 c 2,20,-1
 260 0 l 2,21,22
 194 0 194 0 147 47 c 128,-1,23
 100 94 100 94 100 160 c 2,24,-1
 100 1240 l 2,25,26
 100 1306 100 1306 147 1353 c 128,-1,27
 194 1400 194 1400 260 1400 c 2,28,-1
 670 1400 l 2,29,30
 736 1400 736 1400 783 1353 c 128,-1,31
 830 1306 830 1306 830 1240 c 2,32,-1
 830 1020 l 1,33,-1
 600 1020 l 1,0,-1
392 600 m 2,34,35
 366 600 366 600 348 581.5 c 128,-1,36
 330 563 330 563 330 537 c 2,37,-1
 330 303 l 2,38,39
 330 277 330 277 348 258.5 c 128,-1,40
 366 240 366 240 392 240 c 2,41,-1
 537 240 l 2,42,43
 563 240 563 240 581.5 258.5 c 128,-1,44
 600 277 600 277 600 303 c 2,45,-1
 600 537 l 2,46,47
 600 563 600 563 581.5 581.5 c 128,-1,48
 563 600 563 600 537 600 c 2,49,-1
 392 600 l 2,34,35
EndSplineSet
EndChar

StartChar: slash
Encoding: 47 47 302
GlifName: slash
Width: 800
GlyphClass: 2
Flags: W
LayerCount: 2
Fore
SplineSet
700 1400 m 1,0,-1
 347 0 l 1,1,-1
 100 0 l 1,2,-1
 460 1400 l 1,3,-1
 700 1400 l 1,0,-1
EndSplineSet
EndChar

StartChar: sterling
Encoding: 163 163 304
GlifName: sterling
Width: 910
GlyphClass: 2
Flags: W
LayerCount: 2
Fore
SplineSet
810 1240 m 2,0,-1
 810 1000 l 1,1,-1
 580 1000 l 1,2,-1
 580 1127 l 2,3,4
 580 1153 580 1153 561.5 1171.5 c 128,-1,5
 543 1190 543 1190 517 1190 c 2,6,-1
 383 1190 l 2,7,8
 357 1190 357 1190 339 1171.5 c 128,-1,9
 321 1153 321 1153 321 1127 c 2,10,-1
 321 1078 l 2,11,12
 321 1020 321 1020 335.5 977.5 c 128,-1,13
 350 935 350 935 371.5 896.5 c 128,-1,14
 393 858 393 858 414 812 c 128,-1,15
 435 766 435 766 448 700 c 1,16,-1
 810 700 l 1,17,-1
 810 500 l 1,18,-1
 446 500 l 1,19,-1
 376 200 l 1,20,-1
 810 200 l 1,21,-1
 810 0 l 1,22,-1
 100 0 l 1,23,-1
 214 500 l 1,24,-1
 100 500 l 1,25,-1
 100 700 l 1,26,-1
 216 700 l 1,27,28
 203 750 203 750 183.5 786.5 c 128,-1,29
 164 823 164 823 145 859.5 c 128,-1,30
 126 896 126 896 113 947 c 128,-1,31
 100 998 100 998 100 1078 c 2,32,-1
 100 1240 l 2,33,34
 100 1306 100 1306 147 1353 c 128,-1,35
 194 1400 194 1400 260 1400 c 2,36,-1
 650 1400 l 2,37,38
 716 1400 716 1400 763 1353 c 128,-1,39
 810 1306 810 1306 810 1240 c 2,0,-1
EndSplineSet
EndChar

StartChar: t
Encoding: 116 116 305
GlifName: t
Width: 880
GlyphClass: 2
Flags: W
LayerCount: 2
Fore
SplineSet
315 0 m 1,0,-1
 315 1160 l 1,1,-1
 50 1160 l 1,2,-1
 50 1400 l 1,3,-1
 830 1400 l 1,4,-1
 830 1160 l 1,5,-1
 565 1160 l 1,6,-1
 565 0 l 1,7,-1
 315 0 l 1,0,-1
EndSplineSet
EndChar

StartChar: tbar
Encoding: 359 359 306
GlifName: tbar
Width: 880
GlyphClass: 2
Flags: W
LayerCount: 2
Fore
SplineSet
315 0 m 1,0,-1
 315 645 l 1,1,-1
 220 645 l 1,2,-1
 220 755 l 1,3,-1
 315 755 l 1,4,-1
 315 1160 l 1,5,-1
 50 1160 l 1,6,-1
 50 1400 l 1,7,-1
 830 1400 l 1,8,-1
 830 1160 l 1,9,-1
 565 1160 l 1,10,-1
 565 755 l 1,11,-1
 660 755 l 1,12,-1
 660 645 l 1,13,-1
 565 645 l 1,14,-1
 565 0 l 1,15,-1
 315 0 l 1,0,-1
EndSplineSet
EndChar

StartChar: tcaron
Encoding: 357 357 307
GlifName: tcaron
Width: 880
GlyphClass: 2
Flags: W
LayerCount: 2
Fore
SplineSet
354 1500 m 1,0,-1
 170 1800 l 1,1,-1
 325 1800 l 1,2,-1
 441 1618 l 1,3,-1
 556 1800 l 1,4,-1
 711 1800 l 1,5,-1
 527 1500 l 1,6,-1
 354 1500 l 1,0,-1
315 0 m 1,7,-1
 315 1160 l 1,8,-1
 50 1160 l 1,9,-1
 50 1400 l 1,10,-1
 830 1400 l 1,11,-1
 830 1160 l 1,12,-1
 565 1160 l 1,13,-1
 565 0 l 1,14,-1
 315 0 l 1,7,-1
EndSplineSet
EndChar

StartChar: thorn
Encoding: 254 254 308
GlifName: thorn
Width: 940
GlyphClass: 2
Flags: W
LayerCount: 2
Fore
SplineSet
840 1060 m 2,0,-1
 840 445 l 2,1,2
 840 385 840 385 797.5 342.5 c 128,-1,3
 755 300 755 300 695 300 c 2,4,-1
 350 300 l 1,5,-1
 350 0 l 1,6,-1
 100 0 l 1,7,-1
 100 1400 l 1,8,-1
 350 1400 l 1,9,-1
 350 1200 l 1,10,-1
 700 1200 l 2,11,12
 758 1200 758 1200 799 1159 c 128,-1,13
 840 1118 840 1118 840 1060 c 2,0,-1
350 550 m 1,14,-1
 590 550 l 1,15,-1
 590 960 l 1,16,-1
 350 960 l 1,17,-1
 350 550 l 1,14,-1
EndSplineSet
EndChar

StartChar: three
Encoding: 51 51 309
GlifName: three
Width: 930
GlyphClass: 2
Flags: W
LayerCount: 2
Fore
SplineSet
100 160 m 2,0,-1
 100 410 l 1,1,-1
 330 410 l 1,2,-1
 330 303 l 2,3,4
 330 277 330 277 348.5 258.5 c 128,-1,5
 367 240 367 240 393 240 c 2,6,-1
 538 240 l 2,7,8
 564 240 564 240 582 258.5 c 128,-1,9
 600 277 600 277 600 303 c 2,10,-1
 600 537 l 2,11,12
 600 563 600 563 582 581.5 c 128,-1,13
 564 600 564 600 538 600 c 2,14,-1
 380 600 l 1,15,-1
 380 820 l 1,16,-1
 538 820 l 2,17,18
 564 820 564 820 582 838.5 c 128,-1,19
 600 857 600 857 600 883 c 2,20,-1
 600 1107 l 2,21,22
 600 1133 600 1133 582 1151.5 c 128,-1,23
 564 1170 564 1170 538 1170 c 2,24,-1
 383 1170 l 2,25,26
 357 1170 357 1170 338.5 1151.5 c 128,-1,27
 320 1133 320 1133 320 1107 c 2,28,-1
 320 1020 l 1,29,-1
 100 1020 l 1,30,-1
 100 1240 l 2,31,32
 100 1306 100 1306 147 1353 c 128,-1,33
 194 1400 194 1400 260 1400 c 2,34,-1
 670 1400 l 2,35,36
 736 1400 736 1400 783 1353 c 128,-1,37
 830 1306 830 1306 830 1240 c 2,38,-1
 830 860 l 2,39,40
 830 810 830 810 801.5 768.5 c 128,-1,41
 773 727 773 727 726 710 c 1,42,43
 773 692 773 692 801.5 651 c 128,-1,44
 830 610 830 610 830 560 c 2,45,-1
 830 160 l 2,46,47
 830 94 830 94 783 47 c 128,-1,48
 736 0 736 0 670 0 c 2,49,-1
 260 0 l 2,50,51
 194 0 194 0 147 47 c 128,-1,52
 100 94 100 94 100 160 c 2,0,-1
EndSplineSet
EndChar

